<mxfile host="app.diagrams.net" agent="Mozilla/5.0 (Windows NT 10.0; Win64; x64; rv:132.0) Gecko/20100101 Firefox/132.0" version="24.8.6">
  <diagram name="Page-1" id="ZtEkRm1f9LVF6PIQ_dEC">
    <mxGraphModel dx="1195" dy="679" grid="1" gridSize="10" guides="1" tooltips="1" connect="1" arrows="1" fold="1" page="1" pageScale="1" pageWidth="1000" pageHeight="1000" background="none" math="0" shadow="0">
      <root>
        <mxCell id="0" />
        <mxCell id="1" parent="0" />
        <mxCell id="tiKHXOeTpaJvJrnmPmkK-12" value="" style="verticalLabelPosition=bottom;verticalAlign=top;html=1;shape=mxgraph.basic.patternFillRect;fillStyle=diag;step=5;fillStrokeWidth=0.2;fillStrokeColor=#dddddd;rounded=1;" parent="1" vertex="1">
          <mxGeometry x="774.24" y="399.55" width="125.76" height="240.05" as="geometry" />
        </mxCell>
        <mxCell id="F3IjeC87NHKFIH8i6jZu-4" value="Internet" style="ellipse;shape=cloud;whiteSpace=wrap;html=1;fontFamily=Lucida Console;direction=south;horizontal=1;verticalAlign=middle;spacingTop=22;labelPosition=center;verticalLabelPosition=middle;align=center;spacing=0;spacingLeft=-4;rounded=1;" parent="1" vertex="1">
          <mxGeometry x="240" y="418.61" width="100" height="70" as="geometry" />
        </mxCell>
        <mxCell id="tiKHXOeTpaJvJrnmPmkK-8" value="" style="rounded=1;whiteSpace=wrap;html=1;" parent="1" vertex="1">
          <mxGeometry x="115" y="410" width="110" height="84" as="geometry" />
        </mxCell>
        <mxCell id="tiKHXOeTpaJvJrnmPmkK-7" value="" style="rounded=1;whiteSpace=wrap;html=1;" parent="1" vertex="1">
          <mxGeometry x="115" y="535" width="110" height="85" as="geometry" />
        </mxCell>
        <mxCell id="5J9KQr7p8juKDhYsMrPo-18" style="edgeStyle=none;curved=1;rounded=1;orthogonalLoop=1;jettySize=auto;html=1;fontSize=12;startSize=8;endSize=8;endArrow=none;endFill=0;dashed=1;dashPattern=1 2;strokeWidth=1.5;entryX=1;entryY=0.5;entryDx=0;entryDy=0;" parent="1" source="5J9KQr7p8juKDhYsMrPo-16" target="tiKHXOeTpaJvJrnmPmkK-8" edge="1">
          <mxGeometry relative="1" as="geometry">
            <Array as="points">
              <mxPoint x="295" y="440" />
            </Array>
          </mxGeometry>
        </mxCell>
        <mxCell id="QS6eRsAZujKMsuQjcEsR-4" value="" style="verticalLabelPosition=bottom;verticalAlign=top;html=1;shape=mxgraph.basic.patternFillRect;fillStyle=diag;step=5;fillStrokeWidth=0.2;fillStrokeColor=#dddddd;rounded=1;" parent="1" vertex="1">
          <mxGeometry x="611" y="399.55" width="140.37" height="240.05" as="geometry" />
        </mxCell>
        <mxCell id="F3IjeC87NHKFIH8i6jZu-85" value="" style="verticalLabelPosition=bottom;verticalAlign=top;html=1;shape=mxgraph.basic.patternFillRect;fillStyle=grid;step=5;fillStrokeWidth=0.2;fillStrokeColor=#dddddd;align=left;spacingTop=-7;rounded=1;" parent="1" vertex="1">
          <mxGeometry x="650" y="410" width="235" height="110" as="geometry" />
        </mxCell>
        <mxCell id="5J9KQr7p8juKDhYsMrPo-6" value="CG-NAT" style="verticalLabelPosition=top;verticalAlign=bottom;html=1;shape=mxgraph.basic.patternFillRect;fillStyle=diagGrid;step=5;fillStrokeWidth=0.2;fillStrokeColor=#dddddd;labelPosition=center;align=center;fontFamily=Lucida Console;rounded=1;" parent="1" vertex="1">
          <mxGeometry x="535" y="440" width="20" height="200" as="geometry" />
        </mxCell>
        <mxCell id="NUGoPOzDiZfL2p5F_ZCF-13" value="" style="verticalLabelPosition=bottom;verticalAlign=top;html=1;shape=mxgraph.basic.patternFillRect;fillStyle=diag;step=5;fillStrokeWidth=0.2;fillStrokeColor=#dddddd;rounded=1;" parent="1" vertex="1">
          <mxGeometry x="357" y="399.55" width="140.37" height="240.05" as="geometry" />
        </mxCell>
        <mxCell id="F3IjeC87NHKFIH8i6jZu-7" style="edgeStyle=none;curved=1;rounded=1;orthogonalLoop=1;jettySize=auto;html=1;fontSize=12;startSize=8;endSize=8;entryX=-0.004;entryY=0.206;entryDx=0;entryDy=0;entryPerimeter=0;endArrow=none;endFill=0;" parent="1" edge="1">
          <mxGeometry relative="1" as="geometry">
            <mxPoint x="424.79275999999993" y="453" as="targetPoint" />
            <mxPoint x="225" y="453" as="sourcePoint" />
          </mxGeometry>
        </mxCell>
        <mxCell id="NUGoPOzDiZfL2p5F_ZCF-9" value="&lt;div&gt;Client&lt;/div&gt;" style="verticalLabelPosition=bottom;aspect=fixed;html=1;verticalAlign=top;strokeColor=none;fillColor=#000000;align=center;outlineConnect=0;pointerEvents=1;shape=mxgraph.citrix2.desktop;fontFamily=Lucida Console;rounded=1;" parent="1" vertex="1">
          <mxGeometry x="145" y="434.28" width="50" height="38.66" as="geometry" />
        </mxCell>
        <mxCell id="bIYMZPt_XyxImIKcx5Bl-2" value="public VPS" style="verticalLabelPosition=bottom;aspect=fixed;html=1;verticalAlign=top;strokeColor=none;fillColor=#000000;align=center;outlineConnect=0;pointerEvents=1;shape=mxgraph.citrix2.data_center;fontFamily=Lucida Console;rounded=1;" parent="1" vertex="1">
          <mxGeometry x="445.80999999999995" y="619.6" width="49.24" height="50" as="geometry" />
        </mxCell>
        <mxCell id="F3IjeC87NHKFIH8i6jZu-9" value="" style="group;spacingTop=0;fontSize=10;rounded=1;spacing=0;" parent="1" vertex="1" connectable="0">
          <mxGeometry x="425" y="430" width="54.089999999999996" height="150" as="geometry" />
        </mxCell>
        <mxCell id="NUGoPOzDiZfL2p5F_ZCF-28" value="haproxy" style="rounded=1;whiteSpace=wrap;html=1;fontFamily=Lucida Console;fontSize=7;verticalAlign=top;spacingLeft=0;spacingTop=-2;" parent="F3IjeC87NHKFIH8i6jZu-9" vertex="1">
          <mxGeometry y="-10" width="51.81" height="160" as="geometry" />
        </mxCell>
        <mxCell id="NUGoPOzDiZfL2p5F_ZCF-12" value="" style="shape=image;verticalLabelPosition=bottom;labelBackgroundColor=default;verticalAlign=top;aspect=fixed;imageAspect=0;image=data:image/png,iVBORw0KGgoAAAANSUhEUgAAATgAAAE5CAYAAAAEIzzPAAAACXBIWXMAAA7EAAAOxAGVKw4bAAAgAElEQVR4nOydeXwU9f3/XzOzO5ODaMJ9ylGdLItRpFKPeozNIv4WqVqPgiijQkJpN5rWKlar0npUpFWEtBbjtSiC2lZbJF+PULdqPeqFokuyKvcNMUDIMbMz8/n9sZ9gstlkr9kjYZ6Pxz5gdz/z+bx3s/vez+d9MrCw6IbLFr+TUzBqUCW9K4Q9nQvgVPr/RStmFPvMWvfqJ/1DbXncU/RuAMC3YUMUACAGWfXM1Y6tZq1r0fewZVoAi+wlb8iAHAB/iGHoiwB8Zq3L5bACgIvo3Yu6G8ewzPsALAVn0S1spgWwsLCwSBWWgrPolpa9DW2ZlsHCIhksBWfRLS/dco6l4Cx6NZaCs8g6DI0UZloGi76B5WToJVDPohThqSMd76yYUfxKeiTqe8xeXX8xgH5hD7cB0Nrv6KqxfeXs8Z+lVTCLhLEUXC/BlsedDmBVDEOZVMvSh7kHwMSeBnA8uxzAz9IjjkWyWEdUCzMI3/X0VnIyLYCFuVgKziKrcEwpL9j4yspfZVqOHmjJtAAWsWMdUS2iMR0Atrz74ekAc3DM2aev7/jklnc/HNu8LzChZHolt2HNEj2ZhURJdhhBpSx/iHg3gKfCn9/834/OZBi0jTn79K8BQFeN9V0msbDogKXgeg8Z+Vu1Oy1EST6FtfGPvrV0lhI2xCdK8jgAfyounbOoft0TuxNZR5TkaQBOFgqKbn172Wz97WXYEj6m2DV3PdGCN721dJblSLGICeuI2nuIxT6Uyrg1e11tdbhyAwAEfN5NrI1fQHRtnijJUjyTOlxlgijJvwVgD/i8i3raBdbXPn4QQFFcUlsc01gKziIqxaVzRwLY1dOYutpqJeDzLgQwTJTkypLplVz0eecMMzR1EYBnAj7vyzGK82Wxq+ykGMfGCx/DGDVFa1ukAEvBWUSF6MELAKyLZWzA510F4C2lqfFRh6tsQHfjREl2EF37LWvj7wj4vDEnzDOc7RWiqa5Yx6eA1gyubREnloKziIVxAZ93U6yDAz7vJ4zNfquhqbeKkjwp/Hlqb/uJUFB0Y11tdXM8glAb3+B4rrE4drEUXC+hafv+lzf/938nf7Ri2f1aiz5Ma9GHEYOMab/tfH/D+C/+8cwLsRwN44HOF7d3tL728YMBn3cBgDNESb4eAMZPnW8XJfl2AHkBn/f+JLyuQYerLLw+XdJ89nz1K5vf+d9Z7e9vx/d445q/X7/5v/+7WleNR8xe1yJ1WF7UXsJLt5zTJkrylaxdeOC5G5xNkcaIkvwHAL8HcIdZ6ypNjZMAfJro9QGf91FRks8WJXmRrrQIAJbGsxvshncNTT0LJtagEyV5fmvj/pc+e+na97sZ8rQoyX86uOXjF8xYr2R6JXfKlfMK2u9//uLypmTDbCy6Yim4JLjm2ToHa2OGhj0cHtW/f8WM4g+SXUuU5LMB1Ne98VhE5QYAAZ+3TpTkN0RJLgv4vNXJrkk5n7XxjyY5R5D+qzOc7bhkBeKEvP/qSsstMEnBUc/vkYDPG22+aqWp8QYASb+3E2f+bCTDMlva7582az5OmzU/0tALzKyWfKxhHVGTgLUxtwJ4M+y2Juy2MNl16DHxcmrA7xH6JW2LN1yjB/LjtZN1RJTkawFMDPi8C4SColuJrp0jSnLEb3KsbHzt0SAAezJzdJBvHIBzAj7vM9HGBnzeOgCDHFPKLRtgL8FScL0ApanxFwxni/oFbId+Wf9fT17MWHBMKS8AcCjR62l827ftu8kNa5boAZ+3CsBHoiT/KUk72q7i0jnDkrge46fOtwO4mRPyFsV6DWOz/8UIKkkpaIv0YSm4LIfGoPWvX/dEXGlJrF2419DUO5NxOhhBpZThbL54r3NMKR8sSvISADUBn3dt+PMBn/dDAEsNTV1EX18irCO6llS4iK603A7gQbojjAkabLyvuHROj1VHLLIDS8GlnliCR7uF6MEK1sYvjve6ujcea2Js/J+VpsYFSSx/aryKVZTkyUZQuZnGt33S3biAz7s1lP0QvE6U5EvjFYw6KsbFe10HOa8F8J94YvDa4YS8x4mu/ZzuABOCGMhN9FqL2LEUXOpJ2JEjSvKFAN5K1AZWX1v9FULHwSsTlSEeqNI4I+DzLohFZpr9cC+AoCjJ9zlcZflxLqknskOl9smcGJwKEaE7vod0pWVeItcDADGI6WEuFl2xFFyKadq1Z4woyTPjNUxT+1RppCNePAR83tcRSp+aHM91oiQ7APhjGUvj234LYDu1scUr41qGs1UZmnpfnGlY/6NhLDHjcJWVAJCS9TJTh0N+vHbAkumVnCjJk+pqVl2bzPoWsWEpuBRTMHzoFlv+cR8YQeVyUZLvFiV5gWNK+bnRjjeGps4D8BczZAj4vEsBXEE9hrFyIWOzvxFtUHHpnGG60rIYoXxSX6Iy1q97YrdQUHQz0dSfxHpkZW38fwH8KNY1HK6yAYamXkNzZpOGtfFVRNc80cYVl84dKUrytaIk3600Nf4GwLC8gSf9zQwZLHrGioNLA/61yzYBeBQI7cyMoOICcK8oyQKAjxmbfQ01XgMIGemNoNIvEftQd3BC3m91pWXJ+KnzK2M0qhd1lCkSoiRPJrp2HWvjb00mlKQdGui6SJTkK0VJXhDweXv0btbVVjeLkhxzFV5DU+9k7cKdycoZtv4XoiRPpo6To9Ad8zQAhUQPbgLwSsdQlMk33HaqWXJYdI+l4JIjlsjzToGttOTQWnqDw1VWYmjqbFGSiwA0A3jXCCrTWLvwgJmCbnzt0eC5FSsW792w7nYAv+tprMNVJrC80KMSFCV5JoBBAZ/3F2bKCQABn/dFUZIniZK8hOFsPdaYs+UVHHZMKS/oKQCayuux5R230l+zrMdx8SIUFL2gNDU+KEryPoR2kycg9Ln4grULf+pBrq0A5rTfaVy/hTnYvP+csT+c/DZ9qB8AaC16nZnyHmtYDUqS4Oon/UO5HPaosfjgF1uYXZve9Th/fPWy9sf0NkN57gbnnljmc7jK8g1N/TWAEQB2IlSiaJ0JqU0AgBnLN7xECC4A0AgADIMI9d2YVoDkEgKBYZj2HdzROnP7N9Zdv339mp8A+Ija91IGfT9uAeA7YdKP6wYWF7/U4ekcACCEFIZeR0ju8DkIQfvfpwgMPn1+XskFpsg2pbzACCrnATgNoRp1gxnO/pv6dY/vSGQ+57SKcVrz4TNiCea2iB1rB5cEkRSXKMnfPnO1I5mj5eCAz1sOhOxbRNdc1DsJAH7GZn8j2tGxe5ihDIPjARwfZRyYbn76Gnd+9gcAN5uldHuCHnsXipI8s3HXZxcPLC4+M3wM00nQrkJ3fh0k4cDg8VPn24mhn2kElbMB5BhB5RCAt4SColc3rFmii5K8EEznFo7xoDUfHgogoWrIFt1jKbgswtBUD8PZ7m2/T49mR+02oiQ7iBZsP862sXbhXRDyv+4q7UYg6a5RA0d9/3efvHhPypVbRwI+76pzPc9sBnBzMvN02M3FBDUfnA9ggK60BAG8y9r4JZHeb9bGLzM09c4kZBzM2vhvErzWohssBZcl0LCMwz3Zm2hoQh1Aj29BZTKASmpo38fY+Foa+5YyBk9ypLIsereMOXvy7mCTFn1gElDnTikAEYBuaGo9a+NX1dVWN0S7tq62ukGU5LdFSb4wwaP7IABvRx1lEReWgsseyjgh77ZYB9Pjm4/ejn45RUm+mg4JsDb+9Vi+nL0Bvc2IdZcaM9TG90MAPwDAGUFlF2PjffW11QnZwQI+78uiJC9yuMr+E8euup3+9tz8BE0PFt1hKTjz0eNtoUcr3L4WT05kOHVvPLYPHTrf0+PVPFGSBwPYZMs/zupEhVBMGtGD/w/ABENTm1m78Ko9J+8PZtViY2z844amlgGIN+A56baLFl2xFJz5HFZbjxQAiOnX2OEqEwxNPY9WvzWNutrqDQA2AKEvtdZ8+AKluaG/kJ9UgZHeThHRg/+P7tLMqpfXifra6q9ESf6pw1U2IBt2z7NX17+EsFClCPxzxYzipemQJ930WQU3e3X9IwjZUtoJtx21AFi3YkbxkyYvfYBowf6IUcHRjIXlJsvQCRq68Mykmb82rdJvb4RhmGYTC4F2v47NXmVoaiVMqAVoAqcgelGCz9IhSCboswoOwHkAopW0UQCYreAOARgAIKqnkR6X+HSEXJgFw2amqxRjY9qQ8AE+vdTXPn5QlORvImU4ZCkJ1/zLdqxcVPM5gBibE9NSSMuij7TobdC0rBlmNwGyiA9LwZnPQYR2cD1CE8rfSsDbZtFLYDjbM0pT4+xo4xLtXGYRHUvBmQxjs38LoLCnMbQU+JRkSyHFS7yBrhbJQYuFnkj/3t0SbGsZAGBfeqQ6tujLCi6WqH3V7EX53H5NiOK1MoLKzxnO/gez17boGUJIvAU1k4bh7I8aQaXn+EZChiB1Cq7HH9u+Tl9WcBmBxjJ1a3ehBR0PJ5qUnWlSEXAbCy17GzKSQZEs9O9c55hSfm53YwxNNX0HV+wqO0mU5PsA5Jk5b2/jmFZwBwIbTxEl+fpUdEnvDqKpczkh7/F0rWc2B74IhPeBTc+62zZlZF0zCPi8zxhB5dIeipwOg0kKzuEqKxEl+T6iqRIn5C1EKBzqmKUvh4lE5bghJ37O2Ph3DE39jSjJ3zI2+4rEK3VER5TkS1m78EoyGQuZ5sD2j+92uj2r/DVVpnR4j4UJF980tXnPVz/DyXFVJ882qnWl5TpEbho9hLXxMZXU6o5iV9lJRFOvMzS1jhPyFrZ/xiZfX7kY+M72qh4KMof3fn3hQHH8+x0u/ziZtbOZPlsPbvbq+rsR+mUEAO7bzfVn9h9bHB6T9E57oC8tTTQbAFi78BRNfYrI1U/6h+qqfj4AMAzT6chGCGnb8v7an445c9rz7Y8xDFqbN+9idn7zzk0jvnfOI/ljhxNbnm3ns9eO/9qElxozP/3rhs0Mw7S/JwntWg/U1w/bVffmDQAGEl1fkEplXTK9ktN17U4A9uILZtwjHFeYaAyeAoT+Ns//rCStNqlrntl4otaijQCAze+tvW7w0NOezx87vJWQ77pq7fr47UsLB3zv5fyxIzrZjQkJNabhj7O/310JLlGSRwO4HsBO1saviMUrL0ry7QGf9/5kXldvoc8quI6UTK/klKbGX0crgQ0crdtfAUBl7cKySBVZZyz/4lIAL3W9Oh7Iy6vnlVyW3BzmMOmqO385cOT338wfNrBT9di8IQO6OGo+f3F504Y1S3Snu2IaQOYZqnJ9KlKSHFPKB7N2/hkAT7TvFmet2NhFOYXb5g7v3DPm8IH6WR8+e4dppcmTYcbyL1YBmJHMHISQGc//rOT5jo/Rz+mvADSzNv6ReErGH0sK7pg4oqotTYMRo42DflkXFpfOHWkElZtESQ4ynG1FT2WMEoPJGqN525GDp27/8rWqjQ912Y11K6O/Ztlap7tiM8sLzzndnkX+mqp/myWP010xGSB3Aswv/TXLjnb2Wjl7fCzmgzqn2zPaLFmyDVpJeI6hqXmsXXikp5OGxTGi4IiujQWwOZ5rqPfr3mLX3EKiBa8TJfl4AE+b2QgmeyD2RI6a/ppl/vFT51/McNx9TrfnTI6zLUq2IobT7fEAxGmoypVJBEFnU/aAKT9ktLTT9UZQKWQ42xPm/+D2TY4JBQdgNIAPErmQOh2W0A/YbFGSh+z6cj2GT4iW5to7KHbNLUQSuYhUMd7qdHsu0XVthcNVdmMiR1bHlPIC1i4sA8i//TVVP09UHspex5TywX1ld7PjY99PDU0dD+Apk35gj8TSqKcvcKyEiYzghLztyUxQV1vdHPB5H2Vt/B8IYZIu/Z0tcHzuDwF8lOw8/pqqf4Jh7mR54Smn23N2PNc63RWTWTu/EsCD/pqqFcnKAuBj1i7E1eg6m+k/oPiFgM+70MTTw25CSK8Nu4mHY0XB8WZ5++pqq5URJaduMGOu7IBM1pXWT8yYyb922SZDVa4EMMPp9tweLdG8ZHol53R7bgfIXCOozupob0sO5lOA9Jm+o/ljh5v9g7qTaOoIk+fMSo4VBZeNZEuJmkkMw240a7K62mrFX1N1I4Ctuq79rbs8TIerTNB1bQWAHf6aqnlmHpc4jqsH4DBrvj7ITgCjMi1EOrAUnIWQioom/pqqlbrS+jvWzq90uiucHZ9zTqsYx/LCagB/NulI2olo6XJpJuuqxdCg4iGZliMdWAruGIbmxdanav76dU+sN4LqLIDc5nR7ZgOA0+2ZBUIeMILqPH9N1bupWhvAIepAsQiD/qDxmZYjHfR5LyoNiGw0Yy5RkscBOGXnhvWuESf3fi8qxwunAXgnlWvQo+dsp9tzu9Pt+QjAPzjONtNfU5Xq+mef2XLyzwDwWorXSTnbP3rzx6IkDwdwBKG2kV8LBUVbrSY10enzCs7Q1NEAtsVzDW3B50Sonn2/Dk9tZm38F4X5g94BcJ15UmaM0xmG/XOqFwkdUcmZAJYCmKXr+hsAUlzKm/mEGPo09AEFN+r0C177b3XFchrkexKAM5SmxitFSe54DN8P4CuGs9WnMkbussXv5BSMGnRmh4e6pM/pqtHWsreh/qVbzsl4MHtWKLjZq+tnALi7w0OR3hj/ihnFsxKY/gTQZsnh0Ng2J0K9Gwa1P24Elf0AvqQ5qV2M3xOvvCmuMIhuyPgfH8CIL9cuTWngstPtmQWQqbraNru+9vGDDlfZ31leeMjp9pzhr6mKt7VezBhq2+csL2RDupZpf2f6WfyE3jpBTyrFRNcuEiV5WNjTuwHUs3bh62RjA/uNGDgEwJs9jeF4FnlDBkxEFjSzyQoFB2Awonu9orU+644xjM3uo31CTwYwtv0JQ1NbAPhZu/DPvhIUmi04XGUCywuLAWz211QdLdtNcybnOd2eG5xuz1NGUL0xFQGndbXVitPtEeLtUdtbocHV79JbJ2hzoxONoHKJKMntP+Tni5KsI3S6+Zqx2b9KZSWdTJEtCs40aJ/RCQC+D+BEAGcQLTiMAF8A+FAoKHohGz7wbYcaMlqI0DmtYhwI2ZLCuZ8AcE93Oar+mqonne6KDayd/5tzWsV8/9plqegsVq+2No8D8FUK5o6JtkMNeTnHZ7YXLU073AHA1/6YKMm7Gc72Khi2H9FUkWjBH4mS3L/DZV+zdqEOhPgTyUxhbUxWKMtsUXAJfdlpqZjTEFJkPAAYmqoj5BlcF/B5q1NUOSFpD1Tr/ga30+1ZyHG2ezKicAkpQQqOEBMuvmkqMfQ5utJ2bbSqxf6aZR8Wl86dwwk5y1JUY+4D6khJu4JrL/XUur/BbYKCS4XHcx+AIfW11esRen+O9geh1XdGG0HlRABXiZJ8tEuc/1/P9Z9waSKWosyQLQouam0yTWnLdbo9Hq2lqeNRdTtr49cD+L/e1p2q6ETxbzs2/uc9Xdf+5pxWcXOKdjA9cRoYxrQYtPYvNDF0O8fZZvrXPR6T0qZK8DKn23Or0+1ZaqjKLab9LRnmPRAyB0DainMCofAbXdceZFjur0UnioUAbkpyStNj+hjOtpPo2ggA68Ofoz+4mxCht++5FSvGALjZbHlSRbYouJgwgqo34PNmPEGYEPIVwzCrIzyTAzA5SnODU8jv/wnQNWeVgOQAAANm45evPPKaY0r5p6ydf9jp9ryWiqDXHjjJLKXqmFI+WNe1KoDx+muWJdQpzF9T9aBjSvm5LC+sNkvh+9cu2+R0e8YkO088ON2eGwBIhqrMrautbiiZXjaGgPgAgIlYIou0tTU1jBAKBjQzwMFIZbQIIRGdZMnAMOx2AsSdrzvmrB8Qs2VJJb1GwdmEnNZ4jdHUS2p6Tfrnf1byKoBXIz1HQyIu9tdUPRjLXNS5Mcvp9nicbs9Thqr8OhUFJFMFPZL+jGHYymQ9snVvPPa2Y0p5PWvnq5xuz0p/TdU/zZIz1UyYduNoQozFAF7t6FRZPe/k5QCW93St0+2ZxbDcgS9feSRtIS11tdUNHRwOMWNopJDje0+d3D6dyUCIcRKALelck2HZUQjl+sVFKGSCWUyrcVySAtGOUlw6dyQSkLEj46fOtzvdnoeIoZ9HdP0qs8JN6t54bB/H2WYCOM3p9ix1uMqSbfW3ZcK0G1NaANPp9swixLhfV9p+5a+pejKBKXYTQz8mkt/TTbYouNzoQ+KH6NoYJPlFjntNQx+CUNxR3Phrlvk5znYZgB843Z6HolXjSBROyD0VSTgYil1zCxmO+zvArPPXVN1hdl+GDWuW6P6aqoUAXmZ54R/FpXPC47ri4TNCyMkmidYJquSXAxjtr6malWgrSF1VtgM4JsoXpZtsUXDvI7SNb7891X77dnP9F/T/LyYw7xjWLqS7Au9QgEm4QxL9ct8B4D+6rv0tNbsPcmqopFD8FJfOmcjxOSsA5rZE7W2x4q+p+jfDsOWckPuXnvqK9gzzRSpKJzlcZSUMx70A4Hl/TVVSXnoG2AVgpDmSpZaWvQ31umpMrH/1pafVQ+qZAMJvFwC44MjOA3szKWc7WX+YFiX5Woazbahf90QXb08M1y4K+LwLUiFXdzjdnqW62naXGUGTxaVzhnFC7h8BvOWvqepkx5l+2+szYJBpka4jDOnUgIQhnQ3XTYd3Xlhw3Ih/dbmQ6Zp2owRb//n6Q5eup17SGwGcYqiKJ54mJ8nSIWh4R0fb5vRbX3sm0vjw13/k0K7zCo4b8XqEoV2N/mHvAQE59Mqii5a03+/Q6WuYrrYtMCs41un2rOhou0sHiYZQiZLsAHBuwOeN1AIxq8h6J4NQUPSc0tR4PyK4s7OUQrM+9DSncBaN+n9BV1pvOppnaJAzAVwT6TqG9Py7VXDcCAAY3+WJCP4xgc/d4XCVbdd1bSmA1/w1VdfH9yqSh4aN3Oh0e65yuj0v6UpbBT0OxvT6u329kQh7DxgwRwAsATqHf6TTIZBCVIerLJFyWddzQt5vUyKRyWTLEbVbaEzO/4mSfGmmZckU/pqqJxmGvYUTch9JtQMinIMN30xmeeEpXVUWpjmMpQv+mqoXdKWtghNyHppw8U1T07m20+25geOFhUZQnddHlBsA7CShXO2YESX5QgDrekvz8qxXcAAQ8Hl9AM4aP3W+PdZr6FgtZUKlmS/XLt1KvYvFTrdn6cHWA2npC2FAH2yoypX1tdUZS3fqSP26x3dwnG0mMfTz0rWm013xNAC7v6ZqVgpzllsdrrKEmnEnCmsXdhBNHRt9ZAj6nSoN+LyRjvtZSa9QcJSndKXlulgH60rLcITy79IMY6RqZuqAeBDAavXQnoj2N7PpP0Bcm21ZIh0cMeniwXAbaArYzQo5aQ0VIYTsARDzmrrSMhfA81EHZhG9RsEFfN46AGNijYti7cIJAL5JrVSdCYUzkG9TvY6/purdQcMmpNSD+R1M2pwJ8XDZ4nfSsoMlQIN5zXB6ZDfS3OmKem9jOqI6XGUDAIwJ+LymNChKF71GwQEAw9kfNTT19ljGGkFlDICvUytRZzghbySApNoTWhyrMDvQoZRXOqCe8JgKXRia6mFs9j+kWCTT6VUKrr3siyjJk2IYPjzZXqjxQ8YizYHFFn0DQ23bhjiOi+mEhoXs6o314nqVggMAoaDoMQA/jWEolwFPzxhkxO5n0dshINuRvcG+13NC3tOZFiIRep2Cy/KwkZFgEs9isDh2obujjHQB6yklUJRkCcBbvSUsJJxep+CAxMJG0sQoQ2lLyxGVIUyySeixQUiX7IZsoGnXvrQ4GY4BdgfbWiJW5KSK7/8FfN40ObTMp1cqOEpcYSNpIi/bQiosLKKw0wgqEY/GSlPjVehlYSHh9FoF11PYCHVp70+/VBYWSaGnqoJMD2wB0KVaCw06Prm3hYWEk/W5qOHMWL7hDICZCaCt7VBDf7X1yHMTr7xpI326DQDaDjUM1w+05U6aeUukrXcbIaSOFq00DapoTS+uaXFMsd8wjJEATK2AM2P5hvMB5jQAXY71asvB49sOH3JOmnlLe3XfHAA4vGfreHtOXuukmbc8EHqMvLR6Xsl/zJQrHZii4K55ts7BsF0rUXTkyM4De81pBMtMBK1xn3P8ANCGHj/uOCLn+AHA8T3MwDBPo5uKvIlCgOEANps5Zzgl0ys5wzBG6mrbCYfaDow6PmdgKpfLbhiSFhtckDTbnG7PVQCz2QgqW1PcXnKbrradAJMVHMBchm76QvB5heDzCoGw79BxQ8OrdDEbAZii4Gavrj8DoT7ER7obQwyy+ZmrHUm/D6YoONbGbIw2pmDUoMsAvGzCcqnoMJQ0DMMMRZJBvsWuuYUcnzscwFiAjARwAsCMAAgLALqu6QC2snZ+W/ISxwiDY9qmaGfytVA2BzmDtfNXOt2ejtkGKkKNWXYYQXUzyws7iaZtT8LjuJ2182MBvJ204OZjZlHa+wH8qKcBDMssBPC7ZBdK5xE1mxLfTf/Ssnb+BEToQtROyfRKTm1pGswJuWMRincaQ//tGBpwECA7EAoW3qArbWv5vH67I7UVnH7r9AtMfQEWEWGAw90V9nS4ygQCnMDxwijWzp8EQkoZjhvpdHvaf4R1hNKhttFMhc2G2ra1+1p6zC6AnJaCl2HCyclU0qZ3ep0NLosZbATVbcWuspM4PkekWQ0iQopM0HUNnJC7HSEl+DXAvGmobZt6U4MZi85Qj/lX6Kbvasn0Sk439NEgZAxATgJwPssLY5xuT7sBZS9Cn4evEDJvHET2BvuayXHRh5iDpeDiwOEqG0CIMYoTckcDGIVQonL7keUM1s5/AGATQLYB8INhapI8slj0YsL6i/47/HnHlPLBxNCH08/TGfRH0eV0e9rr7h1ByMu5BcAOXWnb1t2O3iIyaVNwW9798HRRkr8F8C1r4/fbc/MPJviHSokbPXSEPDKME3JOQCjpeTS9dbQ9HETol3YnwHygKy1/b6+w63RXPBaQWjMAACAASURBVO2vWXZdKmTrhvQE+mbf8QYAkJuTn5Mmo0fKPOPUYbEPHapVO92e4vbS5Q5XWT7L54xGyCZbwgk503RdG+50e9q/AypCqYHbAGzRVWU7y9m2ZNMParFrbiHADCKaOgjAYFteQX/loFooFKbHlJ7OHdxWhBwEDkNTz1Wa1P6iJLc/F660dADfIqRQ9rM2voEQ4wBr4w+orY0cn1uUlCCH9359itPtuQ8hzycHhAz4nJCzC8A2huW2EMP4tGd7STik18YUWmQXJdMruQ1rluj0s+enty6Mnzrfztrsw3W17QTWzo/leOE8AB1sgIwBkH2H9359znFDTkxKJrW1kXNMKS8wgkp/AIPprT+AAQhVJNER+i61/wsAOtGChwEcQOh7/I0RVN8VCvmKpISJg7QpuDFnT9781tJrfLGMLZleyQVbmwsJ0J9o6iBDU08AcLquawMO7dwsDToxOQVnF47fxjDsYyzL7rC2+xZZxna1pWkwYmg9SXdqW+ktoue1uHTOMLY55zgAZyUj1KGdmy8wgooCoAFAA8PZdgLMZwzD7I83e+cHc25ORpS4yEobHFU6DfTWyYA7aeYtNgBJVbPNLRy0x6xGxRYWJrOJ1hVMqLduOPXrnth92lW/TLoAxKATJ72zbvHsKjNkQoSA4wiYEulgHatMIGRnQK+rlWWRlewAyPBMC9FXSHoHR3PnIsVk9dv8349chfkDNxRNHLNXa9Hrkl2LknVVJELBuSTddeDMDLzsHiM7nQwtLUdy8viCdCyV7moqOwA407xmLJj2vdNa9Au4HFbw/+u5iuHjzq4qPHkMAQBiIJcYRAAAohFTGkcnreA2rFmib1izxBfpuWLX3Hf2asG5gQe8TyS7jsmY+qVlWHYUMXSrDpxF0jAM+w0hRmmm5Uglz93g3EMdFvvXrP79llSulVIbXH3t4wdFSc5PsLlsRNoONQyn+adZAzH0EQjFKqUPG5nf0nIkh2NtXX5ZBVvu0ccOtuxD057Aq5yNeXz4mB++0mFY119kAgEADrXu7394V/3DglBQXzD4RLN23qaya+O6b3KPG/iyQXDBccOLZ+TY+h39gen4+o/Chl7vvu2fLSKMfmjIyEn3o4f34CgMDpkte0+wLLtD1w2zj6hJ/6Dv/OKzYoerLD/2qIKeMYLKNQxnX2nGXD2RDifD84amXgXgmWQmcbjKSgxNvU5tPTIk2xQcgKG6qqQ1f3DN/RdtiWVcyfRKTte1fgDeXvPAVF+s80+4+KZdakvj2qbGbdcAMMu4bBoMx81ra26czrDctLeWXhNzI2an2+MHMPx/z/7GlzrpEmfDmiV6hzi3rOH4vAGH9mrq7aIkb+GEvKdNiLUbSXuspJSUOxlo3TZHotcXu+YWipL8W0NTTxcKim49bujoT00UzyxG0hZsWQet1sqF8hxjh3ZvLwewxOn2XJIS4RKEyrMEQHkCXeb3I0L9M4ue6Tdu5J6Az3sHgLd1peVeUZITjmQQJflCAG+YJ133pMuL+h9a2z1mSqZXcqIkX0u04E2sjX804PM+RcNHss7JAKCfWVt30yFkCAAYQSXusBh/TdWTAO4FsNLp9pxttmiJ4JhSfi6AlQDupfLFywF8l15nETs5QGjDEvB5FwAIipK8iHbcipfzaduBlJOWOLiAz/u6KMn3AfDFMr64dM5EpanxJgB/Cfi8nY62XC63Sm/TN3S6gMAOhNlOwsoqHdm0Y0KrsW/koBMnvQOQ9+J9Db0VLidvODF0PdE6Zv6aqoVOt8cJ4OUJ026cnMn4Qae7wgmQ/wPwhr+mamGC0+wB0L89W8A86UzlYLFrbqF5bfrImwDzm8N7tp6lHGngBp04KXzXq4bdV8Cg0xGUy+G+6Hg/4PO+Pn7q/Dd1peUXoiRfy9jsi2ORV5Tk0Uhj57l0BvruLS6d2+O5m3pWKoiu7RcKiuZG+gCunD3+MwCfxbs4tUX9bef6d55McdHCrIIY+hAk+YEaeOKZ/uDhhssNQ3vnvBuf7eIRJ4TpZMRmmK5GbUK6PsYwROk8hkQyhh99TD20b6nSclArGCa+4PrVBUNrH7o8Ac810wAQjh7ds/VzsIPWBTRFwa2eV/KBY0q5n7XzU3W17bJ1i2ebMi+1wy0pLp0zjGjBSlGStwoFRSui/HCUMzb7YjPWj4W0KTjGZl9BtOAtAO6I9LwoydcaQeV7rI1flooSQhvWLNGLXWW3crzweMn0ysvM+vWmijNbdwJA6Dh2IJkJCGFkW8FAFsBIQnB39PExzxv2SPj9zvDHDwV//FAAeE4JtlwNYFVsK3ViHwCwdmEgslfB7WRYdhS6yUFNBNbO/1FXWn9Zv+4J0wPSacGJhQ5XWYnS1Hi/KMn/F+kI6nCVDTA0NZjOBtJpy2SgL0otLp3TycArSrIkSvKfAHwZ8HkXprI+Wn1t9VcAntV1bYFZc9K8wWxucDMSWeoAyQQMw1ClRrLWDmcE1W009MgUqFPmm/p1T6yPOjgJ6mqrN1D7XH4k+5yhqdeyduEvqZQhnLSmarE2voro2iwgdBYXJXkRgPyAz3tzurr3+GuqXgAwtLh0zkQz5qN5g+krIR4/Q5F8XmNaUgbSga60tu9ms7ahBcsLOxGqNZg0jinlgwFcx3G2P5kxXywEfN61rI2/C8C5oiQvLC6dM4z2MC5Mt3korQqO7s7yRUmuBHAZa+PvykRTWUNVfsMJub+nrdGShAxH9h51gFBzD1MSt/sC1NvdjFC5n6yENg83pbIvaxce1FXl1nQ7VOpqq5WAz1vN2vjFRNdm6UrLYwBeT6cMQJoVHA0VORGAEvB5l2SqSTL9kC9heeEuE6YbijR6hRJgOPqmgksmOn8nsngHR78XSVeEDB1NiZ+aZjJCXW11c8Dn/SNC9R1nJRM/lwhpUXDFpXNH0uPoMKGg6DpkQd15f03VvwEUmXBUHQaGyeY81BEIhUZYfEcDsngHZwa0ws11RNcfzrQsoiSPA1AX8Hl/Qe8vcrjKStKxdkoVnMNVJoiSXEn04BX0OLqKbpXXi5I8KZVrx4IRVBeYcFQdRo8UWQdtRp2P7HaCZIIdyOIdnBlwfM4igLkjS8qXz2Bt/HNAyD4nFBTdbmjq6aIk3+1wlaU07zJlCk6U5GmGpv4ewEvhx1GhoOgfCGs0mwnq3nisyQiqi1leuCeJaXIzddSOBm1GDYZhs1IBZ5A9CNkms5lW+gMVN063ZxaAb/w1y0wLM0mU9tfQMdNnw5olesDnfYqx2R8xNHWeKMkec+zhXTFdwYmSPImGfQQDPu+CgM/bJfKd7uK+DQ8ZyQR1bzz2NgBMuPimqZmWxWxoM2roSqt1RO3MHoR6CWQzW9t/oOKh2FV2EoCfptNr2hO00MbqSM/V1z5+MODz3g+gxtDUu0RJvpbWlzQN0xScw1U2QJTkhQAm0LCPHj0mjM2+gujabLPWTwZDVe4khv6r4tK5GbcNmglr54cBiLtmfm+AYZhkClHuQfbno+7heGFUPBeUTK/kOF540AiqEbOAMsSJAZ+324boABDweTcFfN47GM62gQYKS2YtHjGT4eon/UNtedyj6NoyTQHQ1H5HV427V84ef1CU5CsNTT2TsdnviTVKmdaKyx0/db4903aCutpqxTmtYj4n5DwE4KpYr6OxPeF5fNnEYFgOhggwewGS1fmoDMvtJIYe1wlH17UbAazKllREqqg+jHU8DUReL0ryTFGS/8Ta+PvraqsbZq+u/xRAd87Adm/6IytmFN8W/mREBcfamX4ALo0m0LYPP/KJknwOgNcCPm8irXL+pSstlwJ4MYFrTcW/dtkmp9vzltPtmeWvqYqpEB9rsw8nxDCltHKKGIaQxzBZ0tWDNV3sA8AFW5sLYc77YzrEMLYDODXW8c5pFeNAyOn+mqqMe007cCUn5FXGe1HA513lcJW9bmjqPKfb04qeKwi1PxcxrCapI2rz3sAYoaDo1mjH0e6g2QumZBSYgb+mqgrAJbEeVQkxRiC7sxiGwErT6oKutO4GAJbPGZJpWbpDV1t3IcZwqpLplRwIecAIqr9MsVgxQ8NA1id6OqurrW4I+Lz360rbi5rSdnyicnSzg2NjMsBOuHTWP5652pHsFn+9KMlnB3zed5OcJ2Fcv/xHIcuwYwCgVT3y1+a99ctKK//2m/bn8/L6dQoqbW1rbgOAQ3vrRQCK61d/H4qwihoAUDB8cKfH6mpX6mk+jo9CApVXegPESNw0wNrsdNdNhsLEhPZYuPBXL08EAN3QunxeOn7ODjbtQ/Oer0a5fvX3zrbCCJ+zb3d+en2OPbdm5MTzDo+/cHYOALx0yzkZbRZkaOpPWBv/QLLz1K97fMcZZbccQvQipRE/DxnviyoUFP1DaWpcCiBjCi5X6HcRDLIKAARbLgrHDgI6HtG1sPG2fqF/R3y/x3m1/Z1rYH5v4iXLN7726M+SlzhmBqBvZjEkxcbXHg063Z79SHMs3GWL38nR9jd3X5G6w+esMHcICscOAWIwFY0Yc07o8v3NTwEACTWCHpOMrMlQ7JpbSLRgWzY4tzLeF5Uaed/PhsDfPsgJyO482UzSiD6ezZApiBa8huFsKzItB5AFCg4AOCFvNYDLMy1HX4J6ePvDnB1cNpaJT5Zd6OPZDJmAxrENozXizCLhvNykFNzBL7b0XKEwRqhdqjHVaRvHEoamDkSo2YwVJhKZgwj9AFiYiNLUeC5MbCjjmFI+WFPaYmlyHjEusjsFF1PX9G/Wv3KrKMmTYxkbDYazrTQ0dZYZc2UrTAQDcQoZAhz1xvVBSHiMZrzsQ/YH+/ZGpggFRaa00BQleSZr53+ezBwRnQy6ajRyPPvvaBcPL/7R7ds+/ed0UZKnsnbhkbo3HmuKdk131K97Yrcoyf0zE/hL+lqcFzghbwRAmhMpD+1wlQkEOIFG0mdldkfbwW3TnO6KAYbato2AbE/gdR4AIKZCtu5o2rUvJ9fe5z5qRykunTuS6MHdyQZP08Y0NwL4u7+matXpsyvWI7Tb7hc2NK/D/9+MNFdEBUcbu5TGKM8zjinlg42g8tvuarHHQdYE/vZ+yBBE6MXgcJXlE2A4VV5jENrFjKS39vvtieg6srTWXbCtrQIgv2R5IR8AnG5PM0J13nYB2EL/3QZgj6EqmwDsCiuHvxvZn4/aqyB6cBZjsy9PZg5Rkq8FMJy18be3e2FXzCh+OdH5TAkToakhC0RJvlKU5LtZu/BQIru5gM/7iSjJl8NScAkRprxKAeQ53Z7lCCmuYYisvHbRf79G6FdwJ4AdDMPuZFl2R7C12YbkikumhIKh4kVvV137vmNK+WDWLoymlZWHIuQ5HgXgbABXABjRjRIUAIxzuj3zAGaHobZtQ1claBEjDleZYGhqTqINZTrs2laHtwpNBlPj4AI+74sOV9kAI6jcJkry+oDPm4ii+lCU5MkBnzfmHLZjgQg7rxMQUlrDEHnnBYSqqBYB+BLAq6DKS1fatvF5/WI6Sly2+B37gW0Za4UaFfrj2mMojMNVNoAQYxQn5I5GSPkNA1CCUArarwDSnRLcTm+7AWzXldatDMvtypZcz2yCVg15Pt7rSqZXckpT43wAOR13bWZheqAv/QW8Q5TkC2nC7F3xdH0XCorWKE2NdyKOJN1eRLc7IYerLJ/lc0YDGAuQsQgpsDEAxtH/d6xf1r772ozQF/AfALYZQfUrjs/ZxrLsDl3XVgE44K+pSspIm63k8gUx7yrpZ7IBwNGuUg5XWQnLC9MNVTm7rra6ocNOcCxC7/sYAN8DcAZCVZHzOSHke+ugBLcA+Ib+uwVgNhtBZWu3CpAhaQm3YYDD6VgnDEe8Oy/HlPLBSlPjvQxn+0uqOn6lLJMh4PO+Xlw6Z4Ohqb8XJfnvsaZibVizRBcl+YjDVTagrx0XDrYeGO10e2bjO5vXSIRqflEFRoCuR8e3EFJinY6O0XZfTrdnJNKchtSbIMQ4ABzNR23osBOM+MPazS5wFIDxCJkDRgAkn7XzYbtAZitAdgLYfWhv/ZFo2S+9keLSOROJrtXFc40oyZcaQeVU1i7cnIxzMhopTdWiwX430/InEmvjH4llN8fahRVGUPEA+F0q5Us3WtOBqwCche+U1xZ0sHvFc3SMAVOazTTt2tcXg3zB2vgDAGAElZgcDZF2geHQOM7hLJ9zAkBGAjgBIO32wOHNjbtGoA8qOKJr17E2PqZew9QheROA/wR83pR/v9OSixrweVcVl84ZRqt2vhfweXv0itS98dg+UZL5YtfcwnR2wU41Awc7Fr/39E1dalalajmAyUoPaDbQno9Ki4KaQgcluCHS8zRxvk/lBhe7yk4imropFtuZKMnXG0HlBNYuPJDKXVtH0pZsT3dzC6htbhFr4x/s6QjKcLYqogVnA1iaLhn7CrSjUj76cB5qa7DJjFjJRoScMBYJQjT1p6yN77EGHY2PqwDwt4DP+1SaRAOQgWoiAZ/3dceU8veMoHIz9bS+DAAzlm84A2D+ig6GeKW5YfhpM399WfgcDCJlBJA2gPn36nknL4tXJkJIAQNTss56homcTmI2HJ87HCDQlZY+u4PjuVwzjvENiF6GxzRyc/JzwivTpIiEsjxmLP/iOoBcAjBdzBIEXR0kDJgcpblhuJA/YNrEK28CgByAVK6eV/Kf9jGiJF9L9OAo6mxMe3WRjJRLotvThaIkTxMl+T7Wxv+eEBQxTOfil0L+ACBkgI8BBgjlF1qE6pzpfF5Bn93BmcReWPmoHZkIMBHLM3W3AQj/jhISSn8rLp0zjOja7wA8Z2ZcW7xktB5cwOddW1w69zNDU+/f9eXnwREnx1yhOWnGT51vJ4Z+JmvnL9q/43PX4BHpWzsNDATwrSnOijSFNmSIBvTBbAal7ZDodHtWAnhPV5XX0tnZvmXLbkaU5EuJrqXcQxoLGS94Wb/u8R0Abh56yoVx126Pl2JX2UkcL0wF8AMAYDjuf2CYJ4QBI/a3P9ZHsLrZx8ZeAKdnWgizEXKOD3Ccbbaua2dwvDDL6fY4EUrb8xlB1ZfKQOW9Oz6+AcD96fCQxkLGFVw7w5ynxBVH0w2dzviOKeUFrJ3/EUJxSkMB+I2gug6EVHe0B1y8YBoNQeszDEMf89aFo+otZqSPHUAabXDphO7e36U3OFxlA1heOIe18791uj1DAXxlBNVXGZZ738ziFkNGfv/J/z37G59Z8yVL1ig4hulq2IyXtkMNrNNdMRkg0wCcBOAIgLcMVfldjx7bCEbVFJEuI+tQWM1mYiGtJZNaWo7k5PEF6ViqizOLfv7/SW9wTqsYx9r5KQDKnG4PB+Cj1oP7h+YWDgq/NC7yxw03tXFzsmSNgjOD1v0NboBsBJgX/DXLjuUo/lEwqceFEmzOAbLqM2saDMsdIIZ+TDoZ/GuXbQKwHMDykumVnK7rk4JtLVJMhSB7gsCevHTmkRUly82i6ETxFX9N1cPHuHIDrGYzMaG1HtkLgKNxg8csG9Ys0f01yz48bujojZmWxWz61A7O4ihDYVKQr2Drd1DRWh9Bl74MROg6OuJRP/yxrvFUTNcK0oR0fYwBc/Qx3p5vgg2OofXymEGwQoz6JH1NwSX6oY/wZTWfgwe3/NgxpfzPqXSdO1xlAoBBRlA1ZQdX+/BPDgJIuYc7EzAMsx8AOF4YBCCloRTFrrmFuwO+R7538vRULtNOxur3NW/emVX2jIwpOMeU8gIjqJQAmASgcPN7r3xv7FkXZ0qctKApbWewdv7N4tK5l9LwGNNhhZwRIASEECtMJAp1tdUKrfyRnGU9Ck53hRMgL/F5RUNSuY4JJK0Yv20ITBMluf11fgXg44DPuynZeRPFNnt1/Q0I1abvKY3o4xUzil9JdBFaQWAyQqVleAAwgkoLgPWMzf5sfe3jB3/61w0/BXBdomskyXoAz7bfOdTacOrxuQMaEKr4EamIfiRbbKTjWadxtoKBT2PfV7M5Iecdp7viSn/NMtNr3hmqMoK182AsL2qs7EQKPalOt+cqgDwJ4L8Fw8SfAOip2EIsn7UunzOl7dCpQs7xgQ4P1ccvqTmMOv2C1/5bXbGcFrI8CcAZoiTPQMjebyBUw/BToaDoq0QD0Wet2FjI8exdHR5SEUF/aS36chuAKwFcFGXO5QCiKriS6ZWc2to8jmjqRIQKNXIAYASV/QA+Zm18bTZ0uw5nzaKpR93nxa65hRyf81QjZ7vCpLJFnXC4yp5heeFZgLzpdHvm+WuqVp5bsfL/6NORfkG7ybsNhwm9r+qRUzSlzbAVDLxv0Hgp6lwM03kuQjt/Cfacp2sfurxX7ALPrVj5MwCX0LsxvIffvWb10N48PreffG7FytOiXxf9/QPa30OjvuGbD8YD+D2ARRxnu+vtZdfqAK7t6bUkgtPteRBgXkzFD2ai0O9OHb0B6KwflKbGn4iS3P5UXEqPYTAQwC+jjrMxLyd8RKU12CcAOBU0WFJpagRC29INQkHRP1KhIFINx+csApg7UiV7XW11c8n0yit0XbsTgHfyNfc5EP0HJoweCgPw/WDj+wHATbHMREjkuRS1xYfekw0R53v43Wvmjx8KhAqPnpXIwt29f1rTtwZCu4qr/TVVLyQyd6wYqvI7lhdWOVxlV2bjBqId+p36CmH2TlpyqV3pte/0trM2fj3D2eqSCUS2IYau0eqhIERJHodQ+eaJAGyGprYB+JDh7G+YYU9iWMZmQjZBUjYEp9vzIwAHUh1mQv/QC51uz7bmb3c/llM0JpXLWWSOC/01VabEI/ZEXW11s9NdsZzlhZsAPJjEVBlxTtBc2S5Kz9DUM6Gp14iSbAPQBOBdxmb/36GNW7WiU8bGNHdMO7jDe78+BcAPGc62gbXxf0tJ39IMBwhS72OloSoz07Wmv6bqSafbcwQJNOuwyG5sBQNf8D99U8qVWzv+mmVrnW7PTydMu3H0l2uXZqxLkNraGN67NCHClZ5jSnkBgIlGUJm9bWPt94pOKYtpnpgU3EBx/Ps1d12a0pInRzbtKOw3LnM9hlle+LMRVBfH0yDHDIovmPGvbOxaFU9TlyygL1c8iRldaV3ACbmPALgqUzLs3+i/XJTkNwM+7ydmzktDq94G8PY1z2w8EaEWgz3CMGjOijg4UZJn7tr8X2b8hKs71YPTW7WoQaI7P3p7JnKOPzh8wik+e77t60TWD3m6sKPujcfeTuR6C4tsoH7dE7udbs+rTrfnl/6aqh6r7EbClsf9LdisrQeAXV9+PlFt2l489qxpT4cN6/TDx+XaOt0X8gfuBXCDKMlcplt/MhwTzLiCEyV5PoADn7xwz8OfvHBP3Nc7XGXvs7zw6v6NvsWJdOGijUKu4Dhb2o6mHemrTV0sInm6Uw81e7zgcJXV1tVWR+wN0R3PXjv+awBfh1pYCgt0te2y1fNKEsnwuF+U5AWiJOcHfF5fAtebRqy5qGoqFhcluRLAxgQbRAMIBWsCzC9YXliUyPUsL/xRV5WUeU0tLNKNrraVs7zw+5LplQllFbC8cA+AO5Jp+BTweRcBGC9K8pWJztEd9a++dE6sY1mEQgHqwm57O952fvzBydQIbxpUua03Q8NTr+cO6gWNmQkX3zQVwFfprHjaWzCpqUuaiJQXe+xCFdMqXdfmx3utw1VWAsBmhvc34PM+CqCfKMkRy6AngijJ14Ih30NXndXxtgkh3QXbihnFs6JNem7FijGGpj7kcJXdZUYzZnos9Zu5fTVUZTGNBfpvLLFADldZPjH0nxmqMsMsGfoSJjV1scgQ/pqqF5xuzwvFpXP+TjvaRSVUNkn7vaEqc82SI+DzPiVKcpkoydMCPu/aZOZq3w1++Owdd3747B13xnJNTEfUt5fN3sLahdsMTb2zuHRuUq5OUZJ/jdCx9PVk5gmHej+XsLzwm1jGh7bhzP0ZD4zs2z0PLDIIw7C3cEJuzKYbuuNbZcYmpiMBn7cawOBkdnKiJF9L54ormiPmenB1bzzWxNr4BUQPVhS7yk6KV8DxU+fbRUm+D8C7qTI8+muq/g2gP91md4tjSvm5AFqzKbXFoq/BZDyjgMbD/Y9GCfQI3biclaqsC9oPtUCU5OvjvZZe05SIrT6ugpd1tdWKUFB0O9HU66IpkY44XGWCrrQ8wNj4pwM+b0qDH3W17a6eDKy0T8Mthqr8PpVyWFhkAxxnexTAFTRaoPtxQs4iXWlbkEpZ6O5rnyjJUWPY2hEluQzAvvb+yfESd0XfDWuW6AGf9w5DUy8RJXlytPEOV1m+oamLGM72x3QY86mB9Wld126O9Dxr5/8MMPdk/Gia5ZjU1CVNpK2nRq9jw5oluq4qd/QUZUB3eO+lqoRXR6gd7nNqquqWkumVnCjJtwPYmoztLuGS5QGf914A00RJPru7MeOnzrcbmvogw9kWxWroNAN/TdU/AZw6YdqNozs+7nR7LgGwyTqaWhxL0I3FDqe7Ylr4czQF6hq600sL1ET1UU87OaWp8U4AvmRt9Un1ZAj4vAsBnC1Kctc3jh5LATyYTuV2FIa5kxBjWftRlf4hryO6fl/aZemBUFMXC4vUYqjKHwDy6/CjKmvnHwbwQLrjQKmS+4YeQTshSvICAK+bYc5KuulMwOf9I4D+oiQfzQToeCwN+LwZSbSkXYOe13XtRgBg7fx9hqrclZJCARYWXcmqI36kgHh6otmRjoonkaBHz62iJHvaHxMl+bcA/m2Wrd6UrlrUeNgqSvL1xaVzhhma+jBrF+7PyM6tA/6aqpUATnG6PfMA7Ik3dcXCoi9BA+IDTnfFNNpJ7DqOs8WfH2ki9Aj6hSjJd4uSvJDhbK+YmcNqWtvAdi8H0bVVrI2vqHvjMVO6OiWLrir3A7iH6PriTMvSmxBM6VqVNqxjfoxwnO1PAJnL8TkPG6pyVzakKLI2/kMAYwAM4vMKTN2EmKbgaGycA8BCQ1Pv1pqaEwAAIABJREFUGj91flY0gOV44ZcAnmY4zvRS0RYWvQ2q0F4CMDwbTjTUnHUfw9luB/AnpanxfjN1hykKzuEqKyGaep1QUHR7wOf1MTb+aV1pecDs/NV4oTaGff6aqlsBXFRcOmdYJuWJBM/lWbuPvklW7oDpd/IKAJ/Fm7ttuixTygsMTb2PtfH31K97YjftvvUXXWl5wCwll7SCEyXZYYSU29Htbn1t9VcMZ3/Y0NSHMrWTo96iyqNeU4a5jRNy78+ELBYW2QLLCzczLPdnQ1XuBFCZwe+nYASVB1gbf0/H1DDqlFyqKy2LE62G0pGkFBwN9L2eE/JuCz/L06DBBzO1k2N54X5DVW5s95pSr+rWSLFAFhGg3bUs+g4hMxIjfvnKI69Rr+pyhuPSHjZFj6X3M5zt3kh5r1TJ/VVpavyTw1UWqZVizCSs4ERJlgCcH/B5F3QXehHwebcynO2PhqYuonFoaYEeTb8JtzGEdnPkxmw8qlokhXXMj8L4qfPtHC9U6UrL0WIU/pplawHkpPOoevRYahd6DP4P+Lx1DGdbZGjqfckouYQUnCjJFwI4hcbA9Uj9uid2Mzb7QiOo3OOYUj44kfXigR5Nrwt5izqz8bVHg7qqeOKpsJBqVL016W24hUU0GI67A8BfwpWKoSq3AKhMdqcUC8Wlc4YdPZbGEGVRv+6J3ayNv8fQ1PsS3SDFreBoyZPRAZ93aazX1Nc+fpC18XcYQeV2UZId8a4ZD6FAxu77mtK0lZgqLKSDXHtBVnibLcwlUkPoTOF0VzgBDKYpjJ2gR9V7aBXflCFK8miia79mbfyv4inHVFdb3dC+QaKxe3ERl4KjBecKaH2nuKirrW4WCopuBjBDlORJ8V4fC/RoGojW15Tm3c2MVmHBwqK3EzLUk/uoUyEiNDdbc7o93eaVJwPtqfxzTsi7LZEiF/W1jx9k7cKdRAsujPc7G7OCowXn+sVbcK4jtBLJQgCXF5fOmRhtfDzQLfbPIx1NI8lhqMpdLC/cbaYMfYmC4YOzZgcSDYZBbqZlyFZ0XZMBvBRt12Soyu8A3GaG57Ij1N59Myfk/TaZNMm6Nx5rYu3CnYam/j6e46pt9up6CcBQej/8Q60BwKY3XyneV//5rmSUW0eEgqK7lKbGO0VJZs3qn0iV1e9ijcyuq63e4HR7NKe7YrJVXcSiL0J3O9M5znZFtLF1tdXNTrfnWZq7HXfLwUjQY+mNrI2/1Ywc8Lo3HmtyuMruYu38H2c89sVb/HH28O96J/3VtH3/qzYAvwNwXk8TD3ac8cA7y2+OujOKFaqEFoqSvMAxpTw/2X6k7V6geJOGDVW5k+WFVeOnzr88U0n4rWpTDhjTEkosLI7C8sL9Pdmjw6F9HFY4p1WMo2FVCVNcOmci0bVrWRt/u5m1F+tqqxtmLN/wJH+c/f1oY/OGDCiK6ZvVb9igQ8mL1pWAz7vICCqnJtNajP5KLejJxtAddbXVzQzL/ZnhuFsSXd/CIhIkw3GEtGPc1mj26HCMoPprEPJAMmuLkjyZ6NrFAZ/35lQUluWP52MeawNwnNkCxEPA560SJfnKydfcd8/3zr2kAZFjmrp97PDer8+zC8dvyy0ctGjiVTd9uLr85JXxrP/lK4+85nR7flJcOmdi/bon1ifwEvokdbUrM56EbZEYjinlBcTQf0F0/fJ4rpuxfMMZADPz8N6vR550/uWrcwsHbenwdLjCjqTA23Z9+Rn2fP66QAviZpxYO9u3pFKIgM/74nk3PtsPwJPxXnvckBMB4CwAAMHTAOJScACgq20LOCH3JYer7GLaneuYpzfVzSPEcjJ0hLXzSwHmnvj/hsx4ADd1+k7FSdGI4c+/tdSb6lacMf+9YzqiHtmzL+WxWsOcp2asdlx97eMHGZZ7gOWF2zMlg4WFGdCj6f4EHWdJp1TmFg6qS3aOaDSu3xLTuJa9DW0x7eAO7dx8gSjJHV/8fgDrWbtQV/fGY03xi5h9tB9Vne4KZ7x2i2Roa9zuyOk/OvpAC4soOFxlAjH0XxiqkrBNO9ugISETjaByKqg5bd+eT08qwpiYro9JwY34/hmvr1s8+2jmgmNK+WAjqDiNoHK9KMn9OgzdznC2DQzDbozXuMgwaI1nfCowVOV2lhceL5leeUU6CgE63R5PUGm910qk7HswGWjozfLCXQAe6K0d42hA8CkAigFwAGAElSMAPmds9mdpxzzQ0LbrYpnThgQSlWke2T4AvjABRxNdO5kALlGS210dOoBNADZwQt43KbbtJPWhqqutbnC6Patoh+8qk2TqgsNVJrC8sBTAHJYlKwHMTtVaCdJrgnyzlcO76iudbs9XtGx+yqGB8wWZ6q8QD7SayKkATgVQ1OGpzQA+FQqK1pi1wbAhpKiKANhBtWYH2o+lR2KZjJY52QrgaB/DkumVnNraPI5o6kRdablElOT2NVQAGwF8EfB5tzZv3sXkjx2RxEsxh1AsUMXTE6bdOJp2BjeVYtfcQpYXXgIwmWG5af1HnvaZEmx7L3wcw3RW1oR0Vd6RdgmEYLTW1DDbVjBwGb5TVOHjIvwQkA4miMx3ZY8P4wGAHdLxkfD3D4j8HqqH9vyCGOrGnP6j3g2NidhjNYbHSCf7ldAvH2pLo9fp9ozw11Q9GP01JE7J9EpO17W7jaCaDT+UnX4cRUkeDeA0dNyVaWoLgPWsjX8hnrzUMPZGeKzrdyTByZPG4SoTCDHGE10rATCq3+BRxWLpjGT/QKtXzzt5ZvRhnZm+4LVLCMEjHR8LkmYbz+R/28NlkTzL4cfsTn/sg60HPmv45j03AEFXlYtT0Qh7wrQbRxNibNFVRUxHo+3ejtPtqQewzF9TZfqOnRZ0eA7A84aqlI+fKuvB/c1HjfAMcDiGaWL5nOWqpHkkz+S3lwc7sObBqXGX6J+x/ItKJJnFsP/rT9Zu/3Bdx13kdtbGr2c4W10mPPOxhomYDrUTrKc3zFi+4Xxk6qjGMLkMIZ0s/TyTDwCmbim1pgMXAnjLUJUr6hP/5eoRQwvuYjhO53hhFABLwUWnCKFTjOn4a6pecEwp383a+b+zvPDGgW2bri7MHZISj1LHzysJnaIyQh475MOAz5s1lbMzpuAiYILdJ/2G3XiwCTkfGKpyUSqNwBtfezTodHu+BWBaUc9zK1beBuBoqZrwUkCRovYZBmFj0MYwpMvrJqRLWaEIczFdHFC8LXd97UOX74kufffQo11/AAeSmacn6t547O0J026cTIjxesM3/3ut8OTpqVoqK8gfNyKrzBvZpOD6PMcXjv787dp56fgA7AFgZnHRecB3fnlCols2CIn0WKTrEptLCbZcDWBV1It7INjWMoC185yhKvuTmScaX65durW4dI7ECblrUrmORVf6VJa30vztJKfbc0M6KgdnOVsAjMq0ENkOaxcGAgAhRsp2cO3Ur3ti9/DiH7lSvU4yqK2NZpRKyioPfJ/awQn5/T9hWG4na+cXOt2egQA+AphXogfukpSXawYAJn0J2PsADIk6KnbS1k8jvZChAHQ+ryArmpRngpLplVywreVs1s5f+W3dV66hp/0g0yKZSp9ScEAoIwHAayH7ij4JIFc53R4ngK8A5uVjpPbbDgDnZ1qIXsBAAN9mQ3f3dEJtj+cDuELXtYGsnX/LCKr39nectBVA1D4rvYmsUHAOV5nw1ZsvXnnSBcm2Sfguhol+aD+kNzinVYwDIZc43Z5bADQCqDFU5dXeGvUdhd0AhmdaiBRjxm54MEKfhT4PVWpnIKTURgJ4ywiqCzs2f5l4xY1J55w3b9qZVY6+jCs4h6usxNDUX+UNOulfAG5O1Tq0gN/DAB52uMoGsLxwBcsL/3K6K3YfbPimrbDoe6laOhPsgckhLn2UgQB2ZVqIVFJcOnckJ+TMpTu2/4BhqpItZtkTBw9u+bEoyQ2J9G1JBRlTcCXTKzmlqbHc0FS7UFA094TJp5+st6bnpECjp5cDWF5cOnckgN+mZeG0wewCSL5jSnlBXymGkCL6AziYaSFSgdPtuQHARQj92K3211QtTMe6Iyb90NuwfcOXoiT/ieHsD9MG8BkjIwpOlORxSlPjL1gb/3R7c+aSy8r3AmjvV9qmthwUDmzeetbwCaf62h+LMFX4Y1vilaV+3eM7xMmvfQgD8+K9NgHS4mTQldbdnJADQshQAJaC656hSFGQb0TSlIAfJM02huV2sgwzMz77InkTYH4Z4YmIqX67vvxM6vD9pGPIen9N1QcOV9lnhqZ6REluFgqKHs2UnTPtCk6U5OsBHM8Jebd1TN147gbnHgC3td93TCk/1wgqH7y1dNbL6Zaxt8Pn9dut65qVzRCdQeiD7w/P5H9LnW1xsXpeyf9v79zjoyjv/f+Zmd2ZJBCScA93EGeXxSha0crPy3iSiC5yrLYqSmW0uSCnG6RWpdVe0FYqelSUVAuIulROvbRVj5qKhHarHi+1VSkak1WRW8LdACGbzOxcfn/sk7jZbLKXmZ3dhH2/XvuC7M4882yy+53n+V4+3/cBvB/v8bwg3nT4y/f+Hm3LS4RjV/GC6JTaWh/kBfF3fp835VpxkViWB+csqyrhBXE1gG1+n3d1rLo0LSgt4PKLsomRSUDulqZWM2Qa0aobkmAEQgGZLElA29jnlfbj/da8+n3eRobLux3AJbwgLjG7LWEsUm7gSuYvY3hB9GiKfD6XX/TjeNoEksbQ7w228P3RjkNjHGVVpybS19EAu5ENNMTC2i3qIIOs0jpjdZz/bPPjQb/P+yiAv5HV3GxrZpjiLaqzvHq01Nb6a4qxPZZgQ5f/ZLi8e1M2sQh0Xc+nLBBWUdqOLGJY7kYAcLk97QCaEfIb7kEod203RTPNuqbt0YLSHoMBghZ80+/WKJYkQqeBlNahRiIF23NybUNjH2iclPZQCYdi7Jt0JbgY3/jP+4RsUZfxgujhBfE8YvRSSsoMHC+I87SgNJu2cz9O5IvqKKss1JVgx0BqehIvtvyRa3Dw8+cBTEAoB6sYoXy1iQDOATBW19RRAEDb2XAj2IKQTPx+hAwh+Zfar8mdB/rQ1DK7mmFQQdpNMqrU0Z8kVjzjcLqujwL0kQyXOxyh1JPREf+OAjCibd/nkwqnDa4/SdPWJ/bygjjaWVY1JN6GTaST3lm8ID4I4FGiI5kSTDdwjtKKYl1VlgHY6vd5VyR6vq4Ev08xdktUUK2mMG9k61sxFFdnzF1i15TgGIbLLQb0cQitworJYwqAOQh9aSYAOkOzHFxuj4qQ4WtBSAhwHwAXgKEud808Te7cDYo6YM/JOzJYtv26BtnI+TSbMwbQgTDhxJL5y5hgR3shzeaM0YLSCNrODkfo919A/h2J0E1jBPn/SPRc3Xb5PvcDOILQTekwQoGMw3TIIfSQkXlnKOs1Rb4GwFPxnuD3eT90llV9qilyDcmbi/vcRDDVwPGCeJ2uKlNpG3tPMu33SG5ccbpzZ9IJWbnuJY8+ITWEI6DrY2g2ZxKgj0HoS9j1GAHgFEB/mWY5BgBUVVFdbs9ehL50LQgZwq7HfoBqUaWOfbTNfmAwrKCd5dX5NMuNgo4RAEYD+gh0GyfdBQAMl/snl9szAkCRqirDQ78rHbSdBUIGqhUhY3WY/LuN/L/r50OqLB0C9ENdPQP6Yv6dr0+BMvgMnN/nbeQFMWGBTVJF9N9kNbeatrEbutLGzMIUA0ea0PyYtnOvNm5Zl7SEjdTWeinC5M6z9A1ZiXX1xuj1oXC5a+YB+nMNdbVDQ5UbOWNIcfkEhAxg1788Qtvk8YA+hOFyyPmeri3xPhjsdZEKOo/uupjUGPfaCiLUfWkCACZMa6kdPQ1TPnnuDYTeYyuAw5osHdJ17TBtYw8PBiNvIVt4QbzE7/O+keiJfp/3w5L5y7ZJba3VvCCWMlzeb8363Rs2cLwgXqcFJZ62c782IWt+jt/nvcvonBKFQlQd/lRgWd2rKgWaGS53iKOsspD46I4A6FdVxVlena/r+liKosbSdrYYoShsMYBLLJhyQgQ7O2sQihR3bQVbQbaCAA5SNHNY17SvKYo6qEodhyN3FC63ZzGAW63K8AeAQOBETh5riTCL5R3q/D6vjxfEexG6YSQMuWE/7iirOlWVAg84y6o2NNav3046aEVGaZXwH7Sg1vjMDTO+iDZuLwO36NmmcwG8F+XYHln4O9/54Mr9/95SDuBPfp/XkPAgAPCC6ARgeSLgYIWimRYAYNjccYizHIncoNoQkfx6Qc15t5s+QYPkj3Vc9Vbt9/9qYIhihIxjFvNo5AXRaSSht6l+/ecl85f9WGprrXa5PfPlY8H5bIH92/2dQ9vpFQDujvpaAtfOCX8c2/PxZbSNvdPv85rVpuxa2sY+b9JYJz32nLwjAFSyLR2E6EZTIYYjememLElCvr/XGh1n+yurVb/P+7gSaNsktR8xpIqTdKJvyXcrHzdLaogkvgYHqXRRWiBL/r0I+aKy9GYEsis4UyHf36CzrMqUvEm/z7srf9zYqFvPeMkIyXItKFUAeDbd8xiEHIbBZN8Zc5cY1gjLUEYiu4JLBZs0Rb7exPEMxQnSbuCItZ/o93lTplEVB1zsQ4yjo1cHqVTTAoMrOGfZQktrBy2kGBZWMQAAQ9usCmalrS8CSdqdYnHNaZ87v2jWMTeuIXVdiX1QbEiCYLrF8SQAJ8J+Hhrl54HIXphXrjXYSFcd6ol+Xhuon7NIXsuUlK+kl3/HPttlioEDMD1VWczx8sqqufcBuA/ozh+b2VBXe39/51z5wNs5/r+/cFFewZjiCbMufBYA2loO9rxDR+h/5RePsVpccS+AWRZf0xJy2Xyjq5ThFM1YuoJ746HvfIwEGvi43DVP66pSFbmKjvyctTT9dd2Iaec+xLF5OwEA1jU3iorf532HpIwYMnAz5i6xy8eCw9iC5L0kSRu4Lz9+9V5nWdV9RjKPeUGcA8CsKKxhQqoI+mKGsV0Z69gXbz+/01lW1dKutZzx4u3nd32gMqplGkKJuoO9N0PCdNWhKh0nMtwHp9OfbX48GCXptcfnzFFaccuRHe+vbair/U8LJxeLL4ykjPCCeIkqBb4H6PHtKPsgaR/ciFPOuUtT5G/zgngvL4iTkxzmEobLSyoxMBUwbM4qTZbuSqBe00zFjhRAHUDImZ40vValg4BQVQcAUJau4BKB+Kb7285207R1wz4Az7jcnjtSO6v4ISkjVYmexwviZLL6y/P7vNVsAWsoabmXgVMCaiOAihiPWybNnn3U7/Oup23sSgBX8IK4PBGdM9Kc+etMKYchGvaNiaxISYWAIQOSSlQp0AxgCFmxZOkmlBtIUVRKO9obgWZzJiNGPXI4DXW1zwOY4HLXWKa11h+kcmQfL4jT4jneWV6dzwvicgBX0Db2Hr/P+xIAqLJ2sSprReEPJaAWhz/a9hxa3de4vbaoRDr8yQTfyKOkHvVWXhBbGC7v6TgUexfRNjatvrcuHKUVswBc2lBXa7RvYUbRVc1AViyDKuerI9hm5MZYDKA9k/MuKZqeqGtqQjJCmizdTrPcC86yqpv6kNCyFNrOrdWC0i0Aft3XMc6yKk5T5B9oQWk0beceD29jCACbFs0w5Lc2LU2kccu6g36f924Ab6lS4Ne8IF7X17HOsioOwNBM+CM4y6qGMFzuPVpQrkj3XMymq5qBoumJ6Z6L2bBMrhHZp/EI6exlLLqmjteC8u5EzgkZbOonNMs9lQn5i6T0T+trZ8cL4jxNke8BsNnv894dadzMwPQ8OL/P2+j3eZcDaOIFcZWzvPqCyGM0Rb6KtrF/MvvayUCz3G8A6lfJCwVQmtU68/HSVc2ga2pWurwnY5H5K9pJNMslbIQb6tY0ANhAMcwK86eUOBRj36gFpe+HP0f6s6wC0O73eZenMgc2ZYm+fp/3Q7/Pu1wLSlN4QXwwwg90mtm6T8ngcnv+A0BbQ92aD5IfRT8Y7Axkso/LWCDEolZ3FjMSFif5JkGxJnUmtcpsqKt9GUCuy+2ZY/KcEoZoO04AQlkKvCDeqylyKZdfdKff5/Wl+vopbxvo93l/7yyrqtMUeTEviAEA/4cMUA0hy+ZlmixdbXCofbqmjkPmNi85gIyO9KaFMcj8jva5RnyEmiz9nGa5PzjLqxdmQPPvv/OCuEpXgh0UY6slUV9LsKRUq7F+/RG/z7uSYux/BPAIgJx0b+toO/vfqtTxCxMczc0Ml5fJW8B9GIQGTlYDRnIOixHSkBu0NNavb9dk6S7azj6cznnwgigAKAXA+X3eFVYaN8DiWlTSy/LPFGP7QGprXckLYlqEFF1uzzUAvkyw01df7AX0TFbsyCqK9GYsToJ+qMQN9AFJgbIUR2nFLOJnKyQ++W2OsqpTrZ6HpQZOU+QlFGPb1LR1w8fkTdt5QVxF0jQsYea8pZMBfI9hbA+aMR5F0c0AJpkxVoowVM0gBdsHlQ+ORBdHIYODDMR9EleSbywa6mrXAtSFLneNy4zxYuEsrx7NC+IKXVXOJH62lwCAtrH/oyuyYa24RLHMwJHmsPnhS1S/z/saw+X9TFeVElIREVdSYLKEWrxp61Sp81azuktpSrAFGdyej6KZZgAT0u0SyBQ0RR4JABTNZGyZFm3nJiLUL9cUVLljGaDfZ5ZOWzScZVUcL4geLSjdRNu5B/0+71Ph37EwrThLA3IpDzJ0oSvB6wCsjXyeJAT/niT8/ZgXRJnh8h5JRYUDzXK/oGjmITO7dn22+fGgy+1hzRrPbNTOQAvNcgyJ9CYcCOFsQ492nGh+UQtqV9i4nPfBDv132MsFUU6JtuLr8RxF9Vas0fXez1GgejynQ89HqHViJ2cfkpQPjqLokQCga5qhfqiphCT57jdrvKb6J4663J77aJarBXCTWeN2wQuioCny9ZSNfaCpfv3nfR1HMfZNmiJXIo4m0WZhmYEDMKG/fBdi4VfygugkicL/5PKL/hy50lqwdvtFANVVDB/5ZYqm69Z9TOsX/guKpvPTSuZXTXl28Wm9jO2ghKIOAABt5yYjCQO395PXWdrOzgRQr6vq5ekurXO5PfcCWE7RzBkIbb8Tgma5UQBAUVSmRr1B8hZ3mjUe+c7cfOLL5vNOv2LxiwDVnzhEtKBbp67r7z53c8lz4U+SHddiAP/k8ouWxNoVJdMk2iiWGDgSSfl7PMcS9YHlvCDOIYGIv/TMl6FOB3BLMvMoms4DwAIAx5I5fyDSuGXdwVBjaD1hP5yzvDqftrN1ANq0oPy9xi3r0l433FBXe5fL7cnVNfVPLnfNxUnkMI4EAFXqyOQ8uLGqLL1l3nDUVAALhp4yHgCSEsagKCoHwHNA6HOhBaUaAMdpG5toJkLCTaKNYJUPrjzRfol+n/cdEogo5AVxlckRGLMVfE+k0r9hAnsBJOTfnDF3iZ22s38EkK8FZXcG5FJ1wzC22wG8DOivJfG5GI1QHaolK4gkmUyFWiJmFCXzlzG8IN5EeiA/4fd5axNNsyILmOkpmmIvUm7giJTSzmTP9/u8LzFc3s90RRZ4QfxZ+47mTDQke/XM1l1rARB3PWrJ/GUMxTBPAzgTFHVZKmoEjbD9ldWqrqo3AviIYblXiTJNvBQjw+tQYTDJNxUcP/DF6VJb60qKsX3k93lXGPxMbLEqRcyKLepC2sY+YmQA4vdZ7yirLDwaOPTwEGRcXu1+huUmIqKfaCqZ/5PNFbqud0vjUL1VXLt/bjveXAjg0lOWb462Ne/1Rfr6a/85WlC7wpY/YmNh/kit4bU1ps3bLJxlCxnlUPvBwwcby7icfN+pZ3432g6hl4/p6LGdF8odJ/LmL9/8S/JUr/cf3juDoqi2V+6bu8G8macFwzsWNqfoE7KjMozRJtGJkFID5yyrGqIpMszaDjTVP3H0zKuXvQfgRjPGMwuKZpp1TbU2mVaDQIH6fuwDgfxh5IagY0U8xw8v4rv+eyNUvAQTHd5m0bbvQGGubej3R452AsAM8ohJYcGUUOy3n98FBeqbH3RsBzDQDZxhcgpGGO1DG4nhJtHxkNItqqbIV1E29oVUXiNJTE1e1TVtDwZhORQAgOq7Y1EW8zEzyTeTMatJdCwMr+Cuf7JhrC2vlzSLBACH/Z/NHsnPOPPcytsYJaD+hohpGiXjvnCq3NHCsDnZcqgsxtH1KUhAyXcgsujZphcBDGtr2T/92zff+e2wl8JdCo9sXODwGb2WYQNH26mhCOXC9GIkPwMAzgMAJod+yOi1AAAUgtBNGck0SCJlYbrnkWXgQ7PcNJhv4DItEf08AGPyx40F+i5zfK6P5xPCykTfpCiZv4yRA22jdVUpBlDcvH3bBeNPO8PQmJ1th09xlldfQLNcsyZ1NmdaxCrLSc00ANuSPXnG3CV2TQmOYbicSQiJLIxv/mTbJUa/M8cPfHEOL4h3IrR93kfbuf1aUGqmbeyBJHzslqkNW2bgjn6ys9tzWzJ/Wah0SNfHaIpcjFAt5wgAeZHnSW2tKkIZ+M0UY2suyBthilOStrOnQtdLaZYrdrk94SVBHQgpTeymaKZZ7Qy0AGjJBHn1CKxKl8m0VogAgNycITkwqzNv/5jtXI/FVFWWXo32Qsn8ZYymaRN0XRsPYrwQSv8Jb3wkMwxzAMBugNqryZ31hXkjhwG41MikcvJH/t3v8650llUNISlRYwF8S1PkYl4QIxtWq+RxAMAB2sbuQ8/vUDx10aZ87owbOIqKa4wvP361ihfEdqDbaH2NUH7WQYqxN1AUdSieldSZ1/5optEtak7+iOaGutqojXWcZVUczeWM12RpPG1nJ9EsdwaAsS63J/xDpCKkJ7YbwB6AagH0nBlzl9jTXcqUZWAyY+4SO22zj9N1rYRhufNcbs/lAKYC6HZ9qKoiI2Q0uo0X4rj5zrr6llKj82PzCimgu8nU54iREhUSttBH6WpwtKbIkwB8mxdENtqpAAAfQElEQVTE4ba8fAbmJ9r3iWEDp2s6h/Cweh+Mc168pv6h7xoOMuiarlBU7OslCzGyO8gjKqFt84lisg2YCujlAKZRDPOGy+2RyWEHyBi7KZppVjoDOyhgd3Y7fHIStvo6BSHBgEkIbUe7lGgkXdd2IrQ66gSotzW5c2MG7hzignzO9yKKP/HsRTV3wORMhr6wbIs6+rS40pRiQlFU2g1EVzMX8ngHAFxuz3EAHzbU1b4DhLqn67o2keHyxuuaOp5hufMATIhQHukAsAvA/lAunbZHlTtamuqfMNQqLYu1xLN1VFVFRWjH0rX6+gBRVl8ut2cz6XFqJoNK0y8RMj7IMIA4iNCW4h2guyn0EQB9qgZ3+TMYlptIEoW/xbA5YyMisl3bkn0g22EtKCXULzOLMRyllRPCnfbovXUMM17Yr0odf6Moek+iqy+SA3cyCEHEs0U1xcOaNXCmQX1FtqpxE48/45vtcG5xSBFEP5e2s1cf7Th8ZmHuyL5OMw8tM4MMgcCJnDw2artNU5H19gkMl7MECfq9kiEkdKlbVu6XIBn5OYiF8Tw4G3UUwP9EPN0rGkrZetVKphHK9CW7KnXsY7icpKRo+iNiO9zN/DvmlyDky8mSQlhqyOcNdbV3WXS5qchAFZEUcB/QS+CURVh0VVP0L8y4kGED9/vrnbsALDRhLnFB2+n3VFm9DAACO1vQvOOt6/jSa3tERFs+3TZN1ylu/Gmnf9T1HJNrCyughulSOWze0H1qKFcvS5Yk0SdQNLPT7FFpO/00ZaP+Ev6c2qHkAEDzJx+PoyjqjHEzz/hb+OtfvvW/ZbnDpxwpdp3eCAD2ITZTDA4AbFzguNussWIx4LaopNzrdQDgBfE6ALXPLi7pIXrIC+JOAHPeWrPwfavmtf2V1arL7bEs/J1lUFKsdAb+avag5DsTNYOBiNH63nz0+z0EaWfMXfLOsb3+FW8+unC12fOxEku7apkJ6Y40y+/z9lJ0pW3sfiDzNJWymAdD26yKDFrpWilOg9DlRMrG9tLHI/mcX/CC6LR4PqYyYA2cKgVuRB+yxyQHJx31d4ct7BpkyRdcUjoyyHc66EmH0OUpVCgC3AuGy3sGKWhSYyUD0sCRcPr4VGtJJcFOZLayb5YskeT2VUtKVnHv8oI4x+I5mcaANHBaUFpMMbZM7Iq1m2ZzMrkJdJYsCUEaN1+R7nkky4AzcI7SygkAEN5AOlMIRcD0rC5cloQhjdEzsoKFtnOv8oL4nXTPIxkGnIHT1eBttJ2LZ/WmkkCEZSidgR0INTUZNKiakpE+OM6Wa1WQocOKizBs7jhYLHRJOsHFfH+NW9a9BeA8q79PZjCgDBzxBfwrzhZ2BzUlOCb2YeZBImBWGTirghknNcc6jkwnq6uUQtH0RFjc7YvIHsVb9vccCewNKAaUgQNwBZdfFFk10RfNFE1PTelsIiARsMgMbVNxllePdrk9m6TOY5ZshY8fbrIsiTsRjnYctORvq0PvYNicjS63J6WOdl1Tx2tB2dIUEV2RxwP4Kp5j/T7vhwBmWmHszWTAGDheEOcB+AspXYqH3VpQmpLCKVnOzMtvmUvb2bWgqJ9zOQV+q67rcns2ksh1RuByezxS615L0hcKc0c2a7J0NYAFLrfnzpL5y+IRa0yGSTTLWd2vdSLiNHAAQDG2VboSjNqeIFMZEAaOfKgu9Pu8vnjPoe1cMxJodpzJzJi7xO5ye+7VNfVCXVWvaXhtTZ9adWYzbKRjkyZLD9B2dpOjtGKWVdeNBlm9Pg8gwBVO+IVV122sXy811NUuBfCpqip/cJRWpMINMUGTOq02cOO4/KK4/X4ksCel6P2nhAFh4KS21utpG/tMIucQP11BiqbUHx3OsirTSrZc7prZFMO8CmBrQ13tXVYrBuflDe1srF+/XQvKCxku1+Nye35k5fW7cLk9c2g7u1aVpbsa6mqfLBw62qogQ3eOWENd7cuq1Hkrw+U+4nJ7rjH5OmwaknyZBHZEAADazm3QVWXArOIyvhaVNI8+pbF+/e/TPZc42UdzOePRjyJwPJTMX8aoqrIU0E/VZOmqyGRMSem4uUckkY5a2dDzOT2kw3X06y8vo3KH7S/IHfURKCqKz1Dv7vdgKxq6H+i+YVS63J6FLrdnoxaUfxhnsMcwxKhO1WRpQRMxAh1S+8e59iHndR/Ux/s/FjiEzq/33Dpmwlmhrm56hBZZjPcP4MvwV5q2PrG3ZP6y61RVWepye55S5c4fnUwCpY1b1rXxgthsRdNmM8h4A6cp8k32IQVRS7IylH2aLBkycM6yqiGqqjwF4PWGutr/inbMGw99p08hzVi43DUtgH7+m3W1Lyd6bkNd7SZHacWnDJf7R0dpZUXT1idSltowY+4SO8UwtQC2ky1iN/UPX3UUwHuxxnDNq5kGXX/nH8/89HWz5kVWPQ87SitmMVzui46yquqm+vWZquNmKlc+8HZO274Drxz66t2fLtz42S8DB470SCN68fbzMyqtKCMM3KJnmx5Bz85A3Uv1r79qmj18quOMb93ww5c3LnBE7TaUWVB7aTubtI/C5a6ZDeg/B6hfNdSt6SUkYAaa3NlAs1zS24ymrRs+dpRWVjBczpqZl9/yu09ffWSzmfMDAEdZ1akUwzxI0cxvDY2v6yUAGsyb2Tc0bd3wsbO8+lqG5R52uT11DXW1m5IZZyB1s8+fOGp5/sRRK8adcxoALM2fOKrH64uebQKAv25c4DDc6MYMMsUHdy2A68MeN3U9hk91nAagEsBpSYx7yMLidwCAKgWakYSSScn8ZYzL7bkX0G/QgvLCVBk3oFtJ2FA6S9PWJ/bqqnqNrqkXutye+81MAnW5PdcwLLdCk6WbTDCe54Ci/mnKxKLQuGXdwYa62oUARrvcnk3O8urRiY4RUvLFTtMn1w/EqB638prpIFMMXKrYpeuapZHUiafP22nncqbEOi483cA1r2aaqip/pGjmzYa62qUW+bYMB0M+2/x4kKjdvk4xzPNGo2vEyN8PYDrD2BaZJAs+xYqoc0Nd7cOqLK2g7ezamZffMrfr+XjSSiianjikaNzB1M4wAl2fAosrJ9JBRmxRU8hOXVXGo5/GL8lw7e+2X0pR1AYA0HW9VwPmkU4+Z8alN4ZvAaMZkme3v7L6Opfbcw10/QotKC9u3LLOyg/5pzSbczoAwyvFhrravzpKK/0Ml/uYs7z6IVLakxCO0opiVVUeA7Cmoa7WdNFHK2iqX//5jLlLrgGwwuX2XKir6oqZl1f+eObllb+JcniviOm0C+b3EJekKKorsLTm2cWn3WfmXDVFnkQxtp1JnJrSRHazGdQrONrO7UKo/6SpUBSVg1CZyziKogoiHwgZtPBHLzqOHqJcbs9jAMY31NUutNi4AcA2QD/LrMG6tqy0nb3S5fbckci5My+/ZS7D5T6mSp01Zhq3mfOWTobF5U9hq9qtFMM8f2LH3il9HBr5GeGifI7GkUcqUmImURS9J9GT5GNxZSnJsQ+xhgGzgtv5zj8v5QWRRqgD1Ze0jW3qS8eqi8Yt6w7yglhkzQwTo/Nw6/kArunqo2o1qtz5IcPmmKoQQXL0bnW5PYtdbs/zWlCuiLXddrk9K3RNLdZkaUHT1idMzQPTde1cANvMHDNeGupq/+osr/7k2NFdLw1FRgrMFPXnAnCUVhTrquIAMANhzY2OH/jigpEF5vQ4toJMMXAxHdQjp0165eBn3DpdU0/RVWWKpsgX8oIY3r1LBdBC27mduqZ+kYlySuEUTT/1g80PXJUW4wYATfVPHHW5PSkJwDTU1a51uWs+pO3sJpe75icNdWt6RTGdZVVDaJarBfBWQ13tilTMA8DZAPV0isaOSeOWdQdnrf3kfwGcF/PgNOAorSimaGY6KWns4avWVeUQgM8pxv5KeCrQt2++8z5k6PuJRqYYuJgMHTs6SFYDH6MPnxpxck/XVeVSXhC7HN4X8YIIAAEAOynGtpOimS+NOPJ1Xe+kKCrZ0zOJhLLYE6Ghbs0HjrLKRQyb81uX2/NyeLd2l7vGBej3abJ0V2P9+u2pmgOAMxiGaUrh+BlP2ErsVADhOR0X6aqyT1eVryjG/rdU5jOmkwFj4OKBrNr2Aeh2cvOCCL/Pu5JoX03TFHmSrirn84I4LOL0fQgVHn/F5RftTbSEZYCyw+WucUVbYZkByfBf6HJ77nS5PffrqnoXxTA3AHqpKncuSmUFQFfaSgb8HVNeUuYorZygq8Hp6G3EoKvKPgBNtJ17OdzPS74XySTQD6ggQ6YYOC++aRYdrVkMB4OlT8Rft508ekHudFMBXCi1tY7jBTE8vC8D2EUxts8pmvkysLMFQ6YOiqZdHwH6t5GiRNguGupqV7rcnisohvkcwCaSN5ZSdFVxUgyTsvw3K2nf0dw5c97SycH2Y1MR1YgF9wD4MtKIpQIloP6GslFPAgDD0pHGOxcAVFlrTeUcEiEjDNzGBY5bUzj8CWd5dX6sLWnY6q+XX8xZVsVpijxVV5VTdFU5/+D+j7411bCBo6wqFu8TVer8F8Pl/BzAkzEPNgDZklZQNLNY19SbXW7PNeFb1lRAs9xsAP9I5TWsIqAdOD/YfqwZoeDan43mBzrLq0drQSkpH3V/PVYzkYwwcClmtxaUxgNIujCYqDw0do2xYO32iwDcaMrs0kjT1if2utyeKam8hsvtWQjoc8O2pJvDt6wpVEeZpQXlX6dobEsZNf2st7c+sMg0sQktKFmePpMuBnUeHKEZwNh0TyKDCRD/pOm43J4VAFwNdbU9/G0NdbUrAervFMM8n0IhzRFpyC2MRtpX6lEYD+sbTKeFk8HAHcQgEb5MEdtoNsdl5oCO0opiIkz5OUl67UVD3ZrXNFn6BW1nNznLqkrMvD4h3cGFTGYSEYQd9Ax6A8dweS0ALG0+M5CgaOZdMysanOXVFzBc7mOgqJ/EUtdorF+/XZU7F9Esd6uZQpqueTXTYDAolWGYLUE01Cotv3Qz6A0c8fFEi8wmTftXLYZD5Tr0jNi6KJ3t7wM4w4yxXG7PHbSdvTIRWfWm+ieONtTV3gTgiMvtecqU7bKunw3gI8PjZAjNn2xzmqkSfTIx6A2cmTjKKgt5QVx+cP9H16Z7LmZBfGOGpN0dZZWFLrdnI4DmhrraW5MJHDTU1W7UZOkhmuX+EIq6GuIMVer8l8ExMobC3JGdmiL/lBfEpanylw5WsgYuDpxlVRwviEt0JeihbewTU8+b97t0z8lcqGCy3aJc7prZDJuzEaDuS1bwsYuuLSug32Ww58GUDMrMN7xSH3LK+J1+n3cFxdj/rCny7bwgLskauvjIGrgY8II4T1PkNQD+5vd5f22SRlmGoftVVXUkepbL7fkBoN+pyp2LzKqGIFvWhQDOdrk9D6WwTd9AQgVCaT1+n3cFZWPrNUW+lxfEGxL9/ZDjT5oAzMmQBwcAasn8ZQl1EOIFcTaA7wF40+/zVps0D6u7JvVgwdrt5yJiRaHryN3XsI0FcM21v6t+j0hBoecxerf/x5Zn2/zhpkfbKYZZBWB/Q13tlamYa0Nd7R0ut+cK0qbvlqatG/YtWPvJd7rmQlFUr9+lruudgZ37Cr8+0pR77e+2Xxo6Dh3hx3z66oa301C+FT7XZHxpPeSHSP+HZbwgzpHaWlfygvhPLr/oz/G8LzlwohhASxJzGJAMiorxWPCCeEO8BcW8IE4DUAHgEy6/6PloH5qS+cuY069e3J2/Fdl4o+lvz94ayvXqicvteYhhbLenqz5ywdpPPgJgqLdpy6cfX3b4i/cWwyJhypnzlk7WdW31iGnnrhp32qzXiU5a0kjHj+amqzGKy+25Y5zz4o31D313f8TzdzouXvBQ+HN5Y0Z032gCB4509jfnsJvxu36f96Wu56984O2cvDEjulfmFE1Ju97/4EyKonImnXP2u9B1hWKo4InmwwcyrVmMWQzKFVzJ/GXMrOtunqB2ahIA7PnoXycoijrtWwtvVSgb1f2H/PcLa9u6jA0pX6kGcJS2sff016Ny+yur1e2vrO6zUJyol/RClTo2KqqyCMBA6hLWg86v99yqSp0/sMrH9elrj+5yllUtOLLj/QfGl5yZEZHnZOAFcZoSaAtEGjcAUAJt6hdv/jEYceOL2+D4fd4PAHzAC+IcXhBXAXiXyy96JX/iqDMQ0Xls6v87J+yn0PpmSPHIGTBQ6ZPJDEoDd8Y1i6dSNPW5LS/knuj5R/2GmZdXCHLHiW26EvwvLSiplM1em0qFi6atGz7mBfEKR1llYZp6aRq+S596yXdu37RohqUOfHKzWXr6FTeb5SpIB4sZLu9nfbz2dbCjvRCAIf+u3+d9B8A7XVvXz179ozzj8u8ZGXLAMygNHCgqrvf11buv3agrwc9pG7vWquABZbM/oivBWwDcbcX1sqQfXhCvBrC1n/SZozowHAYNXBddhu6Cmt9fZ8Z4A5mTOorKDZvwnN/nXWmmcSPh+z57XJKV20FeEJ1mXTNL/FjtayKfB8Hv877Rz2GHdEUuNPvaU//fOXEphlB0z0DMYOKkNnBT5sw2XbdKU+SRAPodl7axTwK4dSCmQKgdyoD1g6UDTZGXUIw9WletbijGdhRAwv1Us8TmpDZwKWIEgAP9HUB8Sr+T2loXWTOlLOmAROTlWAEZXVVaEdqiZjGZQWngdE1PZ93eSACHYx3k93k/BDDeWVaVksYv0dChD/RUgIFWj7mYtrFrYx1E29jDADKy+9tAZ1AauHhRZS0VX/gRiNNZTNnstZoie1IwhyxphhfESwC82V+6URdETn9oCqaRijEHFCe1gUsRo8gdOSYk4LDbUVphKPnWYgayD86SShLS8KbU7/O+ZsX1jNKVLzoYGZxpIullaKyG1OFw+UUbpbbW+9FHK0QzmDF3iV2VAhfL7V9P44ZYtiPOSHhBXA7gZb/Pm7LEVlUK3IgMSOZu23OoPm/MiCIA0JWe8lxMDs3pqh7qPPbiukPpmJ8VDFYDtwvAxei9RI98v7usmU7fbH9ltcoL4mZeEC+JkUqQEI6yykJdCV4GgFelQNCWl/8eO2T4DgCTzLrGQIS2c09pQamUF8RrESo6/4i2sb5Ebkr94SyvzteC0vhUGtB4ISkxA93vaohBaeA2LZpxFIAv3fOIF7/P+wYviKucZVV/j8dn0xckt+4SAEW6EjwG4HW/z/uHrtdPv+Lm202Yblq48oG3Tdkakz4NfwBCJX1SW+tZmiJ7eEHMQch3Wm/EOGlBqYa2c4+ZMdcsxhmUBm6AslZT5MUAHo33hJL5y5hgZ2COFpQuAGAH4Kdt7KbBKelkHF3vGUUmtZ8fkAecZVUjNEX+j7DV3T9oG/t/8a7unGVVJZoit2ZIs5ssyBq4jMHv8+7gBZHlBXGy3+ftc+scvvWU2lpVAP9guLwHUth+rwftO1pMz7iPh7Z9Bwq5Yam9NLkxvABEXd21Anijr9Ud8XPWMFzeD1M6ySwJkTVwGQRtYx/XFPlhAD2Kyh1lVafqijwXwAhdCbZSNvYvTfXr/xB9lNRyoPnDH/KCeMzv8/qsuiYviM5DX727ZKQjYU3OpIlc3XXdWHr47uzcm13NW1QpUEnb2DUGbjTyjLlL7FbdqE4WsgYug2isX9/OC+LTvCDeAGAPgDkAWF2Rm2gb+wcTtp51xw98UWDnCnbnFo4KVzPpsXXrOHpobLAzkDts7OTPIo8ZM+nMp4/ubbyAF8Qqv8+73uB8YsIL4jwAM+RA+234pgSu2x/XeezIcLnjxJhhYyd/FXFqD59dyyf/njPutNPfSXYeJKWnp+8uKFXwglgA4BiA4sb69Y8nO74tL/9rLSgXIdTmMotJnBSCl1bhLK/Op+2s2FBXW5vouV2pHABKAZQB+BXD5b1m5h3dWVY1RFPke/0+77IYx3GaIi/z+7yr+jqGF0QBwEV+nzdlqii8IN4G4IDf5+2zqzsviDfYhxS8+elrj/YbEecF8SZbXn5TQ11t0kaun7HvBbAXgANAO4CXiEZbnyx6tulyAFeQH/OkY/I4CjjKFrCBrucAtG5c4PiB2fM9mciu4Ayw6NmmrQDGhT3VqUidY85eVFMR9tyqjQscz0Y7n6QUXArApUoBFcDbDJf3M1UKPAbgSrO3K5oi/4K2c72UhiNprF8vEb9Tn/h9Xh8viMd5QVxN29hfma3IoinyLxDKV4tlkKZ9+tqjfRrALvw+71MkUt1k5lyJ+2Cv3+d9HOj+m5bygugmh2yj7dzWKH1ITwNQ2fUDVxC1s2W/Nc1ZYpM1cMaYAmBa+BM2LgcAisOe6qESQQqwLwdQpAWldtrGbm6sX/9CxLi7eEG0OUorJ5ilnEtWQ39MIMLX7iyvzu+vQbDf5/3QWV79uRaUfuYsq3qmsX79dhPmOVlT5B/Rdm5lnHONW/6dtrH3aIp8b8n8ZT82SzZeV+TKcCFL8vt6iTzgKK2YFb6VpW3sVjN+T1niI2vgjBGzdduJ/QftLrdnjhJouwAhv9COeFI5aBu7RlPkewAsNzpJIri4K9a2KYK/akHpQgD9lhuRL/RyXhBv4wXxlPCeAEnMUwAgMFze7fGsXh2lFbN0Vfkk3vEb69e3O8qqfiu1ta6EOb/XeehfyBJNWzd8DFKlEra6u6r5X+/PHv+tc2NdYiCXxWUE2VrUFHOs+auLlUDbUNrGrvb7vHf7fd7fx7NFIgm/75IvfdKQ5N/Jfp83cpXYL1x+0TYAZ8Z7vN/n/W9yvX79e33BC2IVgKl+n3dFvFtzXVUE2s5tTeQ6pCPVy7wgLklmnl2QTvMXJlJ90rhlXZvf533J7/PePWr6WfVGrp8lPrIGLsWM/9a5f/b7vG8kU6FAVkOXkeLthHGWV+cDqOLyix5O9FyyhUtIkNPv875E29itvCCuIteOiaOsspAXxAcBfOr3eROt3yzobwvdzzzfAXDCyM1DU+SfAEi6YoEtsGvJnpslfrIGLsOhbewzqhRIKnlUC0o/o23sSgP+poPO8uqElGYb69dvp+3cg1pQepQXxMn9HesorSjWleD9tI1dGUcwoQdkBZV0nSWJzF6WjB4fWRW395eQnSUzyBq4DIc4pAtjGYtIeEG8DsBWgxHDv2lB6aJET2rcsu4gbWNvBnATL4hz+pjfWbqqLKNt7I+SmaOmyBcBeCvR88KhbPbfaIp8ZxLS8TfRNnaNkWtnsYasgTOGJU5g2sY+AOC/4j3eWVZVAmCMUXUSUpbkSubcxvr1kt/nXQFgJklc7oYEPc73+7zLDah4nM1weYkETXrRVP/EUdrGPi21tdbEew4RstxqRBQhAQaagnHGkTVwqScQ+5D+IUbgzXh8Ro6yykJNkW/0+7yrjV7XDEi1wx5eEH/pLK/OJ0mxx/w+b9yiAn1gSlkTWSE3k4hov5BtcalJslY7ALwe9ngpyuPPJlznpCabJmKMW8P+H00eOk9TdFOELP0+72u8IK6aMXfJ//X1xSYVCPdTNvsdZlyTsIMXxGl+n3dHsgP4fV6fs7xa1YJSA8XY5pPUiaRxlFZO0NXgbiNjRMzvBV4Q7+QF8cv+pJI0Ra4CELPHQjxsXOB4FcCrZoyVpW+yBs4AGxc4nrTyerYhw9Yq7ccrAUStedQU+acA7iV1k6ZAMbZ6XVUuR2jFkRS8IM7RglIpbWNnaYp8By+IhUaK9XU1WE4x9i3Jnh8Nhst7QJUCq53l1XdHSzB2lFYU66qSY8TQZ7GebC3qAOH6JxvG2vKYB7/+qun04VMd70W8HJCPBYcdP/CFo2iKw00EP02DF8RfJltzygvidwBMCd8y84K4FMC+RHPzzJhPfyxY+8lPOtsOXzVsQvG2iJfUw/7PTh82ZnoTW2B/y+obW5bkya7gBgiUjRoD4PrhUx1AqI6xB2yBHSMLZkAJqBmT/R5myHr4A/0+76O8IF7NC+JSE3xxpsEW2M9lC4pnA5gd+dpIfgYAnAeABZA1cAOEbJBhkEHZqFRo8G8jkdm4cJZVjeAFcTWAt/tapZHn3yYF8DFL3rrgBXE2gMgVlllkzM0hizlkDVyWmFA2u09T5IvjOdZRWjFLU+Q7aDv3c9Lcuk/8Pu+HtJ17UFPk+xMwoPMSLc8ymUHbYm8wkjVwWWJCghYxO6/zgni1riqC3+ddHm8JVeOWdQe5/KKlmiLPjSdVA0BhMuVZWU5OsgZugMCwdFq3T7a8/A6SB9aLkvnLGNJvNJBM/t32V1arpFjf3l+xvmtezTRbXv6/Ex0/y8lLNsgwyAgcOGKqD65L1FOROgtsXM7icypvOx55TPO/3m/e88HW24z2AvX7vC85SitmnXHlbY+ccW3VhZGvK1LnGBuX03H2opqu9odLNi5w+IxcM8vgJmvgssRiCoBpRMgzKqOmn/Xy1gcWmdLouGnrho8vqNn4MIClka9FmYPZbbaiyupGYIpQZhZryG5RsxiGLbDrZo43afZsU/P4TCZr4AYQ2RXcAEFT9GO0jXoJvVMZ4ll1GCGeFI7BEll8E4Ac5fnw33GDRXPJYgJZAzdAeOb7zkYAV6Z7HoOZjQscKesQliU9ZLeoWTKOBAIl2cTcLP2SNXBZsmQZtGQNXJZYJNUPIkuWTCBr4LLEIh45b8OinlmypIJskCFLLB4GkBv2c26UY1JRXbAWvaOzKsKinKqsfZaC62YZRPx/PlqMWlwrrFwAAAAASUVORK5CYII=;rounded=1;" parent="F3IjeC87NHKFIH8i6jZu-9" vertex="1">
          <mxGeometry x="18.099999999999998" y="7" width="15.61" height="15.66" as="geometry" />
        </mxCell>
        <mxCell id="F3IjeC87NHKFIH8i6jZu-15" style="edgeStyle=none;curved=1;rounded=1;orthogonalLoop=1;jettySize=auto;html=1;exitX=0.5;exitY=0;exitDx=0;exitDy=0;fontSize=7;startSize=8;endSize=8;spacingTop=0;" parent="F3IjeC87NHKFIH8i6jZu-9" source="NUGoPOzDiZfL2p5F_ZCF-28" target="NUGoPOzDiZfL2p5F_ZCF-28" edge="1">
          <mxGeometry relative="1" as="geometry" />
        </mxCell>
        <mxCell id="F3IjeC87NHKFIH8i6jZu-78" value="" style="endArrow=none;html=1;rounded=1;fontSize=12;startSize=8;endSize=8;curved=0;entryX=1.003;entryY=0.375;entryDx=0;entryDy=0;entryPerimeter=0;" parent="F3IjeC87NHKFIH8i6jZu-9" target="NUGoPOzDiZfL2p5F_ZCF-28" edge="1">
          <mxGeometry width="50" height="50" relative="1" as="geometry">
            <mxPoint y="120" as="sourcePoint" />
            <mxPoint x="53.32669429220693" y="50" as="targetPoint" />
            <Array as="points" />
          </mxGeometry>
        </mxCell>
        <mxCell id="F3IjeC87NHKFIH8i6jZu-87" value="&lt;div&gt;example.com&lt;/div&gt;" style="edgeLabel;html=1;align=center;verticalAlign=middle;resizable=0;points=[];fontSize=6;fontFamily=Lucida Console;labelBorderColor=default;rotation=309;rounded=1;" parent="F3IjeC87NHKFIH8i6jZu-78" vertex="1" connectable="0">
          <mxGeometry x="0.0458" y="1" relative="1" as="geometry">
            <mxPoint x="-2" y="2" as="offset" />
          </mxGeometry>
        </mxCell>
        <mxCell id="F3IjeC87NHKFIH8i6jZu-22" value="" style="shape=image;verticalLabelPosition=bottom;labelBackgroundColor=none;verticalAlign=top;aspect=fixed;imageAspect=0;image=https://hub.docker.com/api/media/repos_logo/v1/library%2Fregistry;spacingTop=-9;fontSize=8;fontFamily=Courier New;rounded=1;" parent="1" vertex="1">
          <mxGeometry x="652.62" y="530" width="40" height="40" as="geometry" />
        </mxCell>
        <mxCell id="F3IjeC87NHKFIH8i6jZu-26" value="" style="group;fontFamily=Lucida Console;labelPosition=center;verticalLabelPosition=top;align=center;verticalAlign=bottom;rounded=1;" parent="1" vertex="1" connectable="0">
          <mxGeometry x="125" y="540" width="90" height="80.59999999999994" as="geometry" />
        </mxCell>
        <mxCell id="NUGoPOzDiZfL2p5F_ZCF-20" value="&lt;div&gt;wg IP: 10.142.1.3&lt;/div&gt;" style="text;html=1;align=center;verticalAlign=middle;whiteSpace=wrap;rounded=1;fontSize=8;fontFamily=Lucida Console;" parent="F3IjeC87NHKFIH8i6jZu-26" vertex="1">
          <mxGeometry y="60.559999999999945" width="90" height="20.04" as="geometry" />
        </mxCell>
        <mxCell id="NUGoPOzDiZfL2p5F_ZCF-10" value="" style="group;rounded=1;" parent="F3IjeC87NHKFIH8i6jZu-26" vertex="1" connectable="0">
          <mxGeometry x="20" width="50" height="43.029999999999994" as="geometry" />
        </mxCell>
        <mxCell id="NUGoPOzDiZfL2p5F_ZCF-6" value="&lt;div&gt;VPN Client&lt;br&gt;&lt;/div&gt;" style="verticalLabelPosition=bottom;aspect=fixed;html=1;verticalAlign=top;strokeColor=none;fillColor=#000000;align=center;outlineConnect=0;pointerEvents=1;shape=mxgraph.citrix2.desktop;fontFamily=Lucida Console;rounded=1;" parent="NUGoPOzDiZfL2p5F_ZCF-10" vertex="1">
          <mxGeometry y="4.37" width="50" height="38.66" as="geometry" />
        </mxCell>
        <mxCell id="NUGoPOzDiZfL2p5F_ZCF-1" value="" style="shape=image;verticalLabelPosition=bottom;labelBackgroundColor=default;verticalAlign=top;aspect=fixed;imageAspect=0;image=data:image/png,iVBORw0KGgoAAAANSUhEUgAAASwAAAEsCAYAAAB5fY51AAAACXBIWXMAAA7EAAAOxAGVKw4bAAAgAElEQVR4nOydd3hUZd6G72npvQ6ZhDRCQkLoTREEBJEudl3XusoqtrVs2NXPtUtEsbt2194bRSxI770TSkgok0x6z2T698cJgUB6ZubMTM59XbkwZ8r75Jg885ZfkSHhUdhstlYfy1ZrZIAX4AcEAaFAGBABhJ/1bygQ0vicgMbn+wHeja9XAcrGLwBF45cNMDf+e/q/LYCp8csINAB6oB6oBWqAKqASqADKz/qqaHysuvG5DfOKCkxdvTcS7o9MbAES9mV+dIwM8AWCgSggBog960sNRCIYUiCCEZ02ITni/k7YACuC0ZkQzK0ewbAqgVKgCCgEChq/dI3XK4G6eUUFZufLlnAWkmG5GWfPoLLVGi+EGZIGSAL6AilAAoJRhSHMkLzwvP/XNgRTq0eYhRUDWiAfyAXygOMIBleVpdMaAWQyT7sNPQvp/56L0dqSLlutUSAs1RKAfsAAIB3BqKIRZkvKFl/c8zhtZqeNLB84BBxo/Pc4UDKvqKBBLIESXUMyLBfjtGFlqzVKBCNKBYYAwxAMKhZhb0nhSB0yhQKFSoVCpUKuVKL08Ubp64vK1xeVnx8qX1+UPj4ofXxQeHuj9PJCJpcjVwqeaTWbsVosmA0GzA0NmOrrMdbWYqypxVBTg7G2FpNej8Vkgjb23eyMFWFGVowwC9sH7AL2I5haxbyiAquzxEh0HsmwnEwbMygZwhIuDRgJXAhkIhiUL07+f+UdFEjcqFHEXXABURnpBGk0+AQHofD2Rq5UIlcokMnlwpdMBq0ttWw2bFYrVosFi8mExWDAWFdHQ2UVdSUl1BQUUJl/nPK8PCrz86kpKKShuhqbxeKsH9WCsEd2HNgLbAW2A0eAsiydtpmBSUtKcZHuvpM5Zw9KBcQBw4FxCEbVB2HfSdz/NzIZcqUC78AggjQaItJSUQ/IJLp/BiEJifhHRCBX2W8FajWbMdTUUKMtoPTwYQp37qJw507KjubSUFXlzFmYDeHk8jiwA1iPYGJHs3TaWsmwxEW6+05mfnSMF5AMjAEmIZhVDMIpnWsjk6Hy9SVAHU14nz5ED8hEnZlJeEoKAb3UqHx97TqcoaaGirw8Tm7cTP7q1RTu2o2+osKZ5gXCMrIcOIhgXqsRlpHF586+QJqBORrp7tqZlpZ8jftRCcB4YCowAmF/yqH7UO2h8vUlMCYGs15PfXk5ZoOh02agUKnwiwgnNDGRqP79UQ/IJLJfP4JiNfgEBbW+VOwkZoOBssOHyV2+giO//kbJwYNYjEa7vHcn0QPHgA3AH8AmQHvavCTDcizS3bUz5yz5ohFmUrOAsQjhB6Ka1NkoVCpiR42k/9VXERAdTeXxExQfOEDZkSNUnThJXUlJp01MplDgExREcO/eRPZLQz1wAFEZGYQmxOMbFta0Kd8d9BUVHF+7jn3ffsfJjZsw1tZ2+z27iAlh6bgWWIYwAyvM0mlbvWGSoXUP6e7ZmfnRMd4IIQeXA9MRNtG9RBXVDv5RUWRcdQWDb7qJkIR4zAYDdcXFVOYfpyQnh+J9+yk9fJjqU1r0lRVYTZ2IzZTJ8PL3J7BXLyJS+xKd2Z/ozEzC+yQToFaj8Or6rTHp9ZzatJk9X35F/uo1wl6XeBgRZl7LgcXAliydtvLcJ0mG1T2ku9dJ2jjliwAmANchzKbCcKf7K5MR0rs3mdddS/9rriJIoznzmM2GoaaWGl0h5UdzKc05RElODhV5+dQWFdFQWdmp8AS5SolfeDjjH/8/0q+Y3W3pFqORwp272P/d9xz94w9qi4qdvc91LvXAHmARsATIydJpTSAZVneR7l4nOWfJJwMSgdnAtQgzK29xlNkHmVxOeJ8+ZF5/Hf0un0lgr14tPs9msWCoraWuuJjqU1oqT5yk6sQJagoLqSspoaGyClN9HeYGA1azCZsN5Ao5cqUKla8vPiHBjJmXRe8LL7CbdpvFQunhIxz86WcOLVlCRV4+NquoYVU2hEj7FcA3wJp5RQUVYgpydyTD6iQ2m+101Hk68BfgKgTTkosqzM7IFAoiUlLof83VpM2a0XzG1QY2qxWLyYS5oQFzgwGL0YDVZMZmsyKTK1B4qVD6+AgBqL6+dtuUby7CRtWpUxxavJR9331H6aHDzozrao0GYCfwNcLMK7+lvS5pBtY20t05h3aqHSiAQcAtwBVALzz8HsrkcsKSkug3+3LSZs0gLCkJmdx9vLm2qJicRYvY8/mXlB4+LPaMC4QwiWPAD8AXwL4snbbJTSXDahvp7pxDK2EJcmAgcAeCUUU7WZb4yGQExcSQPGki6bNnoR44EKWPj9iqOkx1QQF7vviSXR9/Sl1Jidhy4MxycRHwP2Bblk5rkgyrbaS7cw4t7FGlIRjVdQgzqh6Pd3AQscOHkzZzJgkXjyUgOkpsSR3DZiNv9RqWP/oY5bnHxFZzNmXAUuA9YPPpDfqW6OmG1rN/+hY4K/k4FrgNuBWIR7pX5yFXKQlLSqbPpImkTLmMqIx0t5h15a9Zyy/3/4OawkKxpZxLOcKp4tvA1iyd9rz4EcmwJJoxPzomCLgauA/oj4dtpjsEmQyfoCA0w4eROn0a8WPHENSrl2M21O3Evm++5Y9/PyZm0GlblALfIRjX3rNTgCTDkgBgfnSMEiF+6hGEeCqXDvZ0VeRKJSHx8SSOH0fmtVcTnZkptqQWsZrNrF/4Mptef6NzgbDORQt8DLyXpdPmg2RYUsE3YH50TCLCjOomhIBPiS5iNZspz83FZrPSZ9JEseW0ilypZOTcu6krKmb3F1+KHWjaGhrgX8Dl2WrN68BXCKWgeyw92q7nR8f4AlcCWUAGPfx+2AOFlxcpky/lwof+QWRamthy2qW2qJgl99zL8bXrxJbSHiaEShEvACtb2t8Cz5+BefZP1wbzo2PSgH8jBH7aty6KiyBXKlH5++HtH4DS1xeF15kKNlaTGbPBgEmvx1Rfj9lg6FZwpVypJCojgyG33ULq9Gl4+fvb40dwCsX79rPkvvspOXBQbCkdoQL4DHglS6c976hTMiwPY350jA9CGs2/EMoPewwyuRzfsDCi+2fQa8hgotLTCY6LxTc0FKWvL3KFomkj3Go2YzEaheqfFZXUFhVRefw45UdzKTt6lKoTJ9tNdJYrlfiFhxE9YACp06eRfMkE/CIinPXj2hXdnj2snf8CJ9ZvECpUuDY2hPr0LwDfZum0+tMPSIblZrQTqZ4APArcgNDeyiOQq5REZ/QndcY0ksaPJzQpsevhBTYbhtpaagoLqTiWR0VePjUFBegrK7E0NCCTy/EKDCRQrSa8bwqR/dII7t0bpbdbp1ACQsHAvFWrOfD9D5zasrVLxQID1NH4R0ZSeuiwM+p16YHvgeeydNqDIBmW29FGpPpk4BlgMB7yc8sUCqL792fwzX8l5bLJ+IY58LzAZsNms7Vdv90FsZrM1BbpUPr4dHj2JxQLPMLJjRs5tWUrZYePUFtUhLG+DqvZ0qaJpU6fxqXzn+P4+g3s/vQzTm3eIlSycCyHgeeArz29E5D7/OZ1kHMNK1utCQLuAR5E6GrsMfiGhXHJU0/Qb9Ysu9ZX9xSqtVo2v/EWR/9Yjm9oCKPuvYfUaVORKTpeQ9FqNqOvqKBWp6NaW0BtUTH6sjIMNdWY6uuxmMxYzSZAhlyhIHbUSDKvvQYAQ3UNB378ia1vv01FXr5jfsgz1CPkJj57OgSiJdx9Bube6lvgnNSaPsCzCOVfXL9memeRyfAJDiZp/DgG/OUGYkcM71ZBPE/CpNez5J77OLz0l6ZrPsHBXHD/fQy+9Wa7159vi5KDOax5fj65f65wdNUIG0JFiMeA3zyx5rx7q2+BxvIvMoTgzwUIS0CPxzsokKTx4wXjGjnCI/aUukNDVRXfXHsDhbt2Nbse2EvN1FdeJuHisc7VU1nJ+pdeZufHnzhjb6sMWAi8kaXTVp/9gGRYLkZjV5qbgSfpgcnK3oGBJI67mMG33IxmxHAUKs+bWHaUA9//wPLHHkdfUYF3YCBJl0xg8C03ETN0qCj3xdzQwOY33mLTG29ibnD4VpMJoYTNo1k6be7pi5JhOZl2TgGDEYJA7wPcJxDIAXgHBdLn0ksZfMvNxAwe1Kl9G0/BZrFwautWSg7mEJGaSszQIaLPPC1GI+sXvszmN99yVkrQDuDhLJ12JUiG5XTaqKmuAbIRYqykHehG/MLDSb9iNkNuu5XQxASx5UgAxro6/nzscfZ8+ZWzhiwAHgc+mVdU4PAjS0fiEYaVrdb0A14DLsENfyaHI5MR3qcPY7Ieoe/UKW5VMdRTqS4o4Oc75lCwfYezhqwFXgVemFdUUN3ek10Vt1snPPHEE82+z1ZrRgLvAxchmVWr6MvLyV+zFv+oKKL7Z4gtp8fjHRhIQFQUucv/dFZDWC/gQiBuYkDg5uV1NS5ZV6c93PqjNlutmYhQfmOo2FrcgYbKStZlL6Bo716xpUgACeMups/kS505pBL4K/DR/OgYt0xLc1vDylZrZiLMrNzyxotFdUEBR379TWwZEgidt/tffZWzE8VlCFkfn8yPjhnmzIHtgVsaVrZaczVCNcZ4sbW4I0V797ly0boehXrgAMKSk8UYegTw8fzomIvFGLyruJxh2Rpz1lr6mh8dI8tWa24AXqcHxljZi4q8fPQV5WLLkECIvg/vmyLW8OnAh/OjY6aIJaCzuNvx//XAK0Ck2ELcmbriYmoKC/GPcpNuN06gWqslb+Uqyo4exWYVTqKtJhM2a+upNFaLFau54zNVhUqFTH7OuZBMRvG+/V3SbCeSgHfmR8fcM6+oYJGYQjqC2xhW4zJwIZJZdRtDbS2Vx0+gHjhQbCkuwYn1G1j+2P9RknPIVUslO5o44L/zo2NU84oKvhdbTFu43JKwJRo32F+hJzYwdQA2i8XV+vKJSlRGOmkzZxKojkauVApxaqfL6Lh5ZHgniAFenx8dc3lb2zJi43L/N1ooDzMR4TRQ2mC3I5nXXcvUVxaKLcNlsFmtlB05QsWxPMxGI1ajEYvZjNVkFv5YLWasZ1VasFmsWMxngsatRhM2q3DNVK+nvqyMWp2OmoICqk9pnVETy16cAv6epdMubelBsVN7XNqwGoNCP0YKXbA78WMu4qpPP3aLxqduic2GxWwmf81alt5zn1C91H3IB/6WpdP+ee4DYhuWyy4JG9Nt3kQyK4dQV1yCsa5ObBmei0yGuaGBvV9+5W5mBZAAvJmt1owSW8i5uKRhNSYyv4YUwe4wGioraKisEluGx2KzWtn+/ofuHKSbCryVrdb0F1vI2bicYTWWiMkGXLcLpxuj9PEhNDGBXkOGCF10JBzC4V+WsfXtdzoV9uCCDAZey1Zreost5DROX5C2U8/KC3gKeBg3TMx2VZTe3kSkppIwdgy9LxpNRGoqfuFhUjllB3Fq8xaW3vcAlcePiy3FXnyLsBFfLvYelqvFYd0G3ItkVnbBNzSUhLFj6Df7cmJHjsA3NFRsSQ7DYjJhMRgwNzRg0uvP+teAxWjEYjRgNZmxmoVTv9P/ymQyIZShMYRBoVKBXI6iMbxBrhR6OcrkCrBZUfn5E9w7Dp/g4BZ16Hbv5o9/P+pJZgVCd3RttlrzL0DUrjwuM8PKVmsuRTgRVDtVkAfiGxZG3ymXkXn9dagHDvCYMskmvZ6GyirqS0uoKdRRU1BIdUEBdUVF1JeWoq+sxFhTi7G+HnNDAxaTEZvZgtViwWaxYMMmtGlA2GM6zdn1wZpmEDIZMpmsKSZLJpNhs9kae0BmcPGj/yZm6JCm19ksFo6tWMnKp56h7MgRp9wPJ9OA0Hz41SydttVlkqNnYC5hWNlqTRrwFSCFXncDL39/+lw6iSG330avQQORK11tAt11Dv+yjO0ffCg0dS2v6FCPQEcSFBvLwMaGHya9ntw//uDgT4toqKwURY+TKEUId/i5tSd4vGFlqzWhwAcIrbgkuoBMLqfX4EGMnHs3SZdMEL1uub2pzD/OdzfeRNnRo2JLaYZMLkfp7Y3VYhECQ10gEtwJ5ADXZem0u1t60NGGJeopYbZao0BocDpTTB3ujE9wMCPn3s0VH31A36lTPM6sAI789rvLmRUIy0qTXi9UDO0ZZgWQBmRnqzWiZM6LHdZwOUJXZmmTvQtE9ktj2uuvMnbePz228oLNaqVg2zaxZUg051JgXrZa4/TNUdE2ORoj2Z8CQsTS4LbIZCSNH8eEJ/9DeIpotZScgkwmQ+XnJ7YMiebIgDuBXcAnzhxYlBlWtloTCDyBUEBMojPIZKTNmM6Ulxd6vFkBIJORPGmiFDPmevgDj2erNU7trC7WkvB2pE32LpF8yQQmPvs0AdGeuQRsifiLRtNrkHSA7IIkA082Hpw5BacbVrZacwFCJLtnBAc5EZWvL8kTJ2IxmTBUVfeYkymfkBAyr78OucpzwjQ8iKnA3dlqjVMiDuw+SDupN2HAFwhdOyQ6iUwux8vfH++gIPzCw/GLCMc3LAyfkBB8goPw8g/AKyAAlZ8vKj8/vPz9m/71CvBH1fi90tvb7ZqpGqqq+XnO38lbtVpsKRLnU4wQ6rDS0WENzv7ImoOU1NxlbFYrhpoaDDU1VGu1LT/prAhtmVyOwssLhUqFytcXr8BAfMPCCIzpRWhCPOEpKYSnpBDcOw7vwEDn/jCdxDs4iAseuI+SnBxqdUViy5FoThTCftZ+BPNyGE6bYTUuBb9DKMUq4QLIFAp8goMJS0pEM2I4iRdfTK/Bg/EOcl3z2vPFl6x44kkM1TViS5FojhXh1P8pR6buOMWwstWaIOAzYIa9x5OwHyo/P6Iz+9Pv8ln0nTKFALXrldC3WSzs/eZb1ma/IM20XI8i4OosnXZta09wF8O6G6GJhLTR7gbIFAoi+6Ux5NZbSJs+He/gILElnceJ9RtY+dQz6Ha3mCEiIR7LgBuydNoWkyq7a1gO33ltTGy+H8ms3AabxULxvv2sePwJ9v/wg9hyWqT36AuZ9e5/Sb9itnR66FpMAm501Js7dIbVGLr/OsJmu4S7IJMRlpTE0L/dRsYVV7jkDOs0xtpadvzvY7a89Tb6cqmbtYtwBJiVpdMePPcBl14SZqs1lyGUjWm52pmEyxHYS03GlVcy8Ma/EJLgHp3VbFYreatWsfq5+WJ3UZY4w3+B+7J02mY1ol3WsLLVmhCE0qpSGIMb4B8VRdrMGQy84Xoi0lLdLk4LhDI0axe8yKFFi92pD6CnUgFcm6XT/nH2RVc2rDkIy0Fp78qF8Y+KInXaVAbccD1R6f2QuXljCmNdHbs/+4LNb75FXbFDQ4Ik2ucX4Posnbb69AWXNKxstSYeWAxk2vv9JeyDb2gofadNZdBNNxKdkeH2RtUMm40TGzex5rnn0W7f0SPSl1wUA3Bnlk7bVNHBVQ3rCeA/9n5vie6j9PEheeIlDJ9zJzFDBnuWUZ1DTaGOja++xr6vv8Gk14stp6eyBWEDXgcuaFjzo2P6A0sA99ix7WFEpqUx/O93EtanD15+fii8vZArlMJvgg2sFqGzjMVoauo8Y6ytxVhbh0mvR+XrS1RGOpFpqW5hdhajkQM//sSGha94Wicbd8EKPJyl074MIhhWO8nNcuBl4L5uaJJwJDIZcoVCyDFs/Dq7oerpDjNWsxmrxYLVZBL+tTQ2fJDJ8I+MZPjf72TILTe7TXG9or37WDs/m2OrVmOzWMSW09PYD0zL0mmPu5phDQcWIbXq8ngUKhXpV8zmoqxHCIpxj/TQhspKtr77Hjs++IiGqiqx5fQ0HsvSaZ91GcPKVmuUwFvAHd1SJOE+yGTEDh/G+P883qxHnytjs1jIXf4na+ZnU3IwR2w5PYlDwNR5RQXHuvMm9gy2GY5URbRnYbNxastWfp5zF/u//Q6rydz+a0RGplDQZ/KlzP7gffpdPstjmsy6AanADd19E7vMsBpnV28jlD6W6IF4BQQw5LZbGTn3rlbbuLsaxro6dn38KZvffIv6sjKx5fQEDgFTsnTavNae0N6S0V4zrKFIvQV7NMbaWja/+RbL/vEQ5bndmvU7DS9/f0bcNYfpb75OdKYUMugE+gJXd+cNuj3DajwZfAO4qztCJDyHqIx0xv3fYyRePBYcXDLXXlQeP87a7AXkLF7sFktbN2YPwiyroKUHnTHDygRm2eF9JDyE4v0HWHrv/ez46H+YDQax5XSIkPh4Ji/IZsw/H8EnRGqV6UAy6MZqzB6GdQNS2WOJc6grKWHlk0+z4j9PuE1On5e/PyPn3s3UVxYS3qeP2HI8FQXwl662BuuWYWWrNcnAld15DwnPxWwwsOuTz1g8916K9u4TW06HkMnlpFw2mVnvvk2CGy1p3YxhwPiuvLC7M6zZCM0UJSRaxGa1cnztOn6e83cOLVnqNlHmken9mP76qwz8yw1S6IP98QFuyFZrvDv7wi4bVrZaEwVc29XXS/QsKo7lseyhh9n42hsYa2vFltMh/KOiuOTpJxn90IMu3wbNDRkHdLrNfXdmWBMBqX+4RIcxVFWzfuFCfvvnPKpOnhRbTodQ+foy8p67ueSZp/CPihJbjicRThe2k7pkWNlqjS9wHVJxPolOYjWZOfDDj/x85985uWmT2HI6hFypJPPaa5jy0gJC4qUiJHZkerZaE9eZF3R1hjUUuKiLr5WQoHDnLhbfdQ97vvjSbcoZJ0+ayNRXXiKib1+xpXgKKQhddjpMlwJHs9Wal4EHOvtaCRegsbyMytcXlZ8vXgEBePkHoPLzQ+nrI2wwN56M2cxmzEYjZr0eY10dxto6jLW1mPR6LEYjNqu123JUfn4MvvmvjLrvXnxDu3TS7XQKduzk14cfoeTAeU1hJDrPUoTmq3poP3C004Y1PzomHvgNIZlRwpWRyVD5+uIfFUlIfDyhiYmEJiYSHBdLQHQ0PiEheAUEoPLxQe6lQq5QIJPJm34rbDYbNqtVKOhnMGDS6zFUVVNXWkqtTkdFfj4Vx/KoyMunpqAAfWVFl6LEZQoFSePHMe7/HiUi1T1+rQp37WLZgw9LptV9yoCpWTrtFnCMYd0OvIMQACbhYih9fAiOjSU6sz+9hgwmun8GIQkJ+IaFofTu9Clyu9isVow1tdQU6Sg7fATdrt0U7NxJ2eEj1JeXdyqMISI1lXH/9yhJE8a7Rdeegu07+OWBByk7ckRsKe7OU1k67X+gC4bVToE+X4TWXdO6p0/Cnqj8/Ijo25f4i0bTe/SFRKan4x8RLloJY5NeT9WJExRs30H+mrVot22nprCwQ+blGxbGqHvvYfAtN6Hy9XWC2u5xfN16fnngQapPnRJbijuzFSG/sMzehjUCoXVPeDcFSnQTuVJJSHw8SRPGkzxpIuqBA1yyrIvVbKb6lJbj69dz5Nff0G7dJlT7bOP3TOHlRcZVV3LRIw8T2Mv1i9ceWrKU3x7JQl9RIbYUd6UeuDJLp/21PcNSdvKNpyGZlaio/PyIGTqE9NmXkzh+HIFqtUunj8iVSkIS4glJiCfjqisp3refQ0uWcHjZr1SdONnixr3FaGTPl19RcSyP8f/5P3oNHiSC8o6TOm0qNQUFrH72ebdJ9nYx/IApwK/tPbHDM6xstSYMWAaM6KY4iS7gHRhIwsVjybz+OuJGjcTL319sSV3HZqPyxAkOLVnK/m+/p/TIkVaXi8G9ezN23j9JmzkDubKzn6/Ow2wwsOI/T7Lz40+kPohdYx8waV5Rga6tJ3XGsCYDPyC4oYSTUPn5kTRhPINu+iuxI0c4ZONcTGoKCzn448/s+eJLynJzW/xj9w4MZPicOxl+1xyXNuraomIW/f1uTm7cKLYUd8QAXDOvqGBRW086b1f2iSeeaPGJ619ceB9SsKjTkKuUxF0wign/+T9G3P13wpKTXXqG0VW8AwPRDB9G8sRLUPr6UpGXj6murtlzLEYjp7ZuRV9WhmbYMJfdjPcK8Cc0MZ68lSsxnvMzSLSLEihbXlezrK0ndWiGla3WqIE/gP72UifROqGJCQy742+kX3mFS26kOwqb1Ypu9x42v/kWuX8sP28/SCaXkzZzBhOefIKAaNfN69v0xpuseT7bbSpTuBC7gUuzdNpWC6h1NNhlBEIYvYQDUfn6knntNVz5yf8YctutPcqsQDCkXoMHMe21V5j43DOEJiY0e9xmtXLw50X89sg/qdZqRdHYEQb+5QZ6XzBKbBnuSArQ5glLRw3rUsCzNk9cjLDkZCYvyObSF+YTntKzPxtUfn4M/MsNzP7oA1KnT0OuOmspbLNx9Pc/+PXhf7psxQff0FBG3H0X3kFSSZpO4odQdqZV2jWsbLUmGhhrJ0ES5yBXKkmdPo3ZH71PxlVXetymeneITEtjyssvMeaRh8+rs563chW/PvQIlfnHRVLXNgljxtB36lSxZbgjY7LVmqDWHuzIDGsIIBW4dgDewUGMfvAfTFkoVQBoDe/AQEbeM5eprywkLLl5cdv8NWv5Lcs1a2vJVUoG33wT/pGRYktxN/rRxvZTRwxrAuCaxzJuTHDv3lz24gIuuP9eaenQDqfrrM98+01iR45s9lj+6jX8nvVvqgta7BolKuoBmaRMmSy2DHcjHGh1A7BNw8pWa0KAMfZW1NNRDxzIjLfeIG3GdNHy/dyR6MxMpr/xKimXTW4W3X9sxQqWP/p/LtedR6ZQ0P/qq6W2YZ1nTLZa0+IfRnszrH5Amv319FwSxo5h+puvoRk2VGwpbklwXByTF2STfsXsZhUdjvz6GyufekbIU3Qh1AMHEH/RaLFluBuDgBaTSNszrIuAnnW27ihkMlIum8yUl1+Set51E//ISCY+8xT9r77qjGnZbBz48SfWZi/ApNeLK/AsFF5epM2aKXXe6RxxQHpLD7RqWNlqjRfSctA+yGT0nTqFS7PnE6TRiK3GI/ANDWX8E4/T7/JZZyqkWizs/vQztrz1Nlaz67Sbjxs1kjVZwFAAACAASURBVPBU6VClE/jRSs5yWzOsOKSuOHahz6WTmPTcsy4dne2O+IaGMuGJx0meeEnTNYvJxJa3/sver78RUVlz/CMjSRwrRQZ1khGNk6ZmtGVYg4BejtPTM4gfcxGTnntGMisH4R8VxcSnn2q2J2isq2PdCwvIW7VaRGXNSRw/DpWfVDegE6QD0edebMuwRiO18eoW6gEDmPTcM9Iy0MGEJMQz4aknCUk404KrtqiYVU8/Q9nRoyIqO0NURjqhSYliy3AnYoDz1tEtGla2WhMIDHe0Ik8mOC6OS55+ssen2TiLmCGDGfuvec1i2or3H2Dt/BcwVNeIqEzANyyMmCGdbnTck/Gjhc7Qrc2wEmjB3SQ6hndgIGP/lUXsSKnWoTNJmz6NIbfeel64w87//c8liupphg13i+YaLsTgbLWm2Q1r7e4NRCqF3CVkCgVD/3Yb/WbNFFtKj0OmUDB8zh3EjzlTts1qNrPtvQ9cost0VHo/KYi0c6QDzZpVtmZYw5HaeHWJpAnjGT7nTimCXSR8w8IY/dCDzQ456kpK2PjaGxiqqkVUBkGxGoI0MaJqcDPigNizL5xnWNlqTQAtrB0l2ie4d2/G/PP8ygISziV2xHAG33JLs+XX8XXryFm8WERVwlZBaKK08d4JQjinYXNLM6xYILmF6xJtoFCpGHn3XURnZootRQIYeOMNxAwd0vS91WRm92dfUF9aKpommUJBWB/pT6sTKDinynFLhpUGSDUxOknSxEvIuOoKsWVINOIfGcnwOXc2q/9etH8feStXiScKCImPd+m2bC5IerZa01TBsSXDGoQUf9Up/KOiGDn3brwCAsSWInEWSZdMIHHC+KbvrSYzOYuXiNo7MLBXL5Re5wVwS7ROH87KZ25mWPOjY1RI6TidJvO6a9GctfyQcA1Uvr4MvumveAeeic3SbttO6aFDomnyCw+XIt47Ry/Oqtxw7gwrDCn+qlNE9O3LoBtvkKb5LkrsyBHN4uH05eUcX7deND3eQYGSYXWOYKApheFcw4pDCImX6AAyuZwBN1xPcO/eYkvpMjaLBWNdHfqKCuqKi6krLqa+tBRDdQ0Wk0lsed1G6eNDymWTm50Ynli3QbRlocrXVzKszuHNWSXaz+3MmQq0WgBeojmR6f2E8iZuhLG2lsr84xQfOEhpTg6VJ05QV1yMoaYGi1EwKJlcjsrPD7/wMII0GsL69CEqI53wlBT8IyPcLlo7dtRI/KMiqdUVAVCak0NNQeF5bcScgULl5bKNYF2Ypvy2cw0rg463/urZyGT0v+oqAtTnJZS7HBajkeL9B8j980+Or11H2eEjNFRXd7zRp0yGyseHII2GmKFDSJ40kbhRI/GLiHCscDsRHBtLRN++TYZVV1JC2ZEjohiWTKlA4S1tuneSxGy1xitLpzU2Gdb86BglQklkiQ4QnpxM6nTXbuNk0us5sX4De7/6muPr1gvlg7uSU2ezYdLrKTt6lLKjRznww4+Ep/al36yZ9Lt8FsFxcfYXb0eUPj5E9c8gf81aQKiZVZqTQ59LJzldi0wuR644d54g0Q6xQCBQdvadCwakMNwOkjJ1CkGxse0/UQRsFguntmxh23sfkLdqNab6eru+v8VkonjffkoOHGTvV98w6Ka/0v+aq/ANDW3/xSIRnpIiHIw0GnZ57jGRFUl0gkiEA8FmhhWNVLCvQ/iFh7vs7KquuJht777P7s+/QF9R4dCxbFYr5bm5rHr6GY7+/jujH3pQaNHugiemwbGxKL29MTc0AFCt1WJuaEDp4yOyMokOEIzgT0fONqx4pIYTHSLuglFE9nO91bN223ZWP/Mcp7ZswWa1Om1cq9nMifUbKD10mFH3zGXQzX91uY1l37AwVL6+TYZVX16OSa93umHZLBYsJqNTx/QAfAANNN9gT0I4QpRoA7lSScrkS12qC4rNaiVn8RIW3zWXk5s2OdWszqa+tJTVzz3PyiefQl9eLoqG1vAK8G9mTsbaOlG661gtFixGybA6iYLGqg1nG5bUe6oDBMVqiB01sv0nOgmb1crer7/h93+6Rst2i9HIrk8+449/PUpdSYnYcppQeHmhOCslxmoyYjE43zgsRiNmfYPTx/UANNAY1tB4QihtuHeA2BEjXKpG+/7vvmflk0/TUFkptpQmbFYrBxctBpmMSc8/6yKb8TJkclmz7+UK50fwmPV6ux+C9BB6Zas1TRGA/jQ6mETryBQKEsaOcZnAyWMrVrDqmedcyqyasNnIWbSYtdkvuERjU5vNitVyZqms8PJCLsKy3lBT6xL3ww2JAnxO/+WFNl6QaIOAqEh6DR4ktgwAyo4cYdVTz1JXXCy2lFaxWa3s+eIrdn3ymdhSsDQYsBjPpOOofH1Rejt/y7ahslIyrK4RBvifNqxIpBPCdolIS3OJ2CtTfT3rX3qZkpwcsaW0i8VoZPMbb3Ji/QZRdRhqqpsZhXdwkCghDbXFxdKme9cIBoJOG5Yaoa2ORBv0GjxIlE/lczn48yIO/7JMbBkdpq6khA0vv+LwuLA2NRSXYK4/Y1j+kZGi/L+sKSwU7RTXzfEHQk4bVgxS0b42kauUqF2g/HF1QQHb3//A7T6lT2zcxL5vvhNt/Ir8/GbVJ4LjYkVpFFJ1QvyTXDfFh7MMS4pwbwe/sDDCUsSP/Dj4408UHzgotoxOY7NY2P3Z51SdOCHC4DZKzrlnoYlJTpdhMZkkw+o6XkDY2UtCiTYIjIkhIErcygy1RcUc+OFHl2gK2hXKjhzh4M+LnD6uvqIC3d69Td+r/PwIT3F+MwhDVRXVWq3Tx/UQlECovDEGSzohbIfQhAS8AvxF1ZC/eg2lhw6LqqG75Cxa7PSA0uL9B6g4ltf0fYA6mpCEBKdqAOEDx5VPdV0cBY1LQh+EI0OJNghJTBA1/spiMnHkt9+wms2iabAHpTmHOLlps1PHPLdiRWRaGv4Rzm8MVZGXh6GmxunjeggyGg3LF6nKaNvIZKLXfKo6cYLCHTtF1WAPLCYTx/5c4bSTsvrSUvLXrGl2LXbECOQq59ekKs055PYfOCITKEcIZ5D6U7WB0suLwF7inkvodu+h1kOWEwXbd1BX4pyGpqc2b2m2jPYJCSF21Ig2XuEYrGYzxQfd77DExWgyLNeqBeJiKH188AsXd9VcuGt3x0sauzjVWi3lR486fByrycyhJUubhYBEZ/Ynoq/zG0Ppy8spO3zE6eN6GH5yhIAs8aMhXRiVnx/egeKtms0GA6VuENXeUUz19ZQ4YbZRfPAA+WvXnbkgk9Fn0kRRutZU5OVTU1jo9HE9DB85EI40w2oTlZ8fKj/xblFDpecdh5c5YYZ14IcfqS89s/QMjosjeeJEh4/bErrduzHW1ooytgfhJUcIaZDaeLSB0tcHhYgpOfqKchoqq0Qb3xFUawuwmhy3AV125AiHlvzS7Frq9KmEJjm/ipLNYkG7bbvTx/VAFKcNS2rj0QZKb2/kIqRxnMYTM/wbKiowGxxUyM5mY+9X31B96lTTpeC4ODKvvcYx47VDbXExRfv2iTK2h+ElByKQehG2iVypEjUGy1hT63F1wI319Q7rLF20bx8HfvjhzAWZjMxrryEiNdUh47VH8b791GgLRBnbw7Cd3sOScGFMDQ3YrO6ZjtMaVpPZIaeeFpOJ7R98RE2hrumaesAABvzlBruP1VGOr1+P2WBo/4kS7WGUAyFiq5BoBzfNHWwLuULhkFnrsT9XcGjJ0qbvVX5+jLj77wT2EiddtqGyklObtogytgdikyNFubeLzWrBJqJpyBUKZC7Y6687KH18kCvtW9GoplDHptffaHYal37FbPpOucyu43SGon37KTsixV/ZCX85UpR7u1gMRmxm8YI2lb6+LlNH3l4IFT/td/JqNZvZ9u67FJyVvhTVP4NR98xt1i3H2eStXIWxrk608T2MgNOR7hJtYG5owGJ2zAZxR/AOChL1j84RBERH2/VnOrzsV3Z/9kXT8tknOJgxjzxMSEK83cboLPWlpeStXi3a+B6I3+nkZ4k2MNbXYxYxrMA3NAQvf8/6XAlLsl8BveL9B1iXvaCpEoJcqWT4nDtJniROkOhptFu3Sek49sVbjpSW0y6m+noMNeJFKfuGheEXESHa+PZGrlISkWqffL7aomJWPvV0s8j5tJkzGHrH7aIuo20WC4eXLXO7UtYujkqOFOXeLma9noZK8RooeAcGEproOX1u/cLD7VJu2lBTw5rnnid/zdqma7EjR3Lxv+fhHRjY7ffvDmVHj3L87DxGCXuglCNU8pNoA7PRSG2ReKVd5Eol6kEDRRvf3kSkphLczXZpJr2e9S++xP7vf2jatwpPSWHiM0+6RCu2I8t+axYLJmEXFHKktJx2sVksVJ2V5iEGscOH4x0k7qzBXsRfNLpbPQHNDQ1sfOU1dnz4v6aCeEEaDROffZpoF+hsVFdcTM6SJWLL8EjkSGk5HaIy/7io40em9yOyX7qoGuyBX0QEiePGdfn1xro61i14iS3/fbsptcc/KopLnn6ShLFj7KSye+T+uYLSnENiy/BIJLPqIBV5eaImIHsHBpI6bQq4eQBp/OgLiUjrWk6fvqKCVU89zdZ3323azPaPjOSSp5+k79Qp9pTZZQxV1ez75jupFLJjsEmG1UGqTp5CX14uqoaUKZcR3kf83ohdxcvfn4xrrkah6nyEe2X+cX596BF2ffp5U1maAHU0E597hn6zZtpbapc5tmoVBdulUjIOwiwZVgepLy2l8rgITUDPIjgujgE3XO+2Ue+J48cRP/rCzr3IZuPE+g38POcuDv+yrKl5RUhCPJe99CJpM6Y7QGnXMFTXsPuzz6VQBsdhkQPS3LUDmOrrKXaBmkb9r7mKuFEjxZbRafwiIhh2x+2d2mw31tWx7b33WXz3XHS7dzdd7zVoENPfeJ3kSyY4QmqXOfr775zaLCU6OxCjEvCMzgZOoHDnLmwWCzIRi/n5hYcz+qEHKTs6132acspkDLzxBjTDh3f4JcX7D7Dh5Vc4+tvvTZvrMoWClMsmM+6xRwlNTHCM1i5SX1bGzv99LM2uHItBDoiXJOdmFO3bT11pmdgy6D36Qi78x/2ofN0jq6r3hRcw9PbbOrSU1VdUsPXtd/n+5luFjjeNZuUdHMQF993DlIUvupxZARz4/gcKdu4SW4an06AEpI+EDlJ96hQlBw8SEB0lthQG3vgX6oqL2fzGWw6r3GkPguPiuPjf/8I/su1Oy+aGBo6tWMm2d99Hu23bmVM2mYzIfmmMeeRhkidNRK50vbDB8txj7Pz4E49pw+bC6JWAVAqxg5j0ek5s2EjiuIvFloJCpWLUffdiNVvY9u57LlnR0js4iLH/yiJm6JBWn2M2GDi1aTM7P/7kvJbyXgEBpF9xOSPn3k1IvHhVF9rCajaz/YMPKc89JraUnkCtEnBQJwDP5OSGDRiqqvEOFr/uocrXl9EPP4hPaAibXn2dhirX6ayj9PHhwgceaDXkwFBTw8kNG9n79TccX7uuqdICCHtVMYMHMXLu3SRNvKRLYRDOIn/NGg58/0P7T5SwBzVKoL7dp0k0UZJziKJ9++jd2eN5B6H09mbEnDsJTUhg7fwXKD18uP0XORiFlxcj77mboX+7rdkBhc1qpfrUKY6tWMnBnxdTuHMn5oazPi9lMkIT4hn41xvJvOZql69QUVdSwsZX33CpDwoPp0oJSN0dO4Gxtpbc5ctdxrBAmJH0nTqFiNS+bHz1dQ4tWdpsaeVMlN7ejJh7F6PuvUeYGdls1JeXU7hjJ0d//4P8NWupOnWq+X6PTEZQTAzpV17BgOuuFaV3YGexWa3s+PAjtFu3ii2lJ1GhBGrafZpEM46tWMWwO+8UrbFBa4QlJzN5QTZ9Lp3Etvfep2DHDoc2Kz0X78BALnjgPobcdiv68nJ0u/dwfO06TmzcSEXusfP22WQKBSHxvUmbOYOMK68QovjdJPUob9Vqdv7vk6ZAVgmHYwPKlYA0n+0k5bm5HF+7lv7XXC22lPNQenuTOn0avUdfyJFlv7Lny6/Q7d7j8PgghUpF8qSJyOQKfrn/HxTt3Uu1tqDFcVW+vkRn9idt5gz6TL5UKDXjJkYFwmnxugUvoq8Qr0ZaD8QKlMnmR8dkA/8UW427kTRhPJe//y4qP9cuXdxQWUn+2nXk/LyIk5s2U19W5pC2YXKlEqW3Nya9vsVZh1ypJDgulviLLiJlymQ0w9yzXI65oYHlj/4fuz//QmwpPY0G4GYlUIEw3XKfjzgX4NTmLZzavIXE8ePEltImPiEhpM2YTsplkyk7dJi81avJW7Wa4v0HaKistNuSxmo2YzynQoFCpSIoVkPMsGEkjbuY2JEjCIyJcdtcSIDdn3/B/u++F1tGT8QIlCmBMoT0HNeLyHNhjHV17P36G3pfNNqlj91Po1CpiOqfQVT/DIbcdisVx/Io2L6DU1u3UrxvH9UFBRhrartlYHKlEp+QEMKSk4gZMpjYkSOJHpBJYHS0qOlM9iJv5So2vvKaS8a89QD0QLlsfnTMlcCnSN1zOo13cBCzP3if+ItGiy2ly9isVvQVFVSdOEnZkaOUHDxA7h9/Nmvq0CIyGSofH/yjoghNTCAyvR/RmZlE9ksjOC4OL39/p+h3FiUHc1h811xKcnLEltJTyQUmnZ5hGZEMq9MYqqrZ9fEnaIYPQ+ntns2HZHI5fuHh+IWH4x8dRdWJE602/pQrlQRERxPVPwPN8GH0GjSI0KRE/MLD3fbn7wg1hYX8+fh/JLMSl0qg+vQelh4IFlePe3JsxUryV62mz+RLxZbSZWoKC9n//Q/s/fIrKvLymy0LZQoFgb16EXfBKJLGXUzM0KEEamLcYhlsDxqqqlj11DNSBxzxKQPqT4c1SMGjXcRYV8fWd98jduQIfEJCxJbTKfTl5eQsWszOTz6lNOdQM6PyCgggZugQUqdNI2HsGILjYj1iH6ozGOvqWPN8Ngd/XiS2FAkoorFaQzXCLEuii5zavIV933zLsDvvEFtKhzDp9eT+sZzt739AwY6dzeqP+0dGknTJBDKuvIKYoUNcPmzDUZgbGtiw8BV2f/65FBzqGhRk6bS207mE4hd5cmOsZjPb3v+Q+IsuIjK9n9hyWsVmtVK4azdb3vovucv/bJbH5x8VRer0aQy4/loi+/VzyTIuzsLc0MD6ha+w7b33nZopINEmWhBCGQwI0y2JblB14gQbX3udKQtfdMlZSX1ZGbs+/pSdH3/crCmsd3AQqdOmMeTWm4lKT+9xy75zOW1WW99+R6oe6jqYgVMAynlFBbb50TGFIgvyCA7/sozYkSMYcustYks5g83GyU2bWLfgJU5u3tKUdKxQqYgfM4YRd80hbtQo5KqeO6M6jbG2lvUvLWT7Bx9JZuVa1AMFcCZYVCueFs/BYjSy+fU3ie7fH83wYWLLwVhby85PPmXrf9+hrqSk6XpoYgLD58wh/crZeAe6X3qMI9BXVLDm+fns+fIraRnoelQCxXDGsE4hTLukj9luUl1QwOpnn2fGf98UtZpDZf5x1szP5tDSpU1/gEpvb/pOn8YF999LRN++omlzNaq1Wlb858lmbcQkXIpioBzOdH4uQCrkZzeEJdiLotWkOrlxIz/f+XcO/vRzk1kFxcQw4aknuezFFySzOovifftZMvc+Di1ZKpmV63ISqIMzM6pihGmX+HV/PYT9335HcFwco+6d67QTN5vFwoEff2L1s89TU9i4LSmT0fuCUVz82KPEDBnsFB3ugM1q5difK1j55NPtpyFJiM2xLJ3WDGcMqwLBtHqLJsnDsJhMbH7zLfyjIhl4w/UOr/dkMRrZ/sFHbHjlFQxV1YBQqjjz2msY/fBDLtHpx1Uw6fXs+vhTNr72OvrycuGiTEagWk3M0CFYLRZObd5y5jEJsWn6RDltWHUI0y7xd4o9CGNtLWuem493UJBDW6qb9Ho2vvoaW99+tym2yjs4iFH33sPQ229zm/6FzqDq5EnWLXiJgz/93HQSqPLzI23mDIbPuZOIvinYbDZObtrMqqeeQbdnj8iKezx6zjIsBcDyuhrrxIDA4YDrFCr3EEx6PdqtWwlLTCSsT7L937++nnULXmTbO+81/QEGqKO55MknGPzXG1F4edl9THfEajZzbMVKfs/6F8dWrhI6eMvlRPfvz/gnHmfEXXMIUEcjk8uRyeWE9O5N3KiRlB09StWJE2LL78mUAK9d9PBDZdD8VDBXHD2eT62uiN/n/RurxULfqVPs9r6m+nrWvrCA7R982LS5HhIfz8TnniH5kgl2G8fdqdZq2fbe++z58qum5bJvWBgDb7ieIbffSmCvXi2+LjwlhamvLGT5Y49z5NffHFKpVaJdCmgMaYDmhnUUoQypj7MV9QRqCgv5fd6/Mev19Jt9eberbpoNBjYsfKWZWZ1uQtH7wgvsIdntMdTUcHjpL2x99z1KDuaAzdYUMDvqvrnEDh/ebmR/kEbD5OznUXp7k7NosXSS6HyOIuQ7A80N6wTC5nvLHzcS3aauuJg/Hv0/9BUVDLr5pi6XaLGazWx9+51muW7hffpw2cIXiR0x3J6S3RJzQwPH165j+wcfcmLDRmGpLJMRlpzEsDvuIP2K2Z2qJ+8fFcXEZ59GJpNx4KefpZmWczmQpdM2fUqcbVjFCNMvybAcSENlpRB2UFDIqPvvxSe482XI9n71NZtef7OpVG9IQjyTF8zv8WZl0us5uXETuz79jONr1jYVIvQJDib9itkMu+NvXe556BcezoSnnsBsNHJ46S/2lC3ROmbgwNkXzjasaoTp11BnKuqJmPR6trzzLhX5+Vz86L8IS+74ZnzunytYm70AY61Qwiywl5pJzz1L3AU9dxloqK7h+Lp17P3qa06s39BkVAqVit6jL2TE3XfR+8ILuh0P5x8ZycRnnsJUX0/eylV2UC7RDhVAs1bmzYKD5kfHPA486UxFPZ3IfmmMnZdF8sRL2t1PKTmYw6I5dzW1o/cJCWHS88+SPvtyZ0h1OWp1ReQuX87+739s3vZeJiMiJYWhf7udfpfPsns7sfLcYyy5514Kd+6y6/tKnMd2YFKWTttUr+/cj5wDSDmFTqXkYA5L7rufwTfdxLA7/4Z/ZGSLz9OXl7Pq6WebzErp7c2F/3iAfrNmOlOu6FjNZsqOHOXQ0qUcXvILZUePnleAsP81VzP4lpsIjotziIaw5CQmPvM0i+feQ2X+cYeMIQHAQc5p9NzsI31iQKACuAbwrJYnLo7FYEC7bRsF27bhHxVFSFwcMsWZU0SL0cj6lxay//sfhA1fmYzBN9/EBfff22Nqqxvr6jixYSObXnuD9S++SO7yP6kvLW06tfPy96fvtKlc8sxT9L/mKoeXqw6M6UWgWk3+6jVS2y/H8XGWTrvh7AvnzqS0CBHvLX/MSzgMm9XKqS1bWXzX3fSbNYvM668jvE8fTPX17Pjf/9jx0cdNf5xJ48dx4T/u9+hONaepLSrm2IoVHPzxJwq27zivo49cpSR2xAiG3fE3EsePc+o96Tt1CuW5uax78SWpJI39qQd2n3vxXMOqRJiGDXGGIonzMVTXsOuzz8lZvISQ+HhMdXVU5Oc3LXtCkxK5+N//wi8iQmSljsNmtVKRl0fOoiXkLFpE2ZHmyz4Q2pNFpKUy5NZbSJs5o0unrd1FJpcz9PbbKDlwUGpUYX8KOGfDHc4xrHlFBdb50TE7gb84S5VEC9hsNFRWoqusbHZZ5efH6Af/QVT/DJGEORaryUzR/n0c+P5HDv+yjOqCgvNinmRyOaGJCWReew0ZV1/VapS6s/AKCGD0Iw9RknOI0kOHRNXiYRykhdLtLW2u70KYjrleYfIeTv9rriLNAzfZjbW1nNqyhf3f/UDeqtUtVkmQK5WE9+lD+hWX0+/yWQT3dp3CIuF9+nDhgw/w64MPt9qEVqLTbM3Sac+rU92SYR1GmI71cbiknkpjm3fv4CB8goLxDg5C5eeHQqnEZrNhNhioPqWl8viZE6jozP6MnHu3R22y1+qKOLZiBQca96daKnio9PGh16BBpF8xmz6XTiJAHS2C0vbpO3UKJ9avZ9cnn4ktxRNoALa09EBLhlWEMB2TDMtOyORyfEJCCO+TTFRGBlEZ6YQmJREQHY1PSDBKHx/BiGQyZMgw1Nbw60OPNBmWys+PkffMddgxvTOxms2UHjoshCUsXUZ5bu55+1PIZPiFh5Mwdgzpsy8nduRIu8dS2RuFSsXwOXM4uWGTVBCw+5zinAj305xnWFk6rTFbrdkCzHC0Ko9GJsM/IoKYYUNJvPhiNMOHERLfG6+AgHZfeviXZRz7c0XT96nTp9J3ymWOVOtwDDU1nNqylYM//Uz+6jVCU4xz9qfkSiWhiYmkTLmMtBnTiUxLc6tuPmHJSQy78w7+ePRR6dSwe+wGWuzk1dpvw1aEwllS5bdOolCpiExPJ3X6VJInTiSsT3KnlnFlR4+y5a3/NsX2BGk0DL/zTvesa2WzUa3Vkrv8Tw7+tAjd7t2Y9PoWn+rl78/AG29g8M03dznfzxXoN2smh3/5hbxVq8WW4s6sP10S+VxaM6z9CNOyFIdJ8jCUPj7EjhhO5nXXkjjuYnzDwjr9HlaTmW3vvEd57jHhgkzGgOuvc7tTQYvJRPH+/eQsWsyRX3+j8viJpn6IrWE2GDj8y6+UHcml1+CBaIYNIyojHb+IiG6X4nEm3sFBDL39NrTbtjfle0p0iipgU2sPtmZYOoTTQsmw2kGuUqIZNpwht91C0vhxHVrytcbx9es5uOhMPE9kWiqZ119rD5lOwVBTw8mNmzjw/Q/kr12HvqKiw6VYrGYzVSdPUnXyJMdWrEDp4yNU/bxgJMmXXopm2FBRYq26QvzYMSRNGE/OosViS3FHDgM5rT3YomFl6bTmbLVmHXC1o1S5PTIZT7EtIgAAG+9JREFU4cnJQoLt7Fnd/mMy1tWx/YMPmypiyuRyBtxwPUEajT3UOpTaomJy//jj/CTkbmBuaKD08GFKDx9m79ffEt0/g7RZM+k7bSpBMTF2UO04lN7eDPrrjeStWoWhukZsOe7GhrOTnc+lrR3NTQjlHULtLsnN8QoIIOOqKxg+Zw6hiQl2ec/81Ws4vnZd0/eR6f1Im+Ha5x41hToO/vgT+777jrLDR84/7bMT5oYGtNu2U7BzF7s++YzM664h46qrXLoTkGbEcBLGjuXQkqViS3EnDMDKtp7QlmEdQpia9dxCSy0Q2S+N0Q89SMrkyXY7wTLW1bH7sy+alUfpf/XVLhtzZKyr49DiJWx7731KDuY4rWywzWKh7MgRVj83n5yfFzP873fSd+oUlD6uV9Vb6e1N/2uu5tifK1o9aJA4j+MIJWVapdXdzCydtgpY19rjPQ25Skn67MuZ/cH7pE6fZtfj9lObN3Ny05l9xvDkZFKn2a9ZhT0pOZjDsgce5Ld/zqN4/wFRapzbLBZ0e/aw7MGH+fWRrDOHFC5G3AWj6DV4kNgy3ImNCEHrrdLe8csqhKjTHo13cBAXPfQQkxdk2/3I3Wo2s//7H5tFeadMnUJQbKxdx+kuNouFnEWL+fH2v5GzeElTSzExMTc0sP/b7/jp9js4+vsfLtcgwjswkLSZM9zqlFNEzMAf84oKrDKZjNa+2ruTO+jh7b+CYmK4dP7zjLp3brdOAFuj7PCRZntXfhERpE6favdxuoPZYGDzf9/m14cfoeJYnthyzqMkJ4df7v8H2z/40CWM9GwSx4/ziAwFJ3ASYYbVJm0aVpZOq6MHLwvDU1KY+urLpM++vN3yxV0l988/qStuartG3KiRRPbr55CxuoKpvp51L7zIuhdedOkTL31FBauffZ4NL79il1NKexHSuzfxF40WW4Y7sA5hD6tNOjJX/Q1wrY8tJxDVP4Opr75M/JiLHDaGoaaG3OVnUnDkSiV9p1zmMgnO5oYG1r+4kG3vvudyM5eWMDc0sPmNt1i/0IVMSyYjedJE98xUcB4mYFmWTtt2dDEdM6wt9LBlYVT/DKa+/BIxQwY7dJySgzmUHDyT4xkSH0/sBaMcOmZHsVksbH3nXba9/wEWk0lsOR3GYjKx9e132PrOuw4Ls+gsvQYPJjTRfdONnMAxOriSa9ewsnRaLcLme48gom9fLlvwAtGZmQ4f6+SGjc2WWXEXjCJI5IJ0pzn4089sfuMtt5hZnYvFaGTzG29x4IefxJYCQEB0VI/vGdkOKxFSAdulo8cXv9ADTguDNBomPf+sU46izQYDJzdvbvperlKScPFYkMnaeJVz0O3Zw9oXXsRQ47p7Vu1hqKlh7QsLKNi+Q2wpAMTZoS+ih1IPLMrSaTuUw9VRw9pMK/VpPAWf4GDGPf4YvUdf6JTxarQFlOacKakbFKOh16CBThm7LQzVNax/cWGz4oHuSvWpU6xb8KKQ0ygy6gEDWm3h1sPZi+AvHaJDhpWl05YAv3ZVkasjVykZOfcu0mZMd9qYpYcOUV9a2vR9dGZ/0euTA+z79luOrWgzO8KtyF+7jt2ffyG2DII0MYT3lWoJtMDiLJ32/JrYrdCZiLYlCLmFHkfajBkMuf02pwb4Fe8/0GwzWzNsmOhLhopjeez48COX2ay2BzaLhV0ff0rJwVYLADgFpY8P6gEDRNXggugQfKXDdOYvdDdt1KlxV07nBnr5O693rM1ioSTnzB+Ql78/6oGO3+Rvjz1ffe2yaS7doerkSXZ/9rnokfDRAzJF/1ByMVbRya2mDhtWlk5bD/wAtBsr4S54+ftz4T8eICw5yanjGmprqTpxsun7AHU0oYnO1XAu5bm5HPzpZ1E1OJJDS5eKPssKT07GOyhIVA0uRAPwTZZO26mYmc6ugX4HPKbCftrMGaRcNtnp4+rLK6grORPdHpqUhG945yuU2pNDS5ZSdeKEqBocSa2uSPSCegG91AT2UouqwYXYBXS6jvR5htVW4uG8ooITdHLN6aoE9+7NsDl3iBKBXF9aiqHmTPnciL59RY1u15eXc/gXjz1TaeLo7783S4NyNt6BgS7VT1FEbMC3ndlsP01Xdpm/A8q68DrXQSZj4F+uJzItTZTh60tLm9W+CuuTLIqO0xTs2NkjuhaXH81Fu3WbaOPLlUpCE+JFG9+FOAZ0af+hK4a1k3aqAro6kWmpZFx9lWjj15eXN53EqXx8CIkX95c4f/Ua18m9cyAWk4n8tWtF1SDNsAD4MUun7VK6X6cNK0unNQBfILQBcz9kMjKuutLpdcFtFgsNVVVUHMujeN/+putegYGilvptqPr/9s48PKry3uOfSWaSScjKksQsBEEFCriAIIsLi2LR2mr12lZtvdW2eqtWbb1OqvVqW60JBXF5FErV6rWb2Faote1VWQsIYReQLSHrSc4kIZPJNpn9/vEmNGIWksyc95zJfJ4nDz4SzvubM2e+83t/729xSvU6tKZ27346mpqkrZ+SnW2oWYthwA78YbD/eLB3biOiKPqqwS4si7T8sUy8/vqwXT8YCOBpbcPV2EhLbQ1NFZU0lp7EUVZGU0UlbXV2XI3/TmdLSEuTOg2mqbwcR3m5tPW1pqmyEmdVFda0NCnrJ44Zg8WagNtr3LKnIfI+IkVqUAxKsGyq0lSUlfNbYN5gryGLCVdfTVqI4gh+r5cOh4PmmhocZeU0lpTQWFJKU2UlraqdDqcTX0dHn/k/1vR0LImJIbFnMDQcO4G7uVna+lrjbmnh1IkSTYrbe8KamoolMcHQdZpDwAG8eTZtZHpjKGLzHnAvMGMI19CUuKSkIY1897S20qwoNBw7jv3gIeqPHKGpvILW+jo8rW39DgvtiYSR6VJ7JZ06flx6QqWWBP1+qV1T45KSsGiYpKwz/skQk88HLVg2VbEXZeW8BVzC4IL3mjNm0kQyp049698PeH20qLXYPzlIdXExtfv24ygrx+VwhKx8xZqSIi37Oej3R0SR80BpVhRpa5ut8ZpWVeiIJuDVAnuNp2AIHUmG+kn5M3A3IL+u5CzImzOH+NS+M439Hg+OsjKqd+6ifMsW1AOf0KLWEvCGp74uLjk5LNc9G3xuN6119dLWl0VbQwMBr09K8DvWYpEaApDIP4FtQ73IkN4xm6pUF2XlvAksRedeVmxcHLmXzerx7/xeL46TJ6nctp2TGzehHviE9oYGTbZKloSEsK/RG76ODtzNTmnry8LT0orf55UiWDFmM+b4eM3XlYwD+JVNVdxD8a4gNAHzPwJ3ALoewDYiI4PR3dp7BLw+miorqdy+nZMbNlKzZ69mItWd2Dh5Ge4+t2dYDvn0e9zSOlKYTDG66dmvIX8lBN4VhECwbKqiFGXlvAY8D4RntEwISMsfizU9HWdlJVU7ijm5fj3VxbtorasbVLA8VMRa5AXcAz5v2La6eiYYCIriEFnooKushtiBlQMtcu6NUPnEa4DbAX1MUOiBjqYmPrD9GGXXblpqa3XT80kvdgwnYixmTLG6jmBEEn8AdoXqYiF512yqUge8ArhDcb1wUPfpET59dy3OqipdiYTfJ28iTYzZMiyzrs1Wq9y+VEGZ7p2mlCJiVyGLs4Tya2YdsKHf35JFMKjLB0VmDZ85Pg6LVV7QXxbW1FRiZaWSBAOGGps2BALAapuqhLQJWcgEy6YqzcALiHyLKGeJt61d2tpmq7XfNI9IZERGRtgmefdHwOfD59btRiSU7ATeDPVFQ72R3wC8E+JrRjTu5mZpmebm+PhhOcklNS9P2tp+rxdvu7wvKY1oA1bYVMUe6gsPWLD6afDnBV4E5NU+GAxXU5O8I/bYWNKGWbuTGIuZkePlTWH2uTrwtLVJW18j1iJK90JOyI9KbKpyCHiZCOr9Hk5cjQ58LnlxrNGTJmo6LUg2CWnpISt+HwyetlY8rREtWBXAMpuqhOWhDteT+gbDaLz9UOhoasLdIq9bwpjJk6S2t9GatPyxJGvcC607LkdTJG8JfcBLNlXZH64FwiJYNlU5BRRh9FbKGtDR7KT9lLzblJY/TvOpQTLJuvhi4iXWb7bV1UVyd9f1wOvhXCCce4H1wGvIzSnWPd62dpqVGmnrx6ckM3bePGnra0msxcLYuXOk2tBcXa2rPMAQogLPFNhrHH3FuYdK2ASrM1nsRcTxZpReCPh8OMrknlGMX7hgWKQ3pI8fT/b06VJtcJRHZDsfP2IrGPaG+WGNttpURQF+Dgx4nM9wouHYcalJrZkXTiNnxqXS1teK8Qvnk5SVKW19v8dDU2S2o/4AWKXFQlocD/0f8CuiW8NeaSwp+cycQq2xJCQw5ZavRnQXgYSRI5l4ww1SbXA1OmiqiLhhtZXAU4OZMTgYwi5Ynf2bn0fPZTuScVZV06LWSrVh/KKF5MyMXC9r/KKFZEnq496Fs7pa6iDXMNABFNpUpVirBTVJwOksjn4CqNJiPaPhcjhoOCp3kKk1NZXpd307IrthJowcycV33C690Lv+yJFIGz7xe0QKk2ZoljFoU5WPgV8gVDlKNwI+HzV798o2gwnXXM35QxjSoVem3PxVci6VPytF3T/o6VZ6pBj4uU1VNO0AqXWK8xuEoSAyEqjdu0/6t685Pp7Z999H+rnjpNoRSsZMmsSMu++SVuzchcvhQP3kE6k2hJBaoMCmKuVaLxxyweqn1rADcWq4OdTrGp1TJ0pwnDwp2wzGTJ7E3IcfioitYVxSEnMe+oHUUpwuTp0ooSkyUhpcCM9qo4zFNS8i60x1eBSQ/+nUES6Hg6odmsUu+2TyTTdyyZ3fNHSNoSkmhku+9c2wTvkeCNU7d0r3oENAAFhNmLPZ+0LKE9l5qvAY0d5Zn6FiyxZd9EqKtViY8+APmHj9dbJNGTTnL/kilz1wn/RAO4DX5aJia0hmMMjmfeBpm6pIe0hlfoW+AxQCHok26IraA5/QeKJEthkAWNPSWPDTJxm/cIFsUwbM2LlzWPjkEySkp8s2BYBTJ05gP3hIthlDZQ/wSIG9piGcpTf9IU2wOkt3XgJeRbiaw572hgZObpQSGuiRlOxsFhc9y7kL5ss25azJvWwWi5cWkqqjPl/lmzbjajR0sUcZ8JBNVY7LNkRqkMKmKu3Ak4h+8FGAkg8+xO2U127mTFLz8vji8l8y8UvX6zumZTIx7qorWfLcckadd55sa07jdjZT+tF62WYMhXrgEZuqbJVtCOhgWrNNVRqAHxI9OQSg7tBhqneFbCpSSEjJzubaXxYx4zt3S51U3RsxFjNTbrmZ655fobtWOcqe3UbeDrYAjwPvyjakC+mCBdCZz3E/ID97UjJel4sja9fprgVJQno683/yGIue/hkpubmyzTlN4qhRXPHof7P42WdIPidLtjmfIej3c3Tde0adru0CngZ+Y1MV3dQB60Kw4HRr5e8DIR0LZETKNm2m7vBh2WZ8jti4OC66/Ta++ptXueC6JcTGyZtabYqNJW/OHL686hUuu+/7xCUlSbOlN+qPHKVs0ybZZgwGD7AceMGmKrr65tRcsPpJLN0J/BdiAOOwpb2hgcN/fleXcxQBMqdN4/qXXuDapYVkTJ2ibRa5yUT6ueOY//hj3PTaavKvuFy3sbVP311Lq91wxc5exGHYszLTF3oj/OeQAyQYDFKUlXMNIkFtnGRzpJGSnc0tv3uLMZMnyTalT1pVO0fW/ZVDa9bQcPw4AW94vpBNsbGk5Y9l8le+zNRbb9V9+VBjaSlrvnEHzkpDtZPxASuBx2yq0mO/Iy1SF/pCl4IFUJSVswR4hWEsWjPv+S4Ln3oSJD8kZ0NbXR1lmzZz9L2/Ubt3H+2NjUP3EE0mrCkpZE6bygXXLWHCNVeTmptriPux5dkiPn7hRdlmDAQvom/d451DkXskKlhnEOz2kHd6WiuBCdIMkkhSViY3/+8bZF14oWxTzhqf203jiRKqduygasdO6o8cpa2uDk97O0F/35PfTDExWBITGZExhtEXXEDOrJnkzZ7NmEkTDVXbWH/0KH+6406aq6tlm3K2eBCj+f6nwF4jr5PkWaBrwQIoysqZjxAtfe+NwsS0r93KtcuWGrIbaMDno/1UI83V1TRVVNCsKLTV1eNuacHv9QIQazYTn5LCiDGjSc7OJi0/n5TcXEaMHq2LspqBEvT7+fDxJ9j3hmGaknQgGmw+XWCv0f3ARN0LFkBRVs5sxPbwEs0Nkkx8cjI3rHyZCVcvkm1KaOl6nw2wvRsIFVu3se679+ByOGSbcja0Isrjlnd2UtE9+jxeOQObquwA7gTCPpVDb7hbWih+ZaXRSzs+j8kUcWLlbm6h+JVVRhGrRqAAWGoUsQKDCBaATVUOIkRrLcOs9rBqZzEHfvs72WZE6YdD77xD+b+2yDbjbKhC5DyuLLDXeGUbMxB0FyTo5xSirDAz+3uIoY13AfIyFzUk6Pez5/XfkDdnTkQPijAy9oOH2LVqddjSOkLIQeChAnuNIYfCGMbD6sKmKvXAj4CnAKdca7SjVbWzbflzkbc1jADczS1sX/E8zipdz1gJAh8CtxlVrMCAggWnuzwsBe5FtL4YFpRv+Re7Vv+63/SAKBoSDLLvzTcp+eBD2Zb0hRvRxunOAnuNYSuxQYenhP3RQ9rDZcAyYB4GfD0DJT41hSXLlzHxS/po/TvcKV2/gfcfeFDPnm8D4iRwpU1V2mUnfg4VQ3pY3bGpyk7g64hvEMOcdgwWt7OZLc8WGrllScTQcPw4m5/5hZ7F6iDwn8CKzl2J4TGc3PaUpwVQlJWTAHwb0Ss+R0ubZJB/+Tyuf+lF3bVUGS60NzTw9wcfpnS9LsNBXkQPqyfO7BJqdA/L2Nb3QGFm9lzgGeBKIsCD7Ispt9zMNb94hviUZNmmDCs8bW1sePKnHPjd7/XYUcOOaA2zyqYqnxvTY3TBirgPtE1VtgNfQwTlDZHBN1g+fXct25Yvx9cR8Tth3eD3ePj4hZc4+PbbehOrACKx+uvAsp7EKhIwttz2QLduD2ZgMaJn/KVEoDiDaKo35wcPMPvBBwxZb2gkAl4fxatWsW35Cr19STQi2jE9X2Cvscs2JpxErGB1UZSVkwM8CNwNjJRhU7gxW63M+9HDzLr3XkMWDBuBgM/Hnldf519Lf4m3XTfxaz/wMWKa+nqbqviNvuXrj4h7db0UT8cCC4AfI2JbEfeptiQkMPfhB5l57z1SWxdHIn6vl92rf832557H06abhgYqoovJKpuqnG5rGhUsg9HbKSJAUVbOSMQx7/3AuRqZpBlmq5VZ37+X2Q/cr8vpNkbE63Kx8+VXKH55pV6GSXQA/wCKgF2d8z1PExWsCKQwM/sLiG3irUCaZHNCSqzFwkXfvIMrHn0Ea1pEvTTN6XA62bp0Gfvf+i1+j/QB5QHgALAC+ItNVXp09aKCFaEUZmZbgKuAh4BFgFWuRaHDFBvLxOuWMP9/fkJqXp5scwyJs6qKTT97mmN//4ceSqEqgNeA1wvsNYpsY2QybAWri8LM7CTgBuA+YBYQMUdtOZfOYMFTT5Jz6QzZphgKZdduNv70Zyi798g2pR5Yg4hVfWpTlWCke1D9MbxffTcKM7NHATcD3wMuIkIC8ym5uVzx6CNMvunGaNpDP/g9Hg7/+S9sW/YczYpUR8YBvIcQqt3dZwNGBSvKZyjMzM5ECNddRIhwWRITufAbX2f2A/eTlJUp2xxd0lxTw44XX+LQ2+/IDK47gH8iptd8bFOVzwXOooIV5TN0SzzNBL6COFWcDsTLsyoEmEzkzJjOvB/9kHFXXqHt8FMdE/D5KNu4iW3LV1B74ICs7PUG4O+IONWOnoSqi6hgRfkMPSSejgSuBb4FXA7obyb6ALCmpXHRbd9gxnfvJvmcc2SbIxVnVRW7V7/KwTVrcDt7HcUXLoJANbAOeAvYZ1MV73AXpP6I3p0z6KMbxAhgLnAbQsCyMOj9M8XEkDHlC8y853tccN0SQ838CwXulhaO/e19dv/q19QfO6a1V+UFjgDvAH8CjnfPpYoKVt9E784AKczMNiNmJN4I3ARMwaDbRXN8POPmX8Wl37mb3NmXRXxQ3u/xULF1G3tefY2Krdu0zq1qArYBbwMf2lRF7emXooLVN9G7M0DOmEw9GlHqczMip+scDFhkHZ+awnmLF3PxHbdzzvRLIk64/F4vNXv2sP/Ntyj9aD3uFs0aGXiBE4j41LvAvgJ7jS7S5Y1KVLAGSC+1imbgfER3iC8BMxAZ9Ia6v9a0NMYvWsi0W/+DnFkzDV/e43W5UIp3cfCPb3Nyw0Y6nJrMLAkAtYhWL+uAzYBqU5UgRD2ooRK9eyGmMDM7EZiKEK/FwDQgFQPd67ikJHJnzWTyjV9h3JVXkpSZYZyhp8EgrXX1lG/ewpG1a6ku3oWntTXcqwaAOmAXos5vA3DSpiqfm/kXFayhEb17IeaMLWMyQrwWAAuBC4FRGGTbGGMxkz7uXMYvWsB511xD5tSpxKemyDarR9wtLdQdPkzpBx9Run4DjaWlwYDPF87n24/wpPYgxmdtAkoK7DXuMK457IkKVojp45QxETgPcdI4H7FtzMUgNYxmq9Wf8YXJsWMvv5z8eXMZM3kSiaNHY4qRo73BQACXw0HDseNUbN0aLP1offupY8fNPrc7XAcgQcAFlAPFwEZgB1DePW8q6kGFl+jd1ZhgMNgV88pCeFxzgdmIk8cMDFDLaElIIDUvj8wLp5E9/RIypkwhLT+fhFEjwxawD3h9dDibcFZVYz90iKrtH7dU79rta1XVhIDPF094nmUPokf6YUSjvO2ISTT1Z7Z16SIqWOElenc1ppegfQKQh4h3zURk1l8AZCJSJvT7PplMxI0YQVJmBmn54xh53gRGjj+XlLw8kjIySEhPwzJiBOb4eGItcZhiY8SHuuuDHQwSDAYJ+gME/D58bjfe9nY6HE201dfjrK7GcbKMusOH2xqOHXO31dXHBfz+REK/rQ4iBo6qwDFgL8KTOggoNlXpEC9Xv2/FcCB693VGpwdmRaRInI/wwi5CeGB5QDrCC9Pve2cyEWM2B+MSE01xycnEpyQTn5xMfFIS5oQEzFYrphjT6XxNv9uN1+XC09qK29ns73A6A+7m5qDX5YoN+HwxhOe1ehG5UVXAUWA/ot/UccSpXo9N26OCJZfo3dcZvXhgMUAKkA1MQIjX5M7/zgVGAyOAaIHg5wkA7YhBDQpQisg0/xQo6fx/zgJ7TY9bvCj6IipYBqNbcbYJSEQM1sgG8oHxnT9jER7aKITQJSDELFLf7wCidXArQphUoBIoQwhUOaJurwFoi4qTcYnUB3jY0rmljEcUaacDYxAB/myEiGUhgvujEMmtSQjhsyK2mmZEfEjmsxHs/PEDPkRsyQW0AU6EKNUjhKkW4SXVInKhTgHNQEdXsmZ3ols6YxN994YhhZnZcQivawSQjBCuNITAdf9JRXhoSfxb2BIQBwHxCIGzIASuS+h6wt/tx4s4fXMjvKIuIWoFWhCC1IToDdXY+WfXT3Pn77QD7p5O6qKCFNn8P5yfFRTGkg3WAAAAAElFTkSuQmCC;rounded=1;" parent="NUGoPOzDiZfL2p5F_ZCF-10" vertex="1">
          <mxGeometry x="15.715" y="10.040000000000004" width="18.57" height="18.57" as="geometry" />
        </mxCell>
        <mxCell id="F3IjeC87NHKFIH8i6jZu-27" value="&lt;div&gt;eth0 IP: 1.2.3.4&lt;br&gt;&lt;/div&gt;&lt;div&gt;wg0 IP: 10.142.1.1&lt;/div&gt;" style="text;html=1;align=left;verticalAlign=middle;whiteSpace=wrap;rounded=1;fontSize=8;fontFamily=Lucida Console;spacing=2;" parent="1" vertex="1">
          <mxGeometry x="355" y="643.1299999999999" width="90" height="20.04" as="geometry" />
        </mxCell>
        <mxCell id="F3IjeC87NHKFIH8i6jZu-28" value="&lt;div&gt;wg0 IP: 10.142.1.2&lt;/div&gt;" style="text;html=1;align=center;verticalAlign=middle;whiteSpace=wrap;rounded=1;fontSize=8;fontFamily=Lucida Console;" parent="1" vertex="1">
          <mxGeometry x="609" y="642" width="90" height="12.17" as="geometry" />
        </mxCell>
        <mxCell id="F3IjeC87NHKFIH8i6jZu-30" value="&lt;div style=&quot;font-size: 10px;&quot;&gt;sshd&lt;/div&gt;" style="rounded=1;whiteSpace=wrap;html=1;fontFamily=Lucida Console;fontSize=10;" parent="1" vertex="1">
          <mxGeometry x="660.62" y="590" width="40" height="20" as="geometry" />
        </mxCell>
        <mxCell id="F3IjeC87NHKFIH8i6jZu-40" style="edgeStyle=none;curved=1;rounded=1;orthogonalLoop=1;jettySize=auto;html=1;fontSize=12;startSize=8;endSize=6;exitX=0;exitY=0.5;exitDx=0;exitDy=0;exitPerimeter=0;" parent="1" source="F3IjeC87NHKFIH8i6jZu-52" target="F3IjeC87NHKFIH8i6jZu-22" edge="1">
          <mxGeometry relative="1" as="geometry">
            <mxPoint x="652" y="550" as="targetPoint" />
            <mxPoint x="597" y="550" as="sourcePoint" />
          </mxGeometry>
        </mxCell>
        <mxCell id="F3IjeC87NHKFIH8i6jZu-41" value="&lt;div&gt;&lt;br&gt;&lt;/div&gt;&lt;div&gt;&lt;br&gt;&lt;/div&gt;" style="edgeLabel;html=1;align=right;verticalAlign=middle;resizable=0;points=[];fontSize=9;labelBackgroundColor=none;fontFamily=Courier New;rounded=1;" parent="F3IjeC87NHKFIH8i6jZu-40" vertex="1" connectable="0">
          <mxGeometry x="0.6404" y="-1" relative="1" as="geometry">
            <mxPoint x="3" y="-1" as="offset" />
          </mxGeometry>
        </mxCell>
        <mxCell id="tiKHXOeTpaJvJrnmPmkK-32" value=":5000" style="edgeLabel;html=1;align=center;verticalAlign=middle;resizable=0;points=[];fontSize=7;fontFamily=Lucida Console;labelBackgroundColor=none;" parent="F3IjeC87NHKFIH8i6jZu-40" vertex="1" connectable="0">
          <mxGeometry x="0.4392" relative="1" as="geometry">
            <mxPoint x="-6" y="-5" as="offset" />
          </mxGeometry>
        </mxCell>
        <mxCell id="F3IjeC87NHKFIH8i6jZu-52" value="" style="strokeWidth=2;html=1;shape=mxgraph.flowchart.direct_data;whiteSpace=wrap;rotation=-180;rounded=1;" parent="1" vertex="1">
          <mxGeometry x="505" y="540" width="80" height="20" as="geometry" />
        </mxCell>
        <mxCell id="F3IjeC87NHKFIH8i6jZu-55" value="" style="strokeWidth=2;html=1;shape=mxgraph.flowchart.direct_data;whiteSpace=wrap;rotation=-180;rounded=1;" parent="1" vertex="1">
          <mxGeometry x="275" y="590" width="270" height="20" as="geometry" />
        </mxCell>
        <mxCell id="F3IjeC87NHKFIH8i6jZu-60" value="" style="strokeWidth=2;html=1;shape=mxgraph.flowchart.direct_data;whiteSpace=wrap;rotation=-180;fontSize=10;flipH=0;flipV=0;rounded=1;" parent="1" vertex="1">
          <mxGeometry x="255" y="540" width="80" height="20" as="geometry" />
        </mxCell>
        <mxCell id="F3IjeC87NHKFIH8i6jZu-39" value="" style="endArrow=none;html=1;rounded=1;fontSize=12;startSize=8;endSize=8;curved=1;exitX=0;exitY=0.5;exitDx=0;exitDy=0;exitPerimeter=0;" parent="1" edge="1">
          <mxGeometry width="50" height="50" relative="1" as="geometry">
            <mxPoint x="343" y="550" as="sourcePoint" />
            <mxPoint x="519" y="550" as="targetPoint" />
            <Array as="points">
              <mxPoint x="482.80999999999995" y="550" />
            </Array>
          </mxGeometry>
        </mxCell>
        <mxCell id="F3IjeC87NHKFIH8i6jZu-70" value="registry.example.com" style="edgeLabel;align=center;verticalAlign=middle;resizable=0;points=[];fontSize=6;fontFamily=Lucida Console;html=1;labelBackgroundColor=default;labelBorderColor=default;rounded=1;" parent="F3IjeC87NHKFIH8i6jZu-39" vertex="1" connectable="0">
          <mxGeometry x="0.5036" relative="1" as="geometry">
            <mxPoint x="-11" as="offset" />
          </mxGeometry>
        </mxCell>
        <mxCell id="F3IjeC87NHKFIH8i6jZu-62" style="edgeStyle=none;curved=1;rounded=1;orthogonalLoop=1;jettySize=auto;html=1;fontSize=12;startSize=8;endSize=6;exitX=0;exitY=0.5;exitDx=0;exitDy=0;exitPerimeter=0;" parent="1" source="F3IjeC87NHKFIH8i6jZu-54" target="F3IjeC87NHKFIH8i6jZu-30" edge="1">
          <mxGeometry relative="1" as="geometry">
            <mxPoint x="652" y="599.76" as="targetPoint" />
            <mxPoint x="597" y="599.76" as="sourcePoint" />
          </mxGeometry>
        </mxCell>
        <mxCell id="F3IjeC87NHKFIH8i6jZu-63" value="&lt;div&gt;&lt;br&gt;&lt;/div&gt;&lt;div&gt;&lt;br&gt;&lt;/div&gt;" style="edgeLabel;html=1;align=right;verticalAlign=middle;resizable=0;points=[];fontSize=9;labelBackgroundColor=none;fontFamily=Courier New;rounded=1;" parent="F3IjeC87NHKFIH8i6jZu-62" vertex="1" connectable="0">
          <mxGeometry x="0.6404" y="-1" relative="1" as="geometry">
            <mxPoint x="3" y="-1" as="offset" />
          </mxGeometry>
        </mxCell>
        <mxCell id="tiKHXOeTpaJvJrnmPmkK-33" value=":22" style="edgeLabel;html=1;align=center;verticalAlign=middle;resizable=0;points=[];fontSize=7;fontFamily=Lucida Console;labelBackgroundColor=none;" parent="F3IjeC87NHKFIH8i6jZu-62" vertex="1" connectable="0">
          <mxGeometry x="0.7645" y="-1" relative="1" as="geometry">
            <mxPoint x="-29" y="-6" as="offset" />
          </mxGeometry>
        </mxCell>
        <mxCell id="F3IjeC87NHKFIH8i6jZu-66" value="" style="endArrow=none;html=1;rounded=1;fontSize=12;startSize=8;endSize=8;curved=1;" parent="1" edge="1">
          <mxGeometry width="50" height="50" relative="1" as="geometry">
            <mxPoint x="225" y="550" as="sourcePoint" />
            <mxPoint x="270" y="550" as="targetPoint" />
            <Array as="points">
              <mxPoint x="234.80999999999995" y="549.8" />
            </Array>
          </mxGeometry>
        </mxCell>
        <mxCell id="F3IjeC87NHKFIH8i6jZu-68" value="ssh 10.142.1.2" style="text;html=1;align=center;verticalAlign=middle;whiteSpace=wrap;rounded=1;fontSize=9;fontFamily=Lucida Console;" parent="1" vertex="1">
          <mxGeometry x="226" y="611.6" width="84" height="10" as="geometry" />
        </mxCell>
        <mxCell id="F3IjeC87NHKFIH8i6jZu-69" value="&lt;div&gt;*.example.com&lt;/div&gt;" style="text;html=1;align=center;verticalAlign=middle;whiteSpace=wrap;rounded=1;fontSize=9;fontFamily=Lucida Console;" parent="1" vertex="1">
          <mxGeometry x="228" y="561" width="73" height="10" as="geometry" />
        </mxCell>
        <mxCell id="F3IjeC87NHKFIH8i6jZu-71" value="" style="strokeWidth=2;html=1;shape=mxgraph.flowchart.direct_data;whiteSpace=wrap;rotation=-180;rounded=1;" parent="1" vertex="1">
          <mxGeometry x="505" y="470" width="80" height="20" as="geometry" />
        </mxCell>
        <mxCell id="F3IjeC87NHKFIH8i6jZu-79" value="" style="endArrow=none;html=1;rounded=1;fontSize=12;startSize=8;endSize=8;curved=0;exitX=0;exitY=0.206;exitDx=0;exitDy=0;exitPerimeter=0;entryX=0.85;entryY=0.335;entryDx=0;entryDy=0;entryPerimeter=0;" parent="1" source="NUGoPOzDiZfL2p5F_ZCF-28" target="NUGoPOzDiZfL2p5F_ZCF-13" edge="1">
          <mxGeometry width="50" height="50" relative="1" as="geometry">
            <mxPoint x="409.60833333333323" y="461.25" as="sourcePoint" />
            <mxPoint x="475" y="480" as="targetPoint" />
            <Array as="points" />
          </mxGeometry>
        </mxCell>
        <mxCell id="F3IjeC87NHKFIH8i6jZu-82" value="" style="endArrow=none;html=1;rounded=1;fontSize=12;startSize=8;endSize=8;curved=1;movable=1;resizable=1;rotatable=1;deletable=1;editable=1;locked=0;connectable=1;" parent="1" edge="1">
          <mxGeometry width="50" height="50" relative="1" as="geometry">
            <mxPoint x="477" y="480" as="sourcePoint" />
            <mxPoint x="520" y="480" as="targetPoint" />
          </mxGeometry>
        </mxCell>
        <mxCell id="F3IjeC87NHKFIH8i6jZu-83" style="edgeStyle=none;curved=1;rounded=1;orthogonalLoop=1;jettySize=auto;html=1;fontSize=12;startSize=8;endSize=6;exitX=0;exitY=0.5;exitDx=0;exitDy=0;exitPerimeter=0;entryX=0.005;entryY=0.63;entryDx=0;entryDy=0;entryPerimeter=0;" parent="1" source="F3IjeC87NHKFIH8i6jZu-71" target="5J9KQr7p8juKDhYsMrPo-54" edge="1">
          <mxGeometry relative="1" as="geometry">
            <mxPoint x="631.5700000000002" y="480.00387469839416" as="targetPoint" />
            <mxPoint x="597" y="479.83" as="sourcePoint" />
          </mxGeometry>
        </mxCell>
        <mxCell id="F3IjeC87NHKFIH8i6jZu-84" value="&lt;div&gt;&lt;br&gt;&lt;/div&gt;&lt;div&gt;&lt;br&gt;&lt;/div&gt;" style="edgeLabel;html=1;align=right;verticalAlign=middle;resizable=0;points=[];fontSize=9;labelBackgroundColor=none;fontFamily=Courier New;rounded=1;" parent="F3IjeC87NHKFIH8i6jZu-83" vertex="1" connectable="0">
          <mxGeometry x="0.6404" y="-1" relative="1" as="geometry">
            <mxPoint x="3" y="-1" as="offset" />
          </mxGeometry>
        </mxCell>
        <mxCell id="tiKHXOeTpaJvJrnmPmkK-34" value=":31343" style="edgeLabel;html=1;align=center;verticalAlign=middle;resizable=0;points=[];fontSize=7;fontFamily=Lucida Console;labelBackgroundColor=none;" parent="F3IjeC87NHKFIH8i6jZu-83" vertex="1" connectable="0">
          <mxGeometry x="0.1117" relative="1" as="geometry">
            <mxPoint x="-5" y="-5" as="offset" />
          </mxGeometry>
        </mxCell>
        <mxCell id="F3IjeC87NHKFIH8i6jZu-92" value="" style="html=1;dashed=0;whitespace=wrap;verticalLabelPosition=bottom;verticalAlign=top;fillColor=#2875E2;strokeColor=#ffffff;points=[[0.005,0.63,0],[0.1,0.2,0],[0.9,0.2,0],[0.5,0,0],[0.995,0.63,0],[0.72,0.99,0],[0.5,1,0],[0.28,0.99,0]];shape=mxgraph.kubernetes.icon2;kubernetesLabel=1;prIcon=pod;aspect=fixed;rounded=1;" parent="1" vertex="1">
          <mxGeometry x="785.75" y="425" width="20" height="19.2" as="geometry" />
        </mxCell>
        <mxCell id="5J9KQr7p8juKDhYsMrPo-58" value="" style="edgeStyle=none;curved=1;rounded=1;orthogonalLoop=1;jettySize=auto;html=1;fontSize=12;startSize=8;endSize=8;entryX=0.995;entryY=0.63;entryDx=0;entryDy=0;entryPerimeter=0;endArrow=none;endFill=0;exitX=0.005;exitY=0.63;exitDx=0;exitDy=0;exitPerimeter=0;" parent="1" source="F3IjeC87NHKFIH8i6jZu-93" target="F3IjeC87NHKFIH8i6jZu-92" edge="1">
          <mxGeometry relative="1" as="geometry">
            <mxPoint x="770.2379999999999" y="429.43000000000006" as="targetPoint" />
          </mxGeometry>
        </mxCell>
        <mxCell id="F3IjeC87NHKFIH8i6jZu-93" value="" style="aspect=fixed;html=1;dashed=0;whitespace=wrap;verticalLabelPosition=bottom;verticalAlign=top;fillColor=#2875E2;strokeColor=#ffffff;points=[[0.005,0.63,0],[0.1,0.2,0],[0.9,0.2,0],[0.5,0,0],[0.995,0.63,0],[0.72,0.99,0],[0.5,1,0],[0.28,0.99,0]];shape=mxgraph.kubernetes.icon2;kubernetesLabel=1;prIcon=vol;rounded=1;" parent="1" vertex="1">
          <mxGeometry x="818.25" y="425" width="20" height="19.2" as="geometry" />
        </mxCell>
        <mxCell id="5J9KQr7p8juKDhYsMrPo-63" value="" style="edgeStyle=none;curved=1;rounded=1;orthogonalLoop=1;jettySize=auto;html=1;fontSize=12;startSize=8;endSize=8;entryX=0.992;entryY=0.503;entryDx=0;entryDy=0;entryPerimeter=0;endArrow=none;endFill=0;exitX=0.005;exitY=0.63;exitDx=0;exitDy=0;exitPerimeter=0;" parent="1" source="F3IjeC87NHKFIH8i6jZu-94" target="5J9KQr7p8juKDhYsMrPo-56" edge="1">
          <mxGeometry relative="1" as="geometry" />
        </mxCell>
        <mxCell id="F3IjeC87NHKFIH8i6jZu-94" value="" style="html=1;dashed=0;whitespace=wrap;verticalLabelPosition=bottom;verticalAlign=top;fillColor=#2875E2;strokeColor=#ffffff;points=[[0.005,0.63,0],[0.1,0.2,0],[0.9,0.2,0],[0.5,0,0],[0.995,0.63,0],[0.72,0.99,0],[0.5,1,0],[0.28,0.99,0]];shape=mxgraph.kubernetes.icon2;kubernetesLabel=1;prIcon=pod;aspect=fixed;rounded=1;" parent="1" vertex="1">
          <mxGeometry x="795" y="464.60999999999996" width="20" height="19.2" as="geometry" />
        </mxCell>
        <mxCell id="F3IjeC87NHKFIH8i6jZu-95" value="" style="html=1;dashed=0;whitespace=wrap;verticalLabelPosition=bottom;verticalAlign=top;fillColor=#2875E2;strokeColor=#ffffff;points=[[0.005,0.63,0],[0.1,0.2,0],[0.9,0.2,0],[0.5,0,0],[0.995,0.63,0],[0.72,0.99,0],[0.5,1,0],[0.28,0.99,0]];shape=mxgraph.kubernetes.icon2;kubernetesLabel=1;prIcon=pod;aspect=fixed;rounded=1;" parent="1" vertex="1">
          <mxGeometry x="795" y="488.61" width="20" height="19.2" as="geometry" />
        </mxCell>
        <mxCell id="F3IjeC87NHKFIH8i6jZu-96" value="cluster k8s" style="text;html=1;align=center;verticalAlign=middle;whiteSpace=wrap;rounded=1;fontSize=10;fontFamily=Lucida Console;labelBackgroundColor=default;labelBorderColor=default;" parent="1" vertex="1">
          <mxGeometry x="654.6" y="406" width="71.4" height="10.8" as="geometry" />
        </mxCell>
        <mxCell id="5J9KQr7p8juKDhYsMrPo-7" value="" style="endArrow=classic;html=1;rounded=1;fontSize=12;startSize=8;endSize=8;curved=1;dashed=1;dashPattern=1 4;targetPerimeterSpacing=0;strokeWidth=0;" parent="1" edge="1">
          <mxGeometry width="50" height="50" relative="1" as="geometry">
            <mxPoint x="415" y="549.88" as="sourcePoint" />
            <mxPoint x="425" y="549.88" as="targetPoint" />
          </mxGeometry>
        </mxCell>
        <mxCell id="5J9KQr7p8juKDhYsMrPo-8" value="" style="endArrow=classic;html=1;rounded=1;fontSize=12;startSize=8;endSize=8;curved=1;dashed=1;dashPattern=1 4;targetPerimeterSpacing=0;strokeWidth=0;" parent="1" edge="1">
          <mxGeometry width="50" height="50" relative="1" as="geometry">
            <mxPoint x="415" y="453" as="sourcePoint" />
            <mxPoint x="425" y="453" as="targetPoint" />
          </mxGeometry>
        </mxCell>
        <mxCell id="5J9KQr7p8juKDhYsMrPo-10" value="" style="endArrow=none;html=1;rounded=1;fontSize=12;startSize=8;endSize=8;curved=1;exitX=0;exitY=0.5;exitDx=0;exitDy=0;exitPerimeter=0;" parent="1" source="F3IjeC87NHKFIH8i6jZu-60" edge="1">
          <mxGeometry width="50" height="50" relative="1" as="geometry">
            <mxPoint x="335" y="550" as="sourcePoint" />
            <mxPoint x="343" y="550" as="targetPoint" />
            <Array as="points" />
          </mxGeometry>
        </mxCell>
        <mxCell id="5J9KQr7p8juKDhYsMrPo-12" value="eth0" style="rounded=1;whiteSpace=wrap;html=1;horizontal=1;fontSize=9;fontFamily=Lucida Console;" parent="1" vertex="1">
          <mxGeometry x="339" y="446" width="25" height="15" as="geometry" />
        </mxCell>
        <mxCell id="5J9KQr7p8juKDhYsMrPo-14" value="wg0" style="rounded=1;whiteSpace=wrap;html=1;horizontal=1;fontSize=9;fontFamily=Lucida Console;" parent="1" vertex="1">
          <mxGeometry x="597" y="470" width="20" height="137.5" as="geometry" />
        </mxCell>
        <mxCell id="5J9KQr7p8juKDhYsMrPo-37" value="dnsmasq" style="rounded=1;whiteSpace=wrap;html=1;fontFamily=Lucida Console;horizontal=0;" parent="1" vertex="1">
          <mxGeometry x="385" y="474" width="20" height="57" as="geometry" />
        </mxCell>
        <mxCell id="5J9KQr7p8juKDhYsMrPo-38" value="" style="endArrow=none;dashed=1;html=1;rounded=1;fontSize=12;startSize=8;endSize=8;curved=1;entryX=0.199;entryY=0.431;entryDx=0;entryDy=0;entryPerimeter=0;dashPattern=1 2;strokeWidth=1.5;exitX=0.5;exitY=0;exitDx=0;exitDy=0;" parent="1" source="tiKHXOeTpaJvJrnmPmkK-7" target="NUGoPOzDiZfL2p5F_ZCF-13" edge="1">
          <mxGeometry width="50" height="50" relative="1" as="geometry">
            <mxPoint x="172" y="544.57" as="sourcePoint" />
            <mxPoint x="222" y="494.57" as="targetPoint" />
            <Array as="points">
              <mxPoint x="175" y="500" />
            </Array>
          </mxGeometry>
        </mxCell>
        <mxCell id="5J9KQr7p8juKDhYsMrPo-36" value="wg0" style="rounded=1;html=1;horizontal=1;fontSize=9;fontFamily=Lucida Console;" parent="1" vertex="1">
          <mxGeometry x="344" y="490" width="20" height="70" as="geometry" />
        </mxCell>
        <mxCell id="5J9KQr7p8juKDhYsMrPo-39" value="" style="shape=table;startSize=0;container=1;collapsible=0;childLayout=tableLayout;fontSize=16;fontFamily=Lucida Console;rounded=1;" parent="1" vertex="1">
          <mxGeometry x="185" y="507.81" width="130" height="12" as="geometry" />
        </mxCell>
        <mxCell id="5J9KQr7p8juKDhYsMrPo-40" value="" style="shape=tableRow;horizontal=0;startSize=0;swimlaneHead=0;swimlaneBody=0;strokeColor=inherit;top=0;left=0;bottom=0;right=0;collapsible=0;dropTarget=0;fillColor=none;points=[[0,0.5],[1,0.5]];portConstraint=eastwest;fontSize=16;rounded=1;" parent="5J9KQr7p8juKDhYsMrPo-39" vertex="1">
          <mxGeometry width="130" height="12" as="geometry" />
        </mxCell>
        <mxCell id="5J9KQr7p8juKDhYsMrPo-41" value="A" style="shape=partialRectangle;html=1;whiteSpace=wrap;connectable=0;strokeColor=inherit;overflow=hidden;fillColor=none;top=0;left=0;bottom=0;right=0;pointerEvents=1;fontSize=8;rounded=1;" parent="5J9KQr7p8juKDhYsMrPo-40" vertex="1">
          <mxGeometry width="15" height="12" as="geometry">
            <mxRectangle width="15" height="12" as="alternateBounds" />
          </mxGeometry>
        </mxCell>
        <mxCell id="5J9KQr7p8juKDhYsMrPo-42" value="example.com" style="shape=partialRectangle;html=1;whiteSpace=wrap;connectable=0;strokeColor=inherit;overflow=hidden;fillColor=none;top=0;left=0;bottom=0;right=0;pointerEvents=1;fontSize=8;fontFamily=Lucida Console;rounded=1;" parent="5J9KQr7p8juKDhYsMrPo-40" vertex="1">
          <mxGeometry x="15" width="59" height="12" as="geometry">
            <mxRectangle width="59" height="12" as="alternateBounds" />
          </mxGeometry>
        </mxCell>
        <mxCell id="5J9KQr7p8juKDhYsMrPo-43" value="10.142.1.1" style="shape=partialRectangle;html=1;whiteSpace=wrap;connectable=0;strokeColor=inherit;overflow=hidden;fillColor=none;top=0;left=0;bottom=0;right=0;pointerEvents=1;fontSize=8;fontFamily=Lucida Console;rounded=1;" parent="5J9KQr7p8juKDhYsMrPo-40" vertex="1">
          <mxGeometry x="74" width="56" height="12" as="geometry">
            <mxRectangle width="56" height="12" as="alternateBounds" />
          </mxGeometry>
        </mxCell>
        <mxCell id="5J9KQr7p8juKDhYsMrPo-54" value="" style="aspect=fixed;html=1;dashed=0;whitespace=wrap;verticalLabelPosition=bottom;verticalAlign=top;fillColor=#2875E2;strokeColor=#ffffff;points=[[0.005,0.63,0],[0.1,0.2,0],[0.9,0.2,0],[0.5,0,0],[0.995,0.63,0],[0.72,0.99,0],[0.5,1,0],[0.28,0.99,0]];shape=mxgraph.kubernetes.icon2;kubernetesLabel=1;prIcon=ing;rounded=1;" parent="1" vertex="1">
          <mxGeometry x="675" y="457.21" width="35.42" height="34" as="geometry" />
        </mxCell>
        <mxCell id="5J9KQr7p8juKDhYsMrPo-56" value="" style="aspect=fixed;html=1;dashed=0;whitespace=wrap;verticalLabelPosition=bottom;verticalAlign=top;fillColor=#2875E2;strokeColor=#ffffff;points=[[0.005,0.63,0],[0.1,0.2,0],[0.9,0.2,0],[0.5,0,0],[0.995,0.63,0],[0.72,0.99,0],[0.5,1,0],[0.28,0.99,0]];shape=mxgraph.kubernetes.icon2;kubernetesLabel=1;prIcon=svc;rounded=1;" parent="1" vertex="1">
          <mxGeometry x="735" y="472.94000000000005" width="28.75" height="27.6" as="geometry" />
        </mxCell>
        <mxCell id="5J9KQr7p8juKDhYsMrPo-64" value="" style="endArrow=none;html=1;rounded=1;fontSize=12;startSize=8;endSize=8;curved=1;entryX=0.005;entryY=0.63;entryDx=0;entryDy=0;entryPerimeter=0;exitX=0.992;exitY=0.723;exitDx=0;exitDy=0;exitPerimeter=0;" parent="1" source="5J9KQr7p8juKDhYsMrPo-56" target="F3IjeC87NHKFIH8i6jZu-95" edge="1">
          <mxGeometry width="50" height="50" relative="1" as="geometry">
            <mxPoint x="735" y="500" as="sourcePoint" />
            <mxPoint x="785" y="450" as="targetPoint" />
          </mxGeometry>
        </mxCell>
        <mxCell id="5J9KQr7p8juKDhYsMrPo-65" value="" style="endArrow=none;html=1;rounded=1;fontSize=12;startSize=8;endSize=8;curved=1;entryX=0.005;entryY=0.63;entryDx=0;entryDy=0;entryPerimeter=0;exitX=0.976;exitY=0.423;exitDx=0;exitDy=0;exitPerimeter=0;" parent="1" source="tiKHXOeTpaJvJrnmPmkK-1" target="F3IjeC87NHKFIH8i6jZu-92" edge="1">
          <mxGeometry width="50" height="50" relative="1" as="geometry">
            <mxPoint x="735" y="500" as="sourcePoint" />
            <mxPoint x="785" y="450" as="targetPoint" />
          </mxGeometry>
        </mxCell>
        <mxCell id="5J9KQr7p8juKDhYsMrPo-66" value="" style="endArrow=none;html=1;rounded=1;fontSize=12;startSize=8;endSize=8;curved=1;entryX=0;entryY=0.411;entryDx=0;entryDy=0;entryPerimeter=0;exitX=0.995;exitY=0.63;exitDx=0;exitDy=0;exitPerimeter=0;" parent="1" source="5J9KQr7p8juKDhYsMrPo-54" target="5J9KQr7p8juKDhYsMrPo-56" edge="1">
          <mxGeometry width="50" height="50" relative="1" as="geometry">
            <mxPoint x="655" y="470" as="sourcePoint" />
            <mxPoint x="705" y="420" as="targetPoint" />
          </mxGeometry>
        </mxCell>
        <mxCell id="tiKHXOeTpaJvJrnmPmkK-1" value="" style="aspect=fixed;html=1;dashed=0;whitespace=wrap;verticalLabelPosition=bottom;verticalAlign=top;fillColor=#2875E2;strokeColor=#ffffff;points=[[0.005,0.63,0],[0.1,0.2,0],[0.9,0.2,0],[0.5,0,0],[0.995,0.63,0],[0.72,0.99,0],[0.5,1,0],[0.28,0.99,0]];shape=mxgraph.kubernetes.icon2;kubernetesLabel=1;prIcon=svc;rounded=1;" parent="1" vertex="1">
          <mxGeometry x="735" y="425.40999999999997" width="28.75" height="27.6" as="geometry" />
        </mxCell>
        <mxCell id="tiKHXOeTpaJvJrnmPmkK-3" value="" style="endArrow=none;html=1;rounded=1;fontSize=12;startSize=8;endSize=8;curved=1;entryX=0.005;entryY=0.63;entryDx=0;entryDy=0;entryPerimeter=0;exitX=0.9;exitY=0.2;exitDx=0;exitDy=0;exitPerimeter=0;" parent="1" source="5J9KQr7p8juKDhYsMrPo-54" target="tiKHXOeTpaJvJrnmPmkK-1" edge="1">
          <mxGeometry width="50" height="50" relative="1" as="geometry">
            <mxPoint x="675" y="510" as="sourcePoint" />
            <mxPoint x="725" y="460" as="targetPoint" />
          </mxGeometry>
        </mxCell>
        <mxCell id="tiKHXOeTpaJvJrnmPmkK-9" value="" style="group;rounded=1;" parent="1" vertex="1" connectable="0">
          <mxGeometry x="233" y="364" width="114" height="50" as="geometry" />
        </mxCell>
        <mxCell id="5J9KQr7p8juKDhYsMrPo-16" value="DNS" style="verticalLabelPosition=top;aspect=fixed;html=1;verticalAlign=bottom;strokeColor=none;fillColor=#000000;align=center;outlineConnect=0;pointerEvents=1;shape=mxgraph.citrix2.dns;labelPosition=center;fontSize=11;fontFamily=Lucida Console;rounded=1;" parent="tiKHXOeTpaJvJrnmPmkK-9" vertex="1">
          <mxGeometry x="36" width="50" height="50" as="geometry" />
        </mxCell>
        <mxCell id="5J9KQr7p8juKDhYsMrPo-20" value="" style="shape=table;startSize=0;container=1;collapsible=0;childLayout=tableLayout;fontSize=16;fontFamily=Lucida Console;rounded=1;" parent="tiKHXOeTpaJvJrnmPmkK-9" vertex="1">
          <mxGeometry y="29.55000000000001" width="114" height="12" as="geometry" />
        </mxCell>
        <mxCell id="5J9KQr7p8juKDhYsMrPo-21" value="" style="shape=tableRow;horizontal=0;startSize=0;swimlaneHead=0;swimlaneBody=0;strokeColor=inherit;top=0;left=0;bottom=0;right=0;collapsible=0;dropTarget=0;fillColor=none;points=[[0,0.5],[1,0.5]];portConstraint=eastwest;fontSize=16;rounded=1;" parent="5J9KQr7p8juKDhYsMrPo-20" vertex="1">
          <mxGeometry width="114" height="12" as="geometry" />
        </mxCell>
        <mxCell id="5J9KQr7p8juKDhYsMrPo-22" value="A" style="shape=partialRectangle;html=1;whiteSpace=wrap;connectable=0;strokeColor=inherit;overflow=hidden;fillColor=none;top=0;left=0;bottom=0;right=0;pointerEvents=1;fontSize=8;rounded=1;" parent="5J9KQr7p8juKDhYsMrPo-21" vertex="1">
          <mxGeometry width="13" height="12" as="geometry">
            <mxRectangle width="13" height="12" as="alternateBounds" />
          </mxGeometry>
        </mxCell>
        <mxCell id="5J9KQr7p8juKDhYsMrPo-23" value="example.com" style="shape=partialRectangle;html=1;whiteSpace=wrap;connectable=0;strokeColor=inherit;overflow=hidden;fillColor=none;top=0;left=0;bottom=0;right=0;pointerEvents=1;fontSize=8;fontFamily=Lucida Console;rounded=1;" parent="5J9KQr7p8juKDhYsMrPo-21" vertex="1">
          <mxGeometry x="13" width="62" height="12" as="geometry">
            <mxRectangle width="62" height="12" as="alternateBounds" />
          </mxGeometry>
        </mxCell>
        <mxCell id="5J9KQr7p8juKDhYsMrPo-24" value="1.2.3.4" style="shape=partialRectangle;html=1;whiteSpace=wrap;connectable=0;strokeColor=inherit;overflow=hidden;fillColor=none;top=0;left=0;bottom=0;right=0;pointerEvents=1;fontSize=8;fontFamily=Lucida Console;rounded=1;" parent="5J9KQr7p8juKDhYsMrPo-21" vertex="1">
          <mxGeometry x="75" width="39" height="12" as="geometry">
            <mxRectangle width="39" height="12" as="alternateBounds" />
          </mxGeometry>
        </mxCell>
        <mxCell id="tiKHXOeTpaJvJrnmPmkK-16" value="nvidia-container-runtime" style="rounded=1;whiteSpace=wrap;html=1;fontFamily=Lucida Console;fontSize=7;" parent="1" vertex="1">
          <mxGeometry x="782.12" y="551" width="110" height="10" as="geometry" />
        </mxCell>
        <mxCell id="tiKHXOeTpaJvJrnmPmkK-18" style="edgeStyle=none;curved=1;rounded=1;orthogonalLoop=1;jettySize=auto;html=1;entryX=0.8;entryY=0.99;entryDx=0;entryDy=0;entryPerimeter=0;fontSize=12;startSize=5;endSize=5;startArrow=classic;startFill=0;endArrow=classic;endFill=0;" parent="1" edge="1">
          <mxGeometry relative="1" as="geometry">
            <mxPoint x="837" y="551" as="sourcePoint" />
            <mxPoint x="837" y="520" as="targetPoint" />
          </mxGeometry>
        </mxCell>
        <mxCell id="tiKHXOeTpaJvJrnmPmkK-19" style="edgeStyle=none;curved=1;rounded=1;orthogonalLoop=1;jettySize=auto;html=1;entryX=0.8;entryY=0.99;entryDx=0;entryDy=0;entryPerimeter=0;fontSize=12;startSize=5;endSize=5;startArrow=classic;startFill=0;endArrow=classic;endFill=0;" parent="1" edge="1">
          <mxGeometry relative="1" as="geometry">
            <mxPoint x="818.99" y="592" as="sourcePoint" />
            <mxPoint x="818.99" y="561" as="targetPoint" />
          </mxGeometry>
        </mxCell>
        <mxCell id="tiKHXOeTpaJvJrnmPmkK-20" value="" style="editableCssRules=.*;html=1;shape=image;verticalLabelPosition=bottom;labelBackgroundColor=#ffffff;verticalAlign=top;aspect=fixed;imageAspect=0;image=data:image/svg+xml,PHN2ZyB4bWxucz0iaHR0cDovL3d3dy53My5vcmcvMjAwMC9zdmciIHhtbG5zOnY9Imh0dHBzOi8vdmVjdGEuaW8vbmFubyIgd2lkdGg9IjIwIiBoZWlnaHQ9IjIwIiB2aWV3Qm94PSIwIDAgMjAgMjAiPiYjeGE7CTxzdHlsZSB0eXBlPSJ0ZXh0L2NzcyI+JiN4YTsJLnN0MHtmaWxsOiM0Mjg1ZjQ7fSYjeGE7CTwvc3R5bGU+JiN4YTsJPHBhdGggY2xhc3M9InN0MCIgZD0iTTEzLjMzIDB2Mi4zOGgtMi4xNlYwSDguODN2Mi4zOEg2LjY3VjBINC4yOXYyLjM4YTIgMiAwIDAgMC0xLjkxIDEuOTFIMHYyLjM4aDIuMzh2Mi4xNEgwdjIuMzhoMi4zOHYyLjE0SDB2Mi4zOGgyLjM4YTIgMiAwIDAgMCAxLjkxIDEuOTFWMjBoMi4zOHYtMi4zOGgyLjE2VjIwaDIuMzR2LTIuMzhoMi4xNlYyMGgyLjM4di0yLjM4YTIgMiAwIDAgMCAxLjkxLTEuOTFIMjB2LTIuMzhoLTIuMzh2LTIuMTRIMjBWOC44MWgtMi4zOFY2LjY3SDIwVjQuMjloLTIuMzhhMiAyIDAgMCAwLTEuOTEtMS45MVYwem0xLjUzIDE1LjI0SDUuMTRhLjM4LjM4IDAgMCAxLS4zOC0uMzhWNS4xNGEuMzguMzggMCAwIDEgLjM4LS4zOGg5LjcyYS4zOC4zOCAwIDAgMSAuMzguMzh2OS43MmEuMzguMzggMCAwIDEtLjM4LjM4em0tMi4wNy02LjEybC0zLjUgNC44NnYtMy42M0g3LjIybDMuNjEtNC44MXYzLjU4eiIvPiYjeGE7PC9zdmc+;rounded=1;" parent="1" vertex="1">
          <mxGeometry x="809" y="593" width="20" height="20" as="geometry" />
        </mxCell>
        <mxCell id="tiKHXOeTpaJvJrnmPmkK-14" value="" style="shape=image;verticalLabelPosition=bottom;labelBackgroundColor=default;verticalAlign=top;aspect=fixed;imageAspect=0;image=data:image/svg+xml,PHN2ZyB4bWxucz0iaHR0cDovL3d3dy53My5vcmcvMjAwMC9zdmciIHZpZXdCb3g9IjAgMCAxMDI0IDEwMjQiIGhlaWdodD0iODAwcHgiIHdpZHRoPSI4MDBweCI+JiN4YTsgICA8Y2lyY2xlIHN0eWxlPSJmaWxsOiM3NmI5MDAiIHI9IjUxMiIgY3k9IjUxMi4yNSIgY3g9IjUxMi4yNSIvPiYjeGE7ICAgPHBhdGggc3R5bGU9ImZpbGw6I2ZmZiIgZD0iTTQzMC41OCA0MzYuOXYtMzMuNjZjMy4yNi0uMjMgNi41Ni0uNDEgOS45Mi0uNTEgOTItMi44OSAxNTIuNDEgNzkuMDkgMTUyLjQxIDc5LjA5UzUyNy43IDU3Mi40IDQ1Ny43OCA1NzIuNGE4NC44NiA4NC44NiAwIDAgMS0yNy4yLTQuMzVWNDY2YzM1LjgzIDQuMzMgNDMgMjAuMTUgNjQuNTcgNTYuMDZsNDcuOTEtNDAuNHMtMzUtNDUuODctOTMuOTEtNDUuODdhMTcwLjA3IDE3MC4wNyAwIDAgMC0xOC41NiAxLjFtMC0xMTEuMTdWMzc2YzMuMy0uMjcgNi42MS0uNDcgOS45Mi0uNTkgMTI4LTQuMzEgMjExLjM3IDEwNSAyMTEuMzcgMTA1cy05NS43OSAxMTYuNDItMTk1LjU3IDExNi40MmExNDYuOTIgMTQ2LjkyIDAgMCAxLTI1Ljc0LTIuMjd2MzEuMDhBMTY5LjY0IDE2OS42NCAwIDAgMCA0NTIgNjI3YzkyLjg1IDAgMTYwLTQ3LjQyIDIyNS0xMDMuNTQgMTAuNzcgOC42NCA1NC45IDI5LjYzIDY0IDM4LjgzLTYxLjgzIDUxLjc2LTIwNS45MSA5My40OC0yODcuNTkgOTMuNDgtNy44NyAwLTE1LjQ0LS40Ny0yMi44Ni0xLjE5djQzLjY3aDM1Mi45M1YzMjUuNzN6bTAgMjQyLjMxdjI2LjUyQzM0NC42OSA1NzkuMjYgMzIwLjg1IDQ5MCAzMjAuODUgNDkwczQxLjI0LTQ1LjY5IDEwOS43My01My4wOFY0NjZoLS4xNGMtMzUuOTMtNC4zMS02NCAyOS4yNS02NCAyOS4yNXMxNS43NCA1Ni41MyA2NC4xNiA3Mi44TTI3OCA0ODYuMTFzNTAuOS03NS4xMSAxNTIuNTQtODIuODdWMzc2QzMxOCAzODUgMjIwLjUyIDQ4MC4zNiAyMjAuNTIgNDgwLjM2UzI3NS43MyA2NDAgNDMwLjU4IDY1NC42di0yOUMzMTYuOTUgNjExLjM0IDI3OCA0ODYuMTEgMjc4IDQ4Ni4xMSIvPiYjeGE7PC9zdmc+;rounded=1;" parent="1" vertex="1">
          <mxGeometry x="820" y="603.4" width="14.77" height="14.77" as="geometry" />
        </mxCell>
        <mxCell id="F3IjeC87NHKFIH8i6jZu-59" value="" style="group;rounded=1;" parent="1" vertex="1" connectable="0">
          <mxGeometry x="240" y="590" width="350" height="20" as="geometry" />
        </mxCell>
        <mxCell id="F3IjeC87NHKFIH8i6jZu-53" value="" style="strokeWidth=2;html=1;shape=mxgraph.flowchart.direct_data;whiteSpace=wrap;rotation=-180;rounded=1;" parent="F3IjeC87NHKFIH8i6jZu-59" vertex="1">
          <mxGeometry x="15" width="80" height="20" as="geometry" />
        </mxCell>
        <mxCell id="F3IjeC87NHKFIH8i6jZu-54" value="" style="strokeWidth=2;html=1;shape=mxgraph.flowchart.direct_data;whiteSpace=wrap;rotation=-180;rounded=1;" parent="F3IjeC87NHKFIH8i6jZu-59" vertex="1">
          <mxGeometry x="270" width="80" height="20" as="geometry" />
        </mxCell>
        <mxCell id="F3IjeC87NHKFIH8i6jZu-58" value="" style="verticalLabelPosition=middle;verticalAlign=middle;html=1;shape=mxgraph.basic.rect;fillColor2=none;strokeWidth=1;size=20;indent=5;strokeColor=none;fontFamily=Lucida Console;labelPosition=center;align=center;rounded=1;" parent="F3IjeC87NHKFIH8i6jZu-59" vertex="1">
          <mxGeometry x="60" y="1" width="273" height="18" as="geometry" />
        </mxCell>
        <mxCell id="F3IjeC87NHKFIH8i6jZu-67" value="" style="endArrow=none;html=1;rounded=1;fontSize=12;startSize=8;endSize=8;curved=1;exitX=1.013;exitY=0.769;exitDx=0;exitDy=0;exitPerimeter=0;" parent="F3IjeC87NHKFIH8i6jZu-59" edge="1">
          <mxGeometry width="50" height="50" relative="1" as="geometry">
            <mxPoint x="-15" y="10.365000000000123" as="sourcePoint" />
            <mxPoint x="30" y="10" as="targetPoint" />
            <Array as="points" />
          </mxGeometry>
        </mxCell>
        <mxCell id="tiKHXOeTpaJvJrnmPmkK-21" value="" style="aspect=fixed;sketch=0;html=1;dashed=0;whitespace=wrap;verticalLabelPosition=bottom;verticalAlign=top;fillColor=#2875E2;strokeColor=#ffffff;points=[[0.005,0.63,0],[0.1,0.2,0],[0.9,0.2,0],[0.5,0,0],[0.995,0.63,0],[0.72,0.99,0],[0.5,1,0],[0.28,0.99,0]];shape=mxgraph.kubernetes.icon2;kubernetesLabel=1;prIcon=control_plane" parent="1" vertex="1">
          <mxGeometry x="699" y="512.2" width="39.58" height="38" as="geometry" />
        </mxCell>
        <mxCell id="tiKHXOeTpaJvJrnmPmkK-28" value="k8s-master" style="sketch=0;verticalLabelPosition=bottom;sketch=0;aspect=fixed;html=1;verticalAlign=top;strokeColor=none;fillColor=#000000;align=center;outlineConnect=0;pointerEvents=1;shape=mxgraph.citrix2.thin_client;fontFamily=Lucida Console;" parent="1" vertex="1">
          <mxGeometry x="710.42" y="620" width="36.565" height="50" as="geometry" />
        </mxCell>
        <mxCell id="tiKHXOeTpaJvJrnmPmkK-29" value="&lt;div&gt;k8s-worker&lt;/div&gt;" style="sketch=0;verticalLabelPosition=bottom;sketch=0;aspect=fixed;html=1;verticalAlign=top;strokeColor=none;fillColor=#000000;align=center;outlineConnect=0;pointerEvents=1;shape=mxgraph.citrix2.thin_client;fontFamily=Lucida Console;" parent="1" vertex="1">
          <mxGeometry x="859.43" y="620.17" width="36.565" height="50" as="geometry" />
        </mxCell>
      </root>
    </mxGraphModel>
  </diagram>
</mxfile>
